G04 #@! TF.FileFunction,Soldermask,Bot*
%FSLAX46Y46*%
G04 Gerber Fmt 4.6, Leading zero omitted, Abs format (unit mm)*
G04 Created by KiCad (PCBNEW 4.0.5) date 06/01/17 17:38:21*
%MOMM*%
%LPD*%
G01*
G04 APERTURE LIST*
%ADD10C,0.100000*%
%ADD11C,5.401260*%
%ADD12C,2.000000*%
%ADD13C,1.800000*%
%ADD14C,2.400000*%
%ADD15R,2.000000X2.000000*%
%ADD16O,2.000000X2.000000*%
%ADD17C,3.399740*%
%ADD18C,1.400000*%
%ADD19R,1.400000X1.400000*%
%ADD20C,2.200000*%
%ADD21O,2.400000X1.900000*%
%ADD22R,1.900000X2.400000*%
%ADD23O,1.900000X2.400000*%
%ADD24C,1.920000*%
%ADD25R,1.920000X1.920000*%
G04 APERTURE END LIST*
D10*
D11*
X163677600Y-102951280D03*
X163677600Y-113111280D03*
D12*
X113924080Y-107395000D03*
X113924080Y-112395000D03*
D13*
X125740800Y-116210080D03*
X123240800Y-116210080D03*
D14*
X140963000Y-115620800D03*
X148463000Y-115620800D03*
D12*
X157017720Y-102939840D03*
X157017720Y-107939840D03*
D15*
X123417960Y-100396040D03*
D12*
X125917960Y-100396040D03*
X141991080Y-105298240D03*
X146991080Y-107098240D03*
X96052640Y-100949760D03*
D16*
X96052640Y-113649760D03*
D12*
X100675440Y-112445800D03*
D16*
X100675440Y-102285800D03*
D12*
X118597680Y-116174520D03*
D16*
X118597680Y-106014520D03*
D12*
X107264200Y-100411280D03*
D16*
X117424200Y-100411280D03*
D12*
X136453880Y-106014520D03*
D16*
X136453880Y-116174520D03*
D12*
X141960600Y-100787200D03*
D16*
X131800600Y-100787200D03*
D12*
X152074880Y-102895400D03*
D16*
X152074880Y-113055400D03*
D17*
X163652200Y-94843600D03*
X153492200Y-94843600D03*
D18*
X130520440Y-111993680D03*
X129250440Y-110723680D03*
D19*
X131790440Y-110723680D03*
D15*
X81172040Y-100629720D03*
D12*
X86172040Y-100629720D03*
D15*
X81157440Y-108742480D03*
D12*
X83657440Y-108742480D03*
D20*
X88675200Y-94477840D03*
X91175200Y-94477840D03*
X93675200Y-94477840D03*
D21*
X122285760Y-109799120D03*
D22*
X124825760Y-112339120D03*
D23*
X124825760Y-107259120D03*
D24*
X145542000Y-111485680D03*
X148082000Y-111485680D03*
D25*
X143002000Y-111485680D03*
D24*
X91511120Y-99446080D03*
X94051120Y-99446080D03*
D25*
X88971120Y-99446080D03*
M02*
