M48
;DRILL file {KiCad 4.0.5} date 06/13/17 11:48:19
;FORMAT={-:-/ absolute / metric / decimal}
FMAT,2
METRIC,TZ
T1C0.600
T2C0.700
T3C0.800
T4C1.000
T5C1.501
T6C2.499
%
G90
G05
M71
T1
X118.42Y-105.09
X119.69Y-106.36
X120.96Y-105.09
X126.99Y-97.881
X131.99Y-99.681
T2
X113.33Y-115.458
X115.83Y-115.458
X120.188Y-109.987
X120.188Y-115.067
T3
X83.428Y-100.564
X84.119Y-108.692
X86.619Y-108.692
X88.428Y-100.564
X92.629Y-100.863
X95.169Y-100.863
X97.109Y-104.826
X97.109Y-117.526
X97.709Y-100.863
X99.289Y-96.418
X100.675Y-102.286
X100.675Y-112.446
X104.526Y-103.758
X104.526Y-108.758
X107.925Y-99.903
X107.925Y-110.063
X109.449Y-96.418
X112.375Y-109.047
X113.431Y-98.882
X114.915Y-106.507
X114.915Y-111.587
X115.931Y-98.882
X122.723Y-111.618
X124.13Y-95.433
X124.13Y-105.593
X125.263Y-111.618
X127.488Y-102.372
X127.488Y-107.372
X127.803Y-111.618
X131.023Y-102.509
X131.023Y-112.669
T4
X88.675Y-94.478
X91.175Y-94.478
X93.675Y-94.478
X123.117Y-115.611
X130.617Y-115.611
T5
X128.28Y-94.554
X138.44Y-94.554
T6
X136.281Y-103.642
X136.281Y-113.802
T0
M30
