G04 #@! TF.FileFunction,Legend,Top*
%FSLAX46Y46*%
G04 Gerber Fmt 4.6, Leading zero omitted, Abs format (unit mm)*
G04 Created by KiCad (PCBNEW 4.0.5) date 06/13/17 11:48:23*
%MOMM*%
%LPD*%
G01*
G04 APERTURE LIST*
%ADD10C,0.100000*%
%ADD11C,0.120000*%
%ADD12C,0.150000*%
G04 APERTURE END LIST*
D10*
D11*
X121489880Y-103239960D02*
X117889880Y-103239960D01*
X121528358Y-103251482D02*
G75*
G02X119689880Y-107689960I-1838478J-1838478D01*
G01*
X117851402Y-103251482D02*
G75*
G03X119689880Y-107689960I1838478J-1838478D01*
G01*
D12*
X94038420Y-111490760D02*
X94937580Y-111490760D01*
X89237820Y-103891080D02*
X88338660Y-103891080D01*
X88338660Y-103891080D02*
X88338660Y-111490760D01*
X88338660Y-111490760D02*
X89237820Y-111490760D01*
X94937580Y-111490760D02*
X94937580Y-103891080D01*
X94937580Y-103891080D02*
X94038420Y-103891080D01*
D11*
X98769280Y-106615800D02*
X95449280Y-106615800D01*
X95449280Y-106615800D02*
X95449280Y-115735800D01*
X95449280Y-115735800D02*
X98769280Y-115735800D01*
X98769280Y-115735800D02*
X98769280Y-106615800D01*
X97109280Y-105805800D02*
X97109280Y-106615800D01*
X97109280Y-116545800D02*
X97109280Y-115735800D01*
X81227560Y-100563680D02*
X82427560Y-100563680D01*
X81827560Y-99913680D02*
X81827560Y-101213680D01*
X88052770Y-99584352D02*
G75*
G03X83802660Y-99583680I-2125210J-979328D01*
G01*
X88052770Y-101543008D02*
G75*
G02X83802660Y-101543680I-2125210J979328D01*
G01*
X81919080Y-108691680D02*
X83119080Y-108691680D01*
X82519080Y-108041680D02*
X82519080Y-109341680D01*
X87765943Y-107710280D02*
G75*
G03X82971644Y-107711680I-2396863J-981400D01*
G01*
X87765943Y-109673080D02*
G75*
G02X82971644Y-109671680I-2396863J981400D01*
G01*
X87765943Y-109673080D02*
G75*
G03X87766516Y-107711680I-2396863J981400D01*
G01*
X128797680Y-101312160D02*
X128797680Y-108432160D01*
X126177680Y-101312160D02*
X126177680Y-108432160D01*
X128797680Y-101312160D02*
X126177680Y-101312160D01*
X128797680Y-108432160D02*
X126177680Y-108432160D01*
X90294200Y-116343880D02*
X92294200Y-116343880D01*
X92294200Y-113383880D02*
X90294200Y-113383880D01*
X99751960Y-115122320D02*
X99751960Y-117122320D01*
X101791960Y-117122320D02*
X101791960Y-115122320D01*
X105836080Y-102697720D02*
X105836080Y-109817720D01*
X103216080Y-102697720D02*
X103216080Y-109817720D01*
X105836080Y-102697720D02*
X103216080Y-102697720D01*
X105836080Y-109817720D02*
X103216080Y-109817720D01*
X116939720Y-117018240D02*
X112219720Y-117018240D01*
X116939720Y-113898240D02*
X112219720Y-113898240D01*
X116939720Y-117018240D02*
X116939720Y-113898240D01*
X112219720Y-117018240D02*
X112219720Y-113898240D01*
X121806960Y-114050640D02*
X131926960Y-114050640D01*
X121806960Y-117170640D02*
X131926960Y-117170640D01*
X121806960Y-114050640D02*
X121806960Y-117170640D01*
X131926960Y-114050640D02*
X131926960Y-117170640D01*
X114681320Y-95082200D02*
X114681320Y-102682200D01*
X114721320Y-95082200D02*
X114721320Y-102682200D01*
X114761320Y-95082200D02*
X114761320Y-102682200D01*
X114801320Y-95083200D02*
X114801320Y-102681200D01*
X114841320Y-95085200D02*
X114841320Y-102679200D01*
X114881320Y-95087200D02*
X114881320Y-102677200D01*
X114921320Y-95089200D02*
X114921320Y-102675200D01*
X114961320Y-95092200D02*
X114961320Y-97902200D01*
X114961320Y-99862200D02*
X114961320Y-102672200D01*
X115001320Y-95095200D02*
X115001320Y-97902200D01*
X115001320Y-99862200D02*
X115001320Y-102669200D01*
X115041320Y-95098200D02*
X115041320Y-97902200D01*
X115041320Y-99862200D02*
X115041320Y-102666200D01*
X115081320Y-95102200D02*
X115081320Y-97902200D01*
X115081320Y-99862200D02*
X115081320Y-102662200D01*
X115121320Y-95107200D02*
X115121320Y-97902200D01*
X115121320Y-99862200D02*
X115121320Y-102657200D01*
X115161320Y-95112200D02*
X115161320Y-97902200D01*
X115161320Y-99862200D02*
X115161320Y-102652200D01*
X115201320Y-95117200D02*
X115201320Y-97902200D01*
X115201320Y-99862200D02*
X115201320Y-102647200D01*
X115241320Y-95123200D02*
X115241320Y-97902200D01*
X115241320Y-99862200D02*
X115241320Y-102641200D01*
X115281320Y-95129200D02*
X115281320Y-97902200D01*
X115281320Y-99862200D02*
X115281320Y-102635200D01*
X115321320Y-95135200D02*
X115321320Y-97902200D01*
X115321320Y-99862200D02*
X115321320Y-102629200D01*
X115361320Y-95142200D02*
X115361320Y-97902200D01*
X115361320Y-99862200D02*
X115361320Y-102622200D01*
X115402320Y-95150200D02*
X115402320Y-97902200D01*
X115402320Y-99862200D02*
X115402320Y-102614200D01*
X115442320Y-95157200D02*
X115442320Y-97902200D01*
X115442320Y-99862200D02*
X115442320Y-102607200D01*
X115482320Y-95166200D02*
X115482320Y-97902200D01*
X115482320Y-99862200D02*
X115482320Y-102598200D01*
X115522320Y-95175200D02*
X115522320Y-97902200D01*
X115522320Y-99862200D02*
X115522320Y-102589200D01*
X115562320Y-95184200D02*
X115562320Y-97902200D01*
X115562320Y-99862200D02*
X115562320Y-102580200D01*
X115602320Y-95193200D02*
X115602320Y-97902200D01*
X115602320Y-99862200D02*
X115602320Y-102571200D01*
X115642320Y-95203200D02*
X115642320Y-97902200D01*
X115642320Y-99862200D02*
X115642320Y-102561200D01*
X115682320Y-95214200D02*
X115682320Y-97902200D01*
X115682320Y-99862200D02*
X115682320Y-102550200D01*
X115722320Y-95225200D02*
X115722320Y-97902200D01*
X115722320Y-99862200D02*
X115722320Y-102539200D01*
X115762320Y-95237200D02*
X115762320Y-97902200D01*
X115762320Y-99862200D02*
X115762320Y-102527200D01*
X115802320Y-95248200D02*
X115802320Y-97902200D01*
X115802320Y-99862200D02*
X115802320Y-102516200D01*
X115842320Y-95261200D02*
X115842320Y-97902200D01*
X115842320Y-99862200D02*
X115842320Y-102503200D01*
X115882320Y-95274200D02*
X115882320Y-97902200D01*
X115882320Y-99862200D02*
X115882320Y-102490200D01*
X115922320Y-95287200D02*
X115922320Y-97902200D01*
X115922320Y-99862200D02*
X115922320Y-102477200D01*
X115962320Y-95301200D02*
X115962320Y-97902200D01*
X115962320Y-99862200D02*
X115962320Y-102463200D01*
X116002320Y-95316200D02*
X116002320Y-97902200D01*
X116002320Y-99862200D02*
X116002320Y-102448200D01*
X116042320Y-95330200D02*
X116042320Y-97902200D01*
X116042320Y-99862200D02*
X116042320Y-102434200D01*
X116082320Y-95346200D02*
X116082320Y-97902200D01*
X116082320Y-99862200D02*
X116082320Y-102418200D01*
X116122320Y-95362200D02*
X116122320Y-97902200D01*
X116122320Y-99862200D02*
X116122320Y-102402200D01*
X116162320Y-95378200D02*
X116162320Y-97902200D01*
X116162320Y-99862200D02*
X116162320Y-102386200D01*
X116202320Y-95395200D02*
X116202320Y-97902200D01*
X116202320Y-99862200D02*
X116202320Y-102369200D01*
X116242320Y-95413200D02*
X116242320Y-97902200D01*
X116242320Y-99862200D02*
X116242320Y-102351200D01*
X116282320Y-95431200D02*
X116282320Y-97902200D01*
X116282320Y-99862200D02*
X116282320Y-102333200D01*
X116322320Y-95449200D02*
X116322320Y-97902200D01*
X116322320Y-99862200D02*
X116322320Y-102315200D01*
X116362320Y-95469200D02*
X116362320Y-97902200D01*
X116362320Y-99862200D02*
X116362320Y-102295200D01*
X116402320Y-95488200D02*
X116402320Y-97902200D01*
X116402320Y-99862200D02*
X116402320Y-102276200D01*
X116442320Y-95509200D02*
X116442320Y-97902200D01*
X116442320Y-99862200D02*
X116442320Y-102255200D01*
X116482320Y-95530200D02*
X116482320Y-97902200D01*
X116482320Y-99862200D02*
X116482320Y-102234200D01*
X116522320Y-95551200D02*
X116522320Y-97902200D01*
X116522320Y-99862200D02*
X116522320Y-102213200D01*
X116562320Y-95573200D02*
X116562320Y-97902200D01*
X116562320Y-99862200D02*
X116562320Y-102191200D01*
X116602320Y-95596200D02*
X116602320Y-97902200D01*
X116602320Y-99862200D02*
X116602320Y-102168200D01*
X116642320Y-95619200D02*
X116642320Y-97902200D01*
X116642320Y-99862200D02*
X116642320Y-102145200D01*
X116682320Y-95643200D02*
X116682320Y-97902200D01*
X116682320Y-99862200D02*
X116682320Y-102121200D01*
X116722320Y-95668200D02*
X116722320Y-97902200D01*
X116722320Y-99862200D02*
X116722320Y-102096200D01*
X116762320Y-95694200D02*
X116762320Y-97902200D01*
X116762320Y-99862200D02*
X116762320Y-102070200D01*
X116802320Y-95720200D02*
X116802320Y-97902200D01*
X116802320Y-99862200D02*
X116802320Y-102044200D01*
X116842320Y-95747200D02*
X116842320Y-97902200D01*
X116842320Y-99862200D02*
X116842320Y-102017200D01*
X116882320Y-95774200D02*
X116882320Y-97902200D01*
X116882320Y-99862200D02*
X116882320Y-101990200D01*
X116922320Y-95803200D02*
X116922320Y-101961200D01*
X116962320Y-95832200D02*
X116962320Y-101932200D01*
X117002320Y-95862200D02*
X117002320Y-101902200D01*
X117042320Y-95892200D02*
X117042320Y-101872200D01*
X117082320Y-95924200D02*
X117082320Y-101840200D01*
X117122320Y-95956200D02*
X117122320Y-101808200D01*
X117162320Y-95990200D02*
X117162320Y-101774200D01*
X117202320Y-96024200D02*
X117202320Y-101740200D01*
X117242320Y-96059200D02*
X117242320Y-101705200D01*
X117282320Y-96096200D02*
X117282320Y-101668200D01*
X117322320Y-96133200D02*
X117322320Y-101631200D01*
X117362320Y-96171200D02*
X117362320Y-101593200D01*
X117402320Y-96211200D02*
X117402320Y-101553200D01*
X117442320Y-96252200D02*
X117442320Y-101512200D01*
X117482320Y-96294200D02*
X117482320Y-101470200D01*
X117522320Y-96337200D02*
X117522320Y-101427200D01*
X117562320Y-96382200D02*
X117562320Y-101382200D01*
X117602320Y-96428200D02*
X117602320Y-101336200D01*
X117642320Y-96475200D02*
X117642320Y-101289200D01*
X117682320Y-96525200D02*
X117682320Y-101239200D01*
X117722320Y-96575200D02*
X117722320Y-101189200D01*
X117762320Y-96628200D02*
X117762320Y-101136200D01*
X117802320Y-96683200D02*
X117802320Y-101081200D01*
X117842320Y-96740200D02*
X117842320Y-101024200D01*
X117882320Y-96799200D02*
X117882320Y-100965200D01*
X117922320Y-96860200D02*
X117922320Y-100904200D01*
X117962320Y-96925200D02*
X117962320Y-100839200D01*
X118002320Y-96992200D02*
X118002320Y-100772200D01*
X118042320Y-97062200D02*
X118042320Y-100702200D01*
X118082320Y-97137200D02*
X118082320Y-100627200D01*
X118122320Y-97215200D02*
X118122320Y-100549200D01*
X118162320Y-97298200D02*
X118162320Y-100466200D01*
X118202320Y-97387200D02*
X118202320Y-100377200D01*
X118242320Y-97482200D02*
X118242320Y-100282200D01*
X118282320Y-97585200D02*
X118282320Y-100179200D01*
X118322320Y-97698200D02*
X118322320Y-100066200D01*
X118362320Y-97825200D02*
X118362320Y-99939200D01*
X118402320Y-97969200D02*
X118402320Y-99795200D01*
X118442320Y-98142200D02*
X118442320Y-99622200D01*
X118482320Y-98369200D02*
X118482320Y-99395200D01*
X111231320Y-98882200D02*
X112431320Y-98882200D01*
X111831320Y-98232200D02*
X111831320Y-99532200D01*
X118521320Y-98882200D02*
G75*
G03X118521320Y-98882200I-3840000J0D01*
G01*
D12*
X125989840Y-100781440D02*
X132989840Y-100781440D01*
X125989840Y-96781440D02*
X132989840Y-96781440D01*
X132989840Y-96781440D02*
X132989840Y-100781440D01*
X125989840Y-96781440D02*
X125989840Y-100781440D01*
X103251000Y-116959380D02*
X103251000Y-117858540D01*
X110850680Y-112158780D02*
X110850680Y-111259620D01*
X110850680Y-111259620D02*
X103251000Y-111259620D01*
X103251000Y-111259620D02*
X103251000Y-112158780D01*
X103251000Y-117858540D02*
X110850680Y-117858540D01*
X110850680Y-117858540D02*
X110850680Y-116959380D01*
D11*
X99365440Y-110575800D02*
X101985440Y-110575800D01*
X101985440Y-110575800D02*
X101985440Y-104155800D01*
X101985440Y-104155800D02*
X99365440Y-104155800D01*
X99365440Y-104155800D02*
X99365440Y-110575800D01*
X100675440Y-111465800D02*
X100675440Y-110575800D01*
X100675440Y-103265800D02*
X100675440Y-104155800D01*
X106614600Y-108193280D02*
X109234600Y-108193280D01*
X109234600Y-108193280D02*
X109234600Y-101773280D01*
X109234600Y-101773280D02*
X106614600Y-101773280D01*
X106614600Y-101773280D02*
X106614600Y-108193280D01*
X107924600Y-109083280D02*
X107924600Y-108193280D01*
X107924600Y-100883280D02*
X107924600Y-101773280D01*
X101158600Y-95108400D02*
X101158600Y-97728400D01*
X101158600Y-97728400D02*
X107578600Y-97728400D01*
X107578600Y-97728400D02*
X107578600Y-95108400D01*
X107578600Y-95108400D02*
X101158600Y-95108400D01*
X100268600Y-96418400D02*
X101158600Y-96418400D01*
X108468600Y-96418400D02*
X107578600Y-96418400D01*
X125439800Y-97302880D02*
X122819800Y-97302880D01*
X122819800Y-97302880D02*
X122819800Y-103722880D01*
X122819800Y-103722880D02*
X125439800Y-103722880D01*
X125439800Y-103722880D02*
X125439800Y-97302880D01*
X124129800Y-96412880D02*
X124129800Y-97302880D01*
X124129800Y-104612880D02*
X124129800Y-103722880D01*
X132333360Y-104379320D02*
X129713360Y-104379320D01*
X129713360Y-104379320D02*
X129713360Y-110799320D01*
X129713360Y-110799320D02*
X132333360Y-110799320D01*
X132333360Y-110799320D02*
X132333360Y-104379320D01*
X131023360Y-103489320D02*
X131023360Y-104379320D01*
X131023360Y-111689320D02*
X131023360Y-110799320D01*
X86365200Y-96587840D02*
X86365200Y-89417840D01*
X95985200Y-96587840D02*
X95985200Y-89417840D01*
X86365200Y-96587840D02*
X95985200Y-96587840D01*
X86365200Y-89417840D02*
X95985200Y-89417840D01*
X87615200Y-89417840D02*
X87615200Y-84417840D01*
X94735200Y-89417840D02*
X94735200Y-84417840D01*
X87615200Y-89417840D02*
X94735200Y-89417840D01*
X87615200Y-84417840D02*
X94735200Y-84417840D01*
X88115200Y-84417840D02*
X88115200Y-74416840D01*
X94235200Y-84417840D02*
X94235200Y-74416840D01*
X88115200Y-84417840D02*
X94235200Y-84417840D01*
X88115200Y-74416840D02*
X94235200Y-74416840D01*
X116764680Y-110847280D02*
X116764680Y-107247280D01*
X116037475Y-111371464D02*
G75*
G03X116764680Y-110847280I-1122795J2324184D01*
G01*
X113815873Y-111403680D02*
G75*
G02X112314680Y-109047280I1098807J2356400D01*
G01*
X113815873Y-106690880D02*
G75*
G03X112314680Y-109047280I1098807J-2356400D01*
G01*
X116037475Y-106723096D02*
G75*
G02X116764680Y-107247280I-1122795J-2324184D01*
G01*
X123462640Y-113467760D02*
X127062640Y-113467760D01*
X122938456Y-112740555D02*
G75*
G03X123462640Y-113467760I2324184J1122795D01*
G01*
X122906240Y-110518953D02*
G75*
G02X125262640Y-109017760I2356400J-1098807D01*
G01*
X127619040Y-110518953D02*
G75*
G03X125262640Y-109017760I-2356400J-1098807D01*
G01*
X127586824Y-112740555D02*
G75*
G02X127062640Y-113467760I-2324184J1122795D01*
G01*
X93368720Y-102713400D02*
X96968720Y-102713400D01*
X92844536Y-101986195D02*
G75*
G03X93368720Y-102713400I2324184J1122795D01*
G01*
X92812320Y-99764593D02*
G75*
G02X95168720Y-98263400I2356400J-1098807D01*
G01*
X97525120Y-99764593D02*
G75*
G03X95168720Y-98263400I-2356400J-1098807D01*
G01*
X97492904Y-101986195D02*
G75*
G02X96968720Y-102713400I-2324184J1122795D01*
G01*
X121047720Y-110667080D02*
X121047720Y-114387080D01*
X119327720Y-110667080D02*
X119327720Y-114387080D01*
D12*
X118927975Y-108102341D02*
X119499404Y-108102341D01*
X119213689Y-109102341D02*
X119213689Y-108102341D01*
X119737499Y-108102341D02*
X120356547Y-108102341D01*
X120023213Y-108483293D01*
X120166071Y-108483293D01*
X120261309Y-108530912D01*
X120308928Y-108578531D01*
X120356547Y-108673770D01*
X120356547Y-108911865D01*
X120308928Y-109007103D01*
X120261309Y-109054722D01*
X120166071Y-109102341D01*
X119880356Y-109102341D01*
X119785118Y-109054722D01*
X119737499Y-109007103D01*
X94803221Y-110011506D02*
X94803221Y-110487697D01*
X93803221Y-110487697D01*
X94803221Y-109154363D02*
X94803221Y-109725792D01*
X94803221Y-109440078D02*
X93803221Y-109440078D01*
X93946078Y-109535316D01*
X94041316Y-109630554D01*
X94088935Y-109725792D01*
X98577661Y-107715346D02*
X98101470Y-108048680D01*
X98577661Y-108286775D02*
X97577661Y-108286775D01*
X97577661Y-107905822D01*
X97625280Y-107810584D01*
X97672899Y-107762965D01*
X97768137Y-107715346D01*
X97910994Y-107715346D01*
X98006232Y-107762965D01*
X98053851Y-107810584D01*
X98101470Y-107905822D01*
X98101470Y-108286775D01*
X98577661Y-106762965D02*
X98577661Y-107334394D01*
X98577661Y-107048680D02*
X97577661Y-107048680D01*
X97720518Y-107143918D01*
X97815756Y-107239156D01*
X97863375Y-107334394D01*
X84705036Y-98847661D02*
X85038369Y-99847661D01*
X85371703Y-98847661D01*
X86276465Y-99752423D02*
X86228846Y-99800042D01*
X86085989Y-99847661D01*
X85990751Y-99847661D01*
X85847893Y-99800042D01*
X85752655Y-99704804D01*
X85705036Y-99609566D01*
X85657417Y-99419090D01*
X85657417Y-99276232D01*
X85705036Y-99085756D01*
X85752655Y-98990518D01*
X85847893Y-98895280D01*
X85990751Y-98847661D01*
X86085989Y-98847661D01*
X86228846Y-98895280D01*
X86276465Y-98942899D01*
X87228846Y-99847661D02*
X86657417Y-99847661D01*
X86943131Y-99847661D02*
X86943131Y-98847661D01*
X86847893Y-98990518D01*
X86752655Y-99085756D01*
X86657417Y-99133375D01*
X83556956Y-108144061D02*
X83890289Y-109144061D01*
X84223623Y-108144061D01*
X85128385Y-109048823D02*
X85080766Y-109096442D01*
X84937909Y-109144061D01*
X84842671Y-109144061D01*
X84699813Y-109096442D01*
X84604575Y-109001204D01*
X84556956Y-108905966D01*
X84509337Y-108715490D01*
X84509337Y-108572632D01*
X84556956Y-108382156D01*
X84604575Y-108286918D01*
X84699813Y-108191680D01*
X84842671Y-108144061D01*
X84937909Y-108144061D01*
X85080766Y-108191680D01*
X85128385Y-108239299D01*
X85509337Y-108239299D02*
X85556956Y-108191680D01*
X85652194Y-108144061D01*
X85890290Y-108144061D01*
X85985528Y-108191680D01*
X86033147Y-108239299D01*
X86080766Y-108334537D01*
X86080766Y-108429775D01*
X86033147Y-108572632D01*
X85461718Y-109144061D01*
X86080766Y-109144061D01*
X128850663Y-106035146D02*
X128898282Y-106082765D01*
X128945901Y-106225622D01*
X128945901Y-106320860D01*
X128898282Y-106463718D01*
X128803044Y-106558956D01*
X128707806Y-106606575D01*
X128517330Y-106654194D01*
X128374472Y-106654194D01*
X128183996Y-106606575D01*
X128088758Y-106558956D01*
X127993520Y-106463718D01*
X127945901Y-106320860D01*
X127945901Y-106225622D01*
X127993520Y-106082765D01*
X128041139Y-106035146D01*
X127945901Y-105178003D02*
X127945901Y-105368480D01*
X127993520Y-105463718D01*
X128041139Y-105511337D01*
X128183996Y-105606575D01*
X128374472Y-105654194D01*
X128755425Y-105654194D01*
X128850663Y-105606575D01*
X128898282Y-105558956D01*
X128945901Y-105463718D01*
X128945901Y-105273241D01*
X128898282Y-105178003D01*
X128850663Y-105130384D01*
X128755425Y-105082765D01*
X128517330Y-105082765D01*
X128422091Y-105130384D01*
X128374472Y-105178003D01*
X128326853Y-105273241D01*
X128326853Y-105463718D01*
X128374472Y-105558956D01*
X128422091Y-105606575D01*
X128517330Y-105654194D01*
X136006531Y-109279274D02*
X136054150Y-109136417D01*
X136101770Y-109088798D01*
X136197008Y-109041179D01*
X136339865Y-109041179D01*
X136435103Y-109088798D01*
X136482722Y-109136417D01*
X136530341Y-109231655D01*
X136530341Y-109612608D01*
X135530341Y-109612608D01*
X135530341Y-109279274D01*
X135577960Y-109184036D01*
X135625579Y-109136417D01*
X135720817Y-109088798D01*
X135816055Y-109088798D01*
X135911293Y-109136417D01*
X135958912Y-109184036D01*
X136006531Y-109279274D01*
X136006531Y-109612608D01*
X135530341Y-108755465D02*
X135530341Y-108184036D01*
X136530341Y-108469751D02*
X135530341Y-108469751D01*
X136530341Y-107326893D02*
X136530341Y-107898322D01*
X136530341Y-107612608D02*
X135530341Y-107612608D01*
X135673198Y-107707846D01*
X135768436Y-107803084D01*
X135816055Y-107898322D01*
X91319054Y-115871263D02*
X91271435Y-115918882D01*
X91128578Y-115966501D01*
X91033340Y-115966501D01*
X90890482Y-115918882D01*
X90795244Y-115823644D01*
X90747625Y-115728406D01*
X90700006Y-115537930D01*
X90700006Y-115395072D01*
X90747625Y-115204596D01*
X90795244Y-115109358D01*
X90890482Y-115014120D01*
X91033340Y-114966501D01*
X91128578Y-114966501D01*
X91271435Y-115014120D01*
X91319054Y-115061739D01*
X92271435Y-115966501D02*
X91700006Y-115966501D01*
X91985720Y-115966501D02*
X91985720Y-114966501D01*
X91890482Y-115109358D01*
X91795244Y-115204596D01*
X91700006Y-115252215D01*
X101179903Y-115985586D02*
X101227522Y-116033205D01*
X101275141Y-116176062D01*
X101275141Y-116271300D01*
X101227522Y-116414158D01*
X101132284Y-116509396D01*
X101037046Y-116557015D01*
X100846570Y-116604634D01*
X100703712Y-116604634D01*
X100513236Y-116557015D01*
X100417998Y-116509396D01*
X100322760Y-116414158D01*
X100275141Y-116271300D01*
X100275141Y-116176062D01*
X100322760Y-116033205D01*
X100370379Y-115985586D01*
X100370379Y-115604634D02*
X100322760Y-115557015D01*
X100275141Y-115461777D01*
X100275141Y-115223681D01*
X100322760Y-115128443D01*
X100370379Y-115080824D01*
X100465617Y-115033205D01*
X100560855Y-115033205D01*
X100703712Y-115080824D01*
X101275141Y-115652253D01*
X101275141Y-115033205D01*
X104512383Y-106993986D02*
X104560002Y-107041605D01*
X104607621Y-107184462D01*
X104607621Y-107279700D01*
X104560002Y-107422558D01*
X104464764Y-107517796D01*
X104369526Y-107565415D01*
X104179050Y-107613034D01*
X104036192Y-107613034D01*
X103845716Y-107565415D01*
X103750478Y-107517796D01*
X103655240Y-107422558D01*
X103607621Y-107279700D01*
X103607621Y-107184462D01*
X103655240Y-107041605D01*
X103702859Y-106993986D01*
X103607621Y-106660653D02*
X103607621Y-106041605D01*
X103988573Y-106374939D01*
X103988573Y-106232081D01*
X104036192Y-106136843D01*
X104083811Y-106089224D01*
X104179050Y-106041605D01*
X104417145Y-106041605D01*
X104512383Y-106089224D01*
X104560002Y-106136843D01*
X104607621Y-106232081D01*
X104607621Y-106517796D01*
X104560002Y-106613034D01*
X104512383Y-106660653D01*
X114413054Y-118375383D02*
X114365435Y-118423002D01*
X114222578Y-118470621D01*
X114127340Y-118470621D01*
X113984482Y-118423002D01*
X113889244Y-118327764D01*
X113841625Y-118232526D01*
X113794006Y-118042050D01*
X113794006Y-117899192D01*
X113841625Y-117708716D01*
X113889244Y-117613478D01*
X113984482Y-117518240D01*
X114127340Y-117470621D01*
X114222578Y-117470621D01*
X114365435Y-117518240D01*
X114413054Y-117565859D01*
X115270197Y-117803954D02*
X115270197Y-118470621D01*
X115032101Y-117423002D02*
X114794006Y-118137288D01*
X115413054Y-118137288D01*
X128453854Y-115464863D02*
X128406235Y-115512482D01*
X128263378Y-115560101D01*
X128168140Y-115560101D01*
X128025282Y-115512482D01*
X127930044Y-115417244D01*
X127882425Y-115322006D01*
X127834806Y-115131530D01*
X127834806Y-114988672D01*
X127882425Y-114798196D01*
X127930044Y-114702958D01*
X128025282Y-114607720D01*
X128168140Y-114560101D01*
X128263378Y-114560101D01*
X128406235Y-114607720D01*
X128453854Y-114655339D01*
X129358616Y-114560101D02*
X128882425Y-114560101D01*
X128834806Y-115036291D01*
X128882425Y-114988672D01*
X128977663Y-114941053D01*
X129215759Y-114941053D01*
X129310997Y-114988672D01*
X129358616Y-115036291D01*
X129406235Y-115131530D01*
X129406235Y-115369625D01*
X129358616Y-115464863D01*
X129310997Y-115512482D01*
X129215759Y-115560101D01*
X128977663Y-115560101D01*
X128882425Y-115512482D01*
X128834806Y-115464863D01*
X113234814Y-96973663D02*
X113187195Y-97021282D01*
X113044338Y-97068901D01*
X112949100Y-97068901D01*
X112806242Y-97021282D01*
X112711004Y-96926044D01*
X112663385Y-96830806D01*
X112615766Y-96640330D01*
X112615766Y-96497472D01*
X112663385Y-96306996D01*
X112711004Y-96211758D01*
X112806242Y-96116520D01*
X112949100Y-96068901D01*
X113044338Y-96068901D01*
X113187195Y-96116520D01*
X113234814Y-96164139D01*
X113568147Y-96068901D02*
X114234814Y-96068901D01*
X113806242Y-97068901D01*
X125301024Y-100768821D02*
X125301024Y-99768821D01*
X125301024Y-100245011D02*
X125872453Y-100245011D01*
X125872453Y-100768821D02*
X125872453Y-99768821D01*
X126729596Y-100721202D02*
X126634358Y-100768821D01*
X126443881Y-100768821D01*
X126348643Y-100721202D01*
X126301024Y-100625964D01*
X126301024Y-100245011D01*
X126348643Y-100149773D01*
X126443881Y-100102154D01*
X126634358Y-100102154D01*
X126729596Y-100149773D01*
X126777215Y-100245011D01*
X126777215Y-100340250D01*
X126301024Y-100435488D01*
X127634358Y-100768821D02*
X127634358Y-100245011D01*
X127586739Y-100149773D01*
X127491501Y-100102154D01*
X127301024Y-100102154D01*
X127205786Y-100149773D01*
X127634358Y-100721202D02*
X127539120Y-100768821D01*
X127301024Y-100768821D01*
X127205786Y-100721202D01*
X127158167Y-100625964D01*
X127158167Y-100530726D01*
X127205786Y-100435488D01*
X127301024Y-100387869D01*
X127539120Y-100387869D01*
X127634358Y-100340250D01*
X128539120Y-100768821D02*
X128539120Y-99768821D01*
X128539120Y-100721202D02*
X128443882Y-100768821D01*
X128253405Y-100768821D01*
X128158167Y-100721202D01*
X128110548Y-100673583D01*
X128062929Y-100578345D01*
X128062929Y-100292630D01*
X128110548Y-100197392D01*
X128158167Y-100149773D01*
X128253405Y-100102154D01*
X128443882Y-100102154D01*
X128539120Y-100149773D01*
X129015310Y-100102154D02*
X129015310Y-101102154D01*
X129015310Y-100149773D02*
X129110548Y-100102154D01*
X129301025Y-100102154D01*
X129396263Y-100149773D01*
X129443882Y-100197392D01*
X129491501Y-100292630D01*
X129491501Y-100578345D01*
X129443882Y-100673583D01*
X129396263Y-100721202D01*
X129301025Y-100768821D01*
X129110548Y-100768821D01*
X129015310Y-100721202D01*
X129920072Y-100768821D02*
X129920072Y-99768821D01*
X130348644Y-100768821D02*
X130348644Y-100245011D01*
X130301025Y-100149773D01*
X130205787Y-100102154D01*
X130062929Y-100102154D01*
X129967691Y-100149773D01*
X129920072Y-100197392D01*
X130967691Y-100768821D02*
X130872453Y-100721202D01*
X130824834Y-100673583D01*
X130777215Y-100578345D01*
X130777215Y-100292630D01*
X130824834Y-100197392D01*
X130872453Y-100149773D01*
X130967691Y-100102154D01*
X131110549Y-100102154D01*
X131205787Y-100149773D01*
X131253406Y-100197392D01*
X131301025Y-100292630D01*
X131301025Y-100578345D01*
X131253406Y-100673583D01*
X131205787Y-100721202D01*
X131110549Y-100768821D01*
X130967691Y-100768821D01*
X131729596Y-100102154D02*
X131729596Y-100768821D01*
X131729596Y-100197392D02*
X131777215Y-100149773D01*
X131872453Y-100102154D01*
X132015311Y-100102154D01*
X132110549Y-100149773D01*
X132158168Y-100245011D01*
X132158168Y-100768821D01*
X133015311Y-100721202D02*
X132920073Y-100768821D01*
X132729596Y-100768821D01*
X132634358Y-100721202D01*
X132586739Y-100625964D01*
X132586739Y-100245011D01*
X132634358Y-100149773D01*
X132729596Y-100102154D01*
X132920073Y-100102154D01*
X133015311Y-100149773D01*
X133062930Y-100245011D01*
X133062930Y-100340250D01*
X132586739Y-100435488D01*
X133443882Y-100721202D02*
X133539120Y-100768821D01*
X133729596Y-100768821D01*
X133824835Y-100721202D01*
X133872454Y-100625964D01*
X133872454Y-100578345D01*
X133824835Y-100483107D01*
X133729596Y-100435488D01*
X133586739Y-100435488D01*
X133491501Y-100387869D01*
X133443882Y-100292630D01*
X133443882Y-100245011D01*
X133491501Y-100149773D01*
X133586739Y-100102154D01*
X133729596Y-100102154D01*
X133824835Y-100149773D01*
X134824835Y-100768821D02*
X134253406Y-100768821D01*
X134539120Y-100768821D02*
X134539120Y-99768821D01*
X134443882Y-99911678D01*
X134348644Y-100006916D01*
X134253406Y-100054535D01*
X106889254Y-116789461D02*
X106413063Y-116789461D01*
X106413063Y-115789461D01*
X107174968Y-115884699D02*
X107222587Y-115837080D01*
X107317825Y-115789461D01*
X107555921Y-115789461D01*
X107651159Y-115837080D01*
X107698778Y-115884699D01*
X107746397Y-115979937D01*
X107746397Y-116075175D01*
X107698778Y-116218032D01*
X107127349Y-116789461D01*
X107746397Y-116789461D01*
X100736661Y-105363306D02*
X100260470Y-105696640D01*
X100736661Y-105934735D02*
X99736661Y-105934735D01*
X99736661Y-105553782D01*
X99784280Y-105458544D01*
X99831899Y-105410925D01*
X99927137Y-105363306D01*
X100069994Y-105363306D01*
X100165232Y-105410925D01*
X100212851Y-105458544D01*
X100260470Y-105553782D01*
X100260470Y-105934735D01*
X99831899Y-104982354D02*
X99784280Y-104934735D01*
X99736661Y-104839497D01*
X99736661Y-104601401D01*
X99784280Y-104506163D01*
X99831899Y-104458544D01*
X99927137Y-104410925D01*
X100022375Y-104410925D01*
X100165232Y-104458544D01*
X100736661Y-105029973D01*
X100736661Y-104410925D01*
X108280461Y-106933026D02*
X107804270Y-107266360D01*
X108280461Y-107504455D02*
X107280461Y-107504455D01*
X107280461Y-107123502D01*
X107328080Y-107028264D01*
X107375699Y-106980645D01*
X107470937Y-106933026D01*
X107613794Y-106933026D01*
X107709032Y-106980645D01*
X107756651Y-107028264D01*
X107804270Y-107123502D01*
X107804270Y-107504455D01*
X107280461Y-106599693D02*
X107280461Y-105980645D01*
X107661413Y-106313979D01*
X107661413Y-106171121D01*
X107709032Y-106075883D01*
X107756651Y-106028264D01*
X107851890Y-105980645D01*
X108089985Y-105980645D01*
X108185223Y-106028264D01*
X108232842Y-106075883D01*
X108280461Y-106171121D01*
X108280461Y-106456836D01*
X108232842Y-106552074D01*
X108185223Y-106599693D01*
X105812294Y-96489781D02*
X105478960Y-96013590D01*
X105240865Y-96489781D02*
X105240865Y-95489781D01*
X105621818Y-95489781D01*
X105717056Y-95537400D01*
X105764675Y-95585019D01*
X105812294Y-95680257D01*
X105812294Y-95823114D01*
X105764675Y-95918352D01*
X105717056Y-95965971D01*
X105621818Y-96013590D01*
X105240865Y-96013590D01*
X106669437Y-95823114D02*
X106669437Y-96489781D01*
X106431341Y-95442162D02*
X106193246Y-96156448D01*
X106812294Y-96156448D01*
X125308621Y-98799946D02*
X124832430Y-99133280D01*
X125308621Y-99371375D02*
X124308621Y-99371375D01*
X124308621Y-98990422D01*
X124356240Y-98895184D01*
X124403859Y-98847565D01*
X124499097Y-98799946D01*
X124641954Y-98799946D01*
X124737192Y-98847565D01*
X124784811Y-98895184D01*
X124832430Y-98990422D01*
X124832430Y-99371375D01*
X124308621Y-97942803D02*
X124308621Y-98133280D01*
X124356240Y-98228518D01*
X124403859Y-98276137D01*
X124546716Y-98371375D01*
X124737192Y-98418994D01*
X125118145Y-98418994D01*
X125213383Y-98371375D01*
X125261002Y-98323756D01*
X125308621Y-98228518D01*
X125308621Y-98038041D01*
X125261002Y-97942803D01*
X125213383Y-97895184D01*
X125118145Y-97847565D01*
X124880050Y-97847565D01*
X124784811Y-97895184D01*
X124737192Y-97942803D01*
X124689573Y-98038041D01*
X124689573Y-98228518D01*
X124737192Y-98323756D01*
X124784811Y-98371375D01*
X124880050Y-98418994D01*
X131968501Y-109854026D02*
X131492310Y-110187360D01*
X131968501Y-110425455D02*
X130968501Y-110425455D01*
X130968501Y-110044502D01*
X131016120Y-109949264D01*
X131063739Y-109901645D01*
X131158977Y-109854026D01*
X131301834Y-109854026D01*
X131397072Y-109901645D01*
X131444691Y-109949264D01*
X131492310Y-110044502D01*
X131492310Y-110425455D01*
X130968501Y-109520693D02*
X130968501Y-108854026D01*
X131968501Y-109282598D01*
X132826855Y-94755602D02*
X132969712Y-94803221D01*
X133207808Y-94803221D01*
X133303046Y-94755602D01*
X133350665Y-94707983D01*
X133398284Y-94612745D01*
X133398284Y-94517507D01*
X133350665Y-94422269D01*
X133303046Y-94374650D01*
X133207808Y-94327030D01*
X133017331Y-94279411D01*
X132922093Y-94231792D01*
X132874474Y-94184173D01*
X132826855Y-94088935D01*
X132826855Y-93993697D01*
X132874474Y-93898459D01*
X132922093Y-93850840D01*
X133017331Y-93803221D01*
X133255427Y-93803221D01*
X133398284Y-93850840D01*
X134350665Y-94803221D02*
X133779236Y-94803221D01*
X134064950Y-94803221D02*
X134064950Y-93803221D01*
X133969712Y-93946078D01*
X133874474Y-94041316D01*
X133779236Y-94088935D01*
X84627581Y-95787364D02*
X85627581Y-95454031D01*
X84627581Y-95120697D01*
X85627581Y-94215935D02*
X85151390Y-94549269D01*
X85627581Y-94787364D02*
X84627581Y-94787364D01*
X84627581Y-94406411D01*
X84675200Y-94311173D01*
X84722819Y-94263554D01*
X84818057Y-94215935D01*
X84960914Y-94215935D01*
X85056152Y-94263554D01*
X85103771Y-94311173D01*
X85151390Y-94406411D01*
X85151390Y-94787364D01*
X85627581Y-93263554D02*
X85627581Y-93834983D01*
X85627581Y-93549269D02*
X84627581Y-93549269D01*
X84770438Y-93644507D01*
X84865676Y-93739745D01*
X84913295Y-93834983D01*
X111583221Y-107406345D02*
X111583221Y-106834916D01*
X112583221Y-107120631D02*
X111583221Y-107120631D01*
X111678459Y-106549202D02*
X111630840Y-106501583D01*
X111583221Y-106406345D01*
X111583221Y-106168249D01*
X111630840Y-106073011D01*
X111678459Y-106025392D01*
X111773697Y-105977773D01*
X111868935Y-105977773D01*
X112011792Y-106025392D01*
X112583221Y-106596821D01*
X112583221Y-105977773D01*
X123769215Y-110018581D02*
X124340644Y-110018581D01*
X124054929Y-111018581D02*
X124054929Y-110018581D01*
X125102549Y-110351914D02*
X125102549Y-111018581D01*
X124864453Y-109970962D02*
X124626358Y-110685248D01*
X125245406Y-110685248D01*
X94406815Y-96755781D02*
X94978244Y-96755781D01*
X94692529Y-97755781D02*
X94692529Y-96755781D01*
X95835387Y-97755781D02*
X95263958Y-97755781D01*
X95549672Y-97755781D02*
X95549672Y-96755781D01*
X95454434Y-96898638D01*
X95359196Y-96993876D01*
X95263958Y-97041495D01*
X121046501Y-113780866D02*
X120570310Y-114114200D01*
X121046501Y-114352295D02*
X120046501Y-114352295D01*
X120046501Y-113971342D01*
X120094120Y-113876104D01*
X120141739Y-113828485D01*
X120236977Y-113780866D01*
X120379834Y-113780866D01*
X120475072Y-113828485D01*
X120522691Y-113876104D01*
X120570310Y-113971342D01*
X120570310Y-114352295D01*
X120046501Y-112876104D02*
X120046501Y-113352295D01*
X120522691Y-113399914D01*
X120475072Y-113352295D01*
X120427453Y-113257057D01*
X120427453Y-113018961D01*
X120475072Y-112923723D01*
X120522691Y-112876104D01*
X120617930Y-112828485D01*
X120856025Y-112828485D01*
X120951263Y-112876104D01*
X120998882Y-112923723D01*
X121046501Y-113018961D01*
X121046501Y-113257057D01*
X120998882Y-113352295D01*
X120951263Y-113399914D01*
M02*
