G04 #@! TF.FileFunction,Soldermask,Top*
%FSLAX46Y46*%
G04 Gerber Fmt 4.6, Leading zero omitted, Abs format (unit mm)*
G04 Created by KiCad (PCBNEW 4.0.5) date 06/01/17 17:38:21*
%MOMM*%
%LPD*%
G01*
G04 APERTURE LIST*
%ADD10C,0.100000*%
%ADD11C,5.401260*%
%ADD12R,2.400000X2.900000*%
%ADD13R,1.400000X2.000000*%
%ADD14C,2.000000*%
%ADD15C,1.800000*%
%ADD16C,2.400000*%
%ADD17R,2.000000X2.000000*%
%ADD18R,3.900120X2.749500*%
%ADD19R,2.749500X3.900120*%
%ADD20O,2.000000X2.000000*%
%ADD21C,3.399740*%
%ADD22C,1.400000*%
%ADD23R,1.400000X1.400000*%
%ADD24C,2.200000*%
%ADD25O,2.400000X1.900000*%
%ADD26R,1.900000X2.400000*%
%ADD27O,1.900000X2.400000*%
%ADD28C,1.920000*%
%ADD29R,1.920000X1.920000*%
G04 APERTURE END LIST*
D10*
D11*
X163677600Y-102951280D03*
X163677600Y-113111280D03*
D12*
X90285320Y-114564160D03*
X86285320Y-114564160D03*
D13*
X97050600Y-116794280D03*
X100050600Y-116794280D03*
D14*
X113924080Y-107395000D03*
X113924080Y-112395000D03*
D15*
X125740800Y-116210080D03*
X123240800Y-116210080D03*
D16*
X140963000Y-115620800D03*
X148463000Y-115620800D03*
D14*
X157017720Y-102939840D03*
X157017720Y-107939840D03*
D17*
X123417960Y-100396040D03*
D14*
X125917960Y-100396040D03*
X141991080Y-105298240D03*
X146991080Y-107098240D03*
D18*
X90281760Y-104856280D03*
X90281760Y-110906560D03*
D19*
X110213140Y-112395000D03*
X104162860Y-112395000D03*
D14*
X96052640Y-100949760D03*
D20*
X96052640Y-113649760D03*
D14*
X100675440Y-112445800D03*
D20*
X100675440Y-102285800D03*
D14*
X118597680Y-116174520D03*
D20*
X118597680Y-106014520D03*
D14*
X107264200Y-100411280D03*
D20*
X117424200Y-100411280D03*
D14*
X136453880Y-106014520D03*
D20*
X136453880Y-116174520D03*
D14*
X141960600Y-100787200D03*
D20*
X131800600Y-100787200D03*
D14*
X152074880Y-102895400D03*
D20*
X152074880Y-113055400D03*
D21*
X163652200Y-94843600D03*
X153492200Y-94843600D03*
D22*
X130520440Y-111993680D03*
X129250440Y-110723680D03*
D23*
X131790440Y-110723680D03*
D17*
X81172040Y-100629720D03*
D14*
X86172040Y-100629720D03*
D17*
X81157440Y-108742480D03*
D14*
X83657440Y-108742480D03*
D24*
X88675200Y-94477840D03*
X91175200Y-94477840D03*
X93675200Y-94477840D03*
D25*
X122285760Y-109799120D03*
D26*
X124825760Y-112339120D03*
D27*
X124825760Y-107259120D03*
D28*
X145542000Y-111485680D03*
X148082000Y-111485680D03*
D29*
X143002000Y-111485680D03*
D28*
X91511120Y-99446080D03*
X94051120Y-99446080D03*
D29*
X88971120Y-99446080D03*
M02*
