M48
;DRILL file {KiCad 4.0.5} date 06/01/17 17:41:21
;FORMAT={-:-/ absolute / metric / decimal}
FMAT,2
METRIC,TZ
T1C0.600
T2C0.700
T3C0.800
T4C1.000
T5C1.501
T6C2.499
%
G90
G05
M71
T1
X129.25Y-110.724
X130.52Y-111.994
X131.79Y-110.724
X141.991Y-105.298
X146.991Y-107.098
T2
X123.241Y-116.21
X125.741Y-116.21
T3
X81.157Y-108.742
X81.172Y-100.63
X83.657Y-108.742
X86.172Y-100.63
X88.971Y-99.446
X91.511Y-99.446
X94.051Y-99.446
X96.053Y-100.95
X96.053Y-113.65
X100.675Y-102.286
X100.675Y-112.446
X107.264Y-100.411
X113.924Y-107.395
X113.924Y-112.395
X117.424Y-100.411
X118.598Y-106.015
X118.598Y-116.175
X122.286Y-109.799
X123.418Y-100.396
X124.826Y-107.259
X124.826Y-112.339
X125.918Y-100.396
X131.801Y-100.787
X136.454Y-106.015
X136.454Y-116.175
X141.961Y-100.787
X143.002Y-111.486
X145.542Y-111.486
X148.082Y-111.486
X152.075Y-102.895
X152.075Y-113.055
X157.018Y-102.94
X157.018Y-107.94
T4
X88.675Y-94.478
X91.175Y-94.478
X93.675Y-94.478
X140.963Y-115.621
X148.463Y-115.621
T5
X153.492Y-94.844
X163.652Y-94.844
T6
X163.678Y-102.951
X163.678Y-113.111
T0
M30
