<?xml version="1.0" standalone="no"?>
 <!DOCTYPE svg PUBLIC "-//W3C//DTD SVG 1.1//EN" 
 "http://www.w3.org/Graphics/SVG/1.1/DTD/svg11.dtd"> 
<svg xmlns="http://www.w3.org/2000/svg" version="1.1" 
    width="29.7002cm" height="21.0007cm" viewBox="0 0 116930 82680 ">
<title>SVG Picture created as Radio_receiver_final_project_YILDIZ_Mustafa-F.SilkS.svg date 2017/06/01 17:45:45 </title>
  <desc>Picture generated by PCBNEW </desc>
<g style="fill:#000000; fill-opacity:1;stroke:#000000; stroke-opacity:1;
stroke-linecap:round; stroke-linejoin:round; "
 transform="translate(0 0) scale(1 1)">
</g>
<g style="fill:#000000; fill-opacity:0.0; 
stroke:#000000; stroke-width:-0.000393701; stroke-opacity:1; 
stroke-linecap:round; stroke-linejoin:round;">
</g>
<g style="fill:#000000; fill-opacity:0.0; 
stroke:#000000; stroke-width:39.3701; stroke-opacity:1; 
stroke-linecap:round; stroke-linejoin:round;">
</g>
<g style="fill:#000000; fill-opacity:0.0; 
stroke:#000000; stroke-width:59.0551; stroke-opacity:1; 
stroke-linecap:round; stroke-linejoin:round;">
<rect x="69685.9" y="65357.2" width="42519.7" height="12598.4" rx="0" />
</g>
<g style="fill:#000000; fill-opacity:0.0; 
stroke:#000000; stroke-width:39.3701; stroke-opacity:1; 
stroke-linecap:round; stroke-linejoin:round;">
</g>
<g style="fill:#000000; fill-opacity:0.0; 
stroke:#000000; stroke-width:59.0551; stroke-opacity:1; 
stroke-linecap:round; stroke-linejoin:round;">
<rect x="3937.01" y="3937.01" width="109056" height="74806" rx="0" />
</g>
<g style="fill:#000000; fill-opacity:0.0; 
stroke:#000000; stroke-width:39.3701; stroke-opacity:1; 
stroke-linecap:round; stroke-linejoin:round;">
</g>
<g style="fill:#000000; fill-opacity:0.0; 
stroke:#000000; stroke-width:59.0551; stroke-opacity:1; 
stroke-linecap:round; stroke-linejoin:round;">
<rect x="4724.41" y="4724.41" width="107481" height="73231.2" rx="0" />
</g>
<g style="fill:#000000; fill-opacity:0.0; 
stroke:#000000; stroke-width:39.3701; stroke-opacity:1; 
stroke-linecap:round; stroke-linejoin:round;">
</g>
<g style="fill:#000000; fill-opacity:0.0; 
stroke:#000000; stroke-width:59.0551; stroke-opacity:1; 
stroke-linecap:round; stroke-linejoin:round;">
<path d="M23622 4724
L23622 3937
" />
</g>
<g style="fill:#000000; fill-opacity:0.0; 
stroke:#000000; stroke-width:39.3701; stroke-opacity:1; 
stroke-linecap:round; stroke-linejoin:round;">
</g>
<g style="fill:#000000; fill-opacity:0.0; 
stroke:#000000; stroke-width:59.0551; stroke-opacity:1; 
stroke-linecap:round; stroke-linejoin:round;">
<path d="M43307 4724
L43307 3937
" />
</g>
<g style="fill:#000000; fill-opacity:0.0; 
stroke:#000000; stroke-width:39.3701; stroke-opacity:1; 
stroke-linecap:round; stroke-linejoin:round;">
</g>
<g style="fill:#000000; fill-opacity:0.0; 
stroke:#000000; stroke-width:59.0551; stroke-opacity:1; 
stroke-linecap:round; stroke-linejoin:round;">
<path d="M62992 4724
L62992 3937
" />
</g>
<g style="fill:#000000; fill-opacity:0.0; 
stroke:#000000; stroke-width:39.3701; stroke-opacity:1; 
stroke-linecap:round; stroke-linejoin:round;">
</g>
<g style="fill:#000000; fill-opacity:0.0; 
stroke:#000000; stroke-width:59.0551; stroke-opacity:1; 
stroke-linecap:round; stroke-linejoin:round;">
<path d="M82677 4724
L82677 3937
" />
</g>
<g style="fill:#000000; fill-opacity:0.0; 
stroke:#000000; stroke-width:39.3701; stroke-opacity:1; 
stroke-linecap:round; stroke-linejoin:round;">
</g>
<g style="fill:#000000; fill-opacity:0.0; 
stroke:#000000; stroke-width:59.0551; stroke-opacity:1; 
stroke-linecap:round; stroke-linejoin:round;">
<path d="M102362 4724
L102362 3937
" />
</g>
<g style="fill:#000000; fill-opacity:0.0; 
stroke:#000000; stroke-width:39.3701; stroke-opacity:1; 
stroke-linecap:round; stroke-linejoin:round;">
</g>
<g style="fill:#000000; fill-opacity:0.0; 
stroke:#000000; stroke-width:59.0551; stroke-opacity:1; 
stroke-linecap:round; stroke-linejoin:round;">
<path d="M14169 4562
L13877 4562
" />
<path d="M14023 4562
L14023 4050
L13974 4123
L13925 4172
L13877 4196
" />
</g>
<g style="fill:#000000; fill-opacity:0.0; 
stroke:#000000; stroke-width:39.3701; stroke-opacity:1; 
stroke-linecap:round; stroke-linejoin:round;">
</g>
<g style="fill:#000000; fill-opacity:0.0; 
stroke:#000000; stroke-width:59.0551; stroke-opacity:1; 
stroke-linecap:round; stroke-linejoin:round;">
<path d="M33562 4099
L33586 4074
L33635 4050
L33757 4050
L33805 4074
L33830 4099
L33854 4147
L33854 4196
L33830 4269
L33537 4562
L33854 4562
" />
</g>
<g style="fill:#000000; fill-opacity:0.0; 
stroke:#000000; stroke-width:39.3701; stroke-opacity:1; 
stroke-linecap:round; stroke-linejoin:round;">
</g>
<g style="fill:#000000; fill-opacity:0.0; 
stroke:#000000; stroke-width:59.0551; stroke-opacity:1; 
stroke-linecap:round; stroke-linejoin:round;">
<path d="M53222 4050
L53539 4050
L53368 4245
L53442 4245
L53490 4269
L53515 4294
L53539 4342
L53539 4464
L53515 4513
L53490 4537
L53442 4562
L53295 4562
L53247 4537
L53222 4513
" />
</g>
<g style="fill:#000000; fill-opacity:0.0; 
stroke:#000000; stroke-width:39.3701; stroke-opacity:1; 
stroke-linecap:round; stroke-linejoin:round;">
</g>
<g style="fill:#000000; fill-opacity:0.0; 
stroke:#000000; stroke-width:59.0551; stroke-opacity:1; 
stroke-linecap:round; stroke-linejoin:round;">
<path d="M73175 4221
L73175 4562
" />
<path d="M73053 4026
L72932 4391
L73248 4391
" />
</g>
<g style="fill:#000000; fill-opacity:0.0; 
stroke:#000000; stroke-width:39.3701; stroke-opacity:1; 
stroke-linecap:round; stroke-linejoin:round;">
</g>
<g style="fill:#000000; fill-opacity:0.0; 
stroke:#000000; stroke-width:59.0551; stroke-opacity:1; 
stroke-linecap:round; stroke-linejoin:round;">
<path d="M92885 4050
L92641 4050
L92617 4294
L92641 4269
L92690 4245
L92812 4245
L92860 4269
L92885 4294
L92909 4342
L92909 4464
L92885 4513
L92860 4537
L92812 4562
L92690 4562
L92641 4537
L92617 4513
" />
</g>
<g style="fill:#000000; fill-opacity:0.0; 
stroke:#000000; stroke-width:39.3701; stroke-opacity:1; 
stroke-linecap:round; stroke-linejoin:round;">
</g>
<g style="fill:#000000; fill-opacity:0.0; 
stroke:#000000; stroke-width:59.0551; stroke-opacity:1; 
stroke-linecap:round; stroke-linejoin:round;">
<path d="M112545 4050
L112448 4050
L112399 4074
L112375 4099
L112326 4172
L112302 4269
L112302 4464
L112326 4513
L112350 4537
L112399 4562
L112497 4562
L112545 4537
L112570 4513
L112594 4464
L112594 4342
L112570 4294
L112545 4269
L112497 4245
L112399 4245
L112350 4269
L112326 4294
L112302 4342
" />
</g>
<g style="fill:#000000; fill-opacity:0.0; 
stroke:#000000; stroke-width:39.3701; stroke-opacity:1; 
stroke-linecap:round; stroke-linejoin:round;">
</g>
<g style="fill:#000000; fill-opacity:0.0; 
stroke:#000000; stroke-width:59.0551; stroke-opacity:1; 
stroke-linecap:round; stroke-linejoin:round;">
<path d="M23622 77955
L23622 78742
" />
</g>
<g style="fill:#000000; fill-opacity:0.0; 
stroke:#000000; stroke-width:39.3701; stroke-opacity:1; 
stroke-linecap:round; stroke-linejoin:round;">
</g>
<g style="fill:#000000; fill-opacity:0.0; 
stroke:#000000; stroke-width:59.0551; stroke-opacity:1; 
stroke-linecap:round; stroke-linejoin:round;">
<path d="M43307 77955
L43307 78742
" />
</g>
<g style="fill:#000000; fill-opacity:0.0; 
stroke:#000000; stroke-width:39.3701; stroke-opacity:1; 
stroke-linecap:round; stroke-linejoin:round;">
</g>
<g style="fill:#000000; fill-opacity:0.0; 
stroke:#000000; stroke-width:59.0551; stroke-opacity:1; 
stroke-linecap:round; stroke-linejoin:round;">
<path d="M62992 77955
L62992 78742
" />
</g>
<g style="fill:#000000; fill-opacity:0.0; 
stroke:#000000; stroke-width:39.3701; stroke-opacity:1; 
stroke-linecap:round; stroke-linejoin:round;">
</g>
<g style="fill:#000000; fill-opacity:0.0; 
stroke:#000000; stroke-width:59.0551; stroke-opacity:1; 
stroke-linecap:round; stroke-linejoin:round;">
<path d="M82677 77955
L82677 78742
" />
</g>
<g style="fill:#000000; fill-opacity:0.0; 
stroke:#000000; stroke-width:39.3701; stroke-opacity:1; 
stroke-linecap:round; stroke-linejoin:round;">
</g>
<g style="fill:#000000; fill-opacity:0.0; 
stroke:#000000; stroke-width:59.0551; stroke-opacity:1; 
stroke-linecap:round; stroke-linejoin:round;">
<path d="M102362 77955
L102362 78742
" />
</g>
<g style="fill:#000000; fill-opacity:0.0; 
stroke:#000000; stroke-width:39.3701; stroke-opacity:1; 
stroke-linecap:round; stroke-linejoin:round;">
</g>
<g style="fill:#000000; fill-opacity:0.0; 
stroke:#000000; stroke-width:59.0551; stroke-opacity:1; 
stroke-linecap:round; stroke-linejoin:round;">
<path d="M14169 78580
L13877 78580
" />
<path d="M14023 78580
L14023 78069
L13974 78142
L13925 78190
L13877 78215
" />
</g>
<g style="fill:#000000; fill-opacity:0.0; 
stroke:#000000; stroke-width:39.3701; stroke-opacity:1; 
stroke-linecap:round; stroke-linejoin:round;">
</g>
<g style="fill:#000000; fill-opacity:0.0; 
stroke:#000000; stroke-width:59.0551; stroke-opacity:1; 
stroke-linecap:round; stroke-linejoin:round;">
<path d="M33562 78117
L33586 78093
L33635 78069
L33757 78069
L33805 78093
L33830 78117
L33854 78166
L33854 78215
L33830 78288
L33537 78580
L33854 78580
" />
</g>
<g style="fill:#000000; fill-opacity:0.0; 
stroke:#000000; stroke-width:39.3701; stroke-opacity:1; 
stroke-linecap:round; stroke-linejoin:round;">
</g>
<g style="fill:#000000; fill-opacity:0.0; 
stroke:#000000; stroke-width:59.0551; stroke-opacity:1; 
stroke-linecap:round; stroke-linejoin:round;">
<path d="M53222 78069
L53539 78069
L53368 78263
L53442 78263
L53490 78288
L53515 78312
L53539 78361
L53539 78483
L53515 78532
L53490 78556
L53442 78580
L53295 78580
L53247 78556
L53222 78532
" />
</g>
<g style="fill:#000000; fill-opacity:0.0; 
stroke:#000000; stroke-width:39.3701; stroke-opacity:1; 
stroke-linecap:round; stroke-linejoin:round;">
</g>
<g style="fill:#000000; fill-opacity:0.0; 
stroke:#000000; stroke-width:59.0551; stroke-opacity:1; 
stroke-linecap:round; stroke-linejoin:round;">
<path d="M73175 78239
L73175 78580
" />
<path d="M73053 78044
L72932 78410
L73248 78410
" />
</g>
<g style="fill:#000000; fill-opacity:0.0; 
stroke:#000000; stroke-width:39.3701; stroke-opacity:1; 
stroke-linecap:round; stroke-linejoin:round;">
</g>
<g style="fill:#000000; fill-opacity:0.0; 
stroke:#000000; stroke-width:59.0551; stroke-opacity:1; 
stroke-linecap:round; stroke-linejoin:round;">
<path d="M92885 78069
L92641 78069
L92617 78312
L92641 78288
L92690 78263
L92812 78263
L92860 78288
L92885 78312
L92909 78361
L92909 78483
L92885 78532
L92860 78556
L92812 78580
L92690 78580
L92641 78556
L92617 78532
" />
</g>
<g style="fill:#000000; fill-opacity:0.0; 
stroke:#000000; stroke-width:39.3701; stroke-opacity:1; 
stroke-linecap:round; stroke-linejoin:round;">
</g>
<g style="fill:#000000; fill-opacity:0.0; 
stroke:#000000; stroke-width:59.0551; stroke-opacity:1; 
stroke-linecap:round; stroke-linejoin:round;">
<path d="M112545 78069
L112448 78069
L112399 78093
L112375 78117
L112326 78190
L112302 78288
L112302 78483
L112326 78532
L112350 78556
L112399 78580
L112497 78580
L112545 78556
L112570 78532
L112594 78483
L112594 78361
L112570 78312
L112545 78288
L112497 78263
L112399 78263
L112350 78288
L112326 78312
L112302 78361
" />
</g>
<g style="fill:#000000; fill-opacity:0.0; 
stroke:#000000; stroke-width:39.3701; stroke-opacity:1; 
stroke-linecap:round; stroke-linejoin:round;">
</g>
<g style="fill:#000000; fill-opacity:0.0; 
stroke:#000000; stroke-width:59.0551; stroke-opacity:1; 
stroke-linecap:round; stroke-linejoin:round;">
<path d="M3937 23622
L4724 23622
" />
</g>
<g style="fill:#000000; fill-opacity:0.0; 
stroke:#000000; stroke-width:39.3701; stroke-opacity:1; 
stroke-linecap:round; stroke-linejoin:round;">
</g>
<g style="fill:#000000; fill-opacity:0.0; 
stroke:#000000; stroke-width:59.0551; stroke-opacity:1; 
stroke-linecap:round; stroke-linejoin:round;">
<path d="M3937 43307
L4724 43307
" />
</g>
<g style="fill:#000000; fill-opacity:0.0; 
stroke:#000000; stroke-width:39.3701; stroke-opacity:1; 
stroke-linecap:round; stroke-linejoin:round;">
</g>
<g style="fill:#000000; fill-opacity:0.0; 
stroke:#000000; stroke-width:59.0551; stroke-opacity:1; 
stroke-linecap:round; stroke-linejoin:round;">
<path d="M3937 62992
L4724 62992
" />
</g>
<g style="fill:#000000; fill-opacity:0.0; 
stroke:#000000; stroke-width:39.3701; stroke-opacity:1; 
stroke-linecap:round; stroke-linejoin:round;">
</g>
<g style="fill:#000000; fill-opacity:0.0; 
stroke:#000000; stroke-width:59.0551; stroke-opacity:1; 
stroke-linecap:round; stroke-linejoin:round;">
<path d="M4208 13864
L4452 13864
" />
<path d="M4160 14011
L4330 13499
L4501 14011
" />
</g>
<g style="fill:#000000; fill-opacity:0.0; 
stroke:#000000; stroke-width:39.3701; stroke-opacity:1; 
stroke-linecap:round; stroke-linejoin:round;">
</g>
<g style="fill:#000000; fill-opacity:0.0; 
stroke:#000000; stroke-width:59.0551; stroke-opacity:1; 
stroke-linecap:round; stroke-linejoin:round;">
<path d="M4367 33428
L4440 33452
L4464 33476
L4489 33525
L4489 33598
L4464 33647
L4440 33671
L4391 33696
L4196 33696
L4196 33184
L4367 33184
L4416 33208
L4440 33233
L4464 33281
L4464 33330
L4440 33379
L4416 33403
L4367 33428
L4196 33428
" />
</g>
<g style="fill:#000000; fill-opacity:0.0; 
stroke:#000000; stroke-width:39.3701; stroke-opacity:1; 
stroke-linecap:round; stroke-linejoin:round;">
</g>
<g style="fill:#000000; fill-opacity:0.0; 
stroke:#000000; stroke-width:59.0551; stroke-opacity:1; 
stroke-linecap:round; stroke-linejoin:round;">
<path d="M4489 53332
L4464 53356
L4391 53381
L4342 53381
L4269 53356
L4221 53308
L4196 53259
L4172 53161
L4172 53088
L4196 52991
L4221 52942
L4269 52893
L4342 52869
L4391 52869
L4464 52893
L4489 52918
" />
</g>
<g style="fill:#000000; fill-opacity:0.0; 
stroke:#000000; stroke-width:39.3701; stroke-opacity:1; 
stroke-linecap:round; stroke-linejoin:round;">
</g>
<g style="fill:#000000; fill-opacity:0.0; 
stroke:#000000; stroke-width:59.0551; stroke-opacity:1; 
stroke-linecap:round; stroke-linejoin:round;">
<path d="M4196 73066
L4196 72554
L4318 72554
L4391 72578
L4440 72627
L4464 72676
L4489 72773
L4489 72846
L4464 72944
L4440 72993
L4391 73041
L4318 73066
L4196 73066
" />
</g>
<g style="fill:#000000; fill-opacity:0.0; 
stroke:#000000; stroke-width:39.3701; stroke-opacity:1; 
stroke-linecap:round; stroke-linejoin:round;">
</g>
<g style="fill:#000000; fill-opacity:0.0; 
stroke:#000000; stroke-width:59.0551; stroke-opacity:1; 
stroke-linecap:round; stroke-linejoin:round;">
<path d="M112992 23622
L112205 23622
" />
</g>
<g style="fill:#000000; fill-opacity:0.0; 
stroke:#000000; stroke-width:39.3701; stroke-opacity:1; 
stroke-linecap:round; stroke-linejoin:round;">
</g>
<g style="fill:#000000; fill-opacity:0.0; 
stroke:#000000; stroke-width:59.0551; stroke-opacity:1; 
stroke-linecap:round; stroke-linejoin:round;">
<path d="M112992 43307
L112205 43307
" />
</g>
<g style="fill:#000000; fill-opacity:0.0; 
stroke:#000000; stroke-width:39.3701; stroke-opacity:1; 
stroke-linecap:round; stroke-linejoin:round;">
</g>
<g style="fill:#000000; fill-opacity:0.0; 
stroke:#000000; stroke-width:59.0551; stroke-opacity:1; 
stroke-linecap:round; stroke-linejoin:round;">
<path d="M112992 62992
L112205 62992
" />
</g>
<g style="fill:#000000; fill-opacity:0.0; 
stroke:#000000; stroke-width:39.3701; stroke-opacity:1; 
stroke-linecap:round; stroke-linejoin:round;">
</g>
<g style="fill:#000000; fill-opacity:0.0; 
stroke:#000000; stroke-width:59.0551; stroke-opacity:1; 
stroke-linecap:round; stroke-linejoin:round;">
<path d="M112477 13864
L112721 13864
" />
<path d="M112428 14011
L112599 13499
L112769 14011
" />
</g>
<g style="fill:#000000; fill-opacity:0.0; 
stroke:#000000; stroke-width:39.3701; stroke-opacity:1; 
stroke-linecap:round; stroke-linejoin:round;">
</g>
<g style="fill:#000000; fill-opacity:0.0; 
stroke:#000000; stroke-width:59.0551; stroke-opacity:1; 
stroke-linecap:round; stroke-linejoin:round;">
<path d="M112635 33428
L112708 33452
L112733 33476
L112757 33525
L112757 33598
L112733 33647
L112708 33671
L112660 33696
L112465 33696
L112465 33184
L112635 33184
L112684 33208
L112708 33233
L112733 33281
L112733 33330
L112708 33379
L112684 33403
L112635 33428
L112465 33428
" />
</g>
<g style="fill:#000000; fill-opacity:0.0; 
stroke:#000000; stroke-width:39.3701; stroke-opacity:1; 
stroke-linecap:round; stroke-linejoin:round;">
</g>
<g style="fill:#000000; fill-opacity:0.0; 
stroke:#000000; stroke-width:59.0551; stroke-opacity:1; 
stroke-linecap:round; stroke-linejoin:round;">
<path d="M112757 53332
L112733 53356
L112660 53381
L112611 53381
L112538 53356
L112489 53308
L112465 53259
L112440 53161
L112440 53088
L112465 52991
L112489 52942
L112538 52893
L112611 52869
L112660 52869
L112733 52893
L112757 52918
" />
</g>
<g style="fill:#000000; fill-opacity:0.0; 
stroke:#000000; stroke-width:39.3701; stroke-opacity:1; 
stroke-linecap:round; stroke-linejoin:round;">
</g>
<g style="fill:#000000; fill-opacity:0.0; 
stroke:#000000; stroke-width:59.0551; stroke-opacity:1; 
stroke-linecap:round; stroke-linejoin:round;">
<path d="M112465 73066
L112465 72554
L112587 72554
L112660 72578
L112708 72627
L112733 72676
L112757 72773
L112757 72846
L112733 72944
L112708 72993
L112660 73041
L112587 73066
L112465 73066
" />
</g>
<g style="fill:#000000; fill-opacity:0.0; 
stroke:#000000; stroke-width:39.3701; stroke-opacity:1; 
stroke-linecap:round; stroke-linejoin:round;">
</g>
<g style="fill:#000000; fill-opacity:0.0; 
stroke:#000000; stroke-width:59.0551; stroke-opacity:1; 
stroke-linecap:round; stroke-linejoin:round;">
<path d="M78881 76293
L78881 75703
L79022 75703
L79106 75731
L79162 75787
L79190 75843
L79219 75956
L79219 76040
L79190 76153
L79162 76209
L79106 76265
L79022 76293
L78881 76293
" />
<path d="M79725 76293
L79725 75984
L79697 75928
L79640 75899
L79528 75899
L79472 75928
" />
<path d="M79725 76265
L79669 76293
L79528 76293
L79472 76265
L79444 76209
L79444 76153
L79472 76096
L79528 76068
L79669 76068
L79725 76040
" />
<path d="M79922 75899
L80147 75899
" />
<path d="M80006 75703
L80006 76209
L80034 76265
L80090 76293
L80147 76293
" />
<path d="M80568 76265
L80512 76293
L80400 76293
L80343 76265
L80315 76209
L80315 75984
L80343 75928
L80400 75899
L80512 75899
L80568 75928
L80597 75984
L80597 76040
L80315 76096
" />
<path d="M80850 76237
L80878 76265
L80850 76293
L80822 76265
L80850 76237
L80850 76293
" />
<path d="M80850 75928
L80878 75956
L80850 75984
L80822 75956
L80850 75928
L80850 75984
" />
</g>
<g style="fill:#000000; fill-opacity:0.0; 
stroke:#000000; stroke-width:39.3701; stroke-opacity:1; 
stroke-linecap:round; stroke-linejoin:round;">
</g>
<g style="fill:#000000; fill-opacity:0.0; 
stroke:#000000; stroke-width:59.0551; stroke-opacity:1; 
stroke-linecap:round; stroke-linejoin:round;">
<path d="M69685 76577
L112205 76577
" />
</g>
<g style="fill:#000000; fill-opacity:0.0; 
stroke:#000000; stroke-width:39.3701; stroke-opacity:1; 
stroke-linecap:round; stroke-linejoin:round;">
</g>
<g style="fill:#000000; fill-opacity:0.0; 
stroke:#000000; stroke-width:59.0551; stroke-opacity:1; 
stroke-linecap:round; stroke-linejoin:round;">
<path d="M70220 77395
L70220 76805
" />
<path d="M70557 77395
L70304 77058
" />
<path d="M70557 76805
L70220 77142
" />
<path d="M70810 77395
L70810 77002
" />
<path d="M70810 76805
L70782 76833
L70810 76861
L70838 76833
L70810 76805
L70810 76861
" />
<path d="M71429 77339
L71401 77367
L71316 77395
L71260 77395
L71176 77367
L71120 77311
L71091 77255
L71063 77142
L71063 77058
L71091 76946
L71120 76889
L71176 76833
L71260 76805
L71316 76805
L71401 76833
L71429 76861
" />
<path d="M71935 77395
L71935 77086
L71907 77030
L71851 77002
L71738 77002
L71682 77030
" />
<path d="M71935 77367
L71879 77395
L71738 77395
L71682 77367
L71654 77311
L71654 77255
L71682 77199
L71738 77171
L71879 77171
L71935 77142
" />
<path d="M72469 77395
L72469 76805
" />
<path d="M72469 77367
L72413 77395
L72301 77395
L72244 77367
L72216 77339
L72188 77283
L72188 77114
L72216 77058
L72244 77030
L72301 77002
L72413 77002
L72469 77030
" />
<path d="M73201 77086
L73397 77086
" />
<path d="M73482 77395
L73201 77395
L73201 76805
L73482 76805
" />
<path d="M73735 77339
L73763 77367
L73735 77395
L73707 77367
L73735 77339
L73735 77395
" />
<path d="M74016 77395
L74016 76805
L74157 76805
L74241 76833
L74297 76889
L74325 76946
L74354 77058
L74354 77142
L74325 77255
L74297 77311
L74241 77367
L74157 77395
L74016 77395
" />
<path d="M74607 77339
L74635 77367
L74607 77395
L74579 77367
L74607 77339
L74607 77395
" />
<path d="M74860 77227
L75141 77227
" />
<path d="M74804 77395
L75000 76805
L75197 77395
" />
<path d="M75394 77339
L75422 77367
L75394 77395
L75366 77367
L75394 77339
L75394 77395
" />
<path d="M76575 77395
L76575 76805
" />
<path d="M76631 77171
L76800 77395
" />
<path d="M76800 77002
L76575 77227
" />
<path d="M77053 77395
L77053 77002
" />
<path d="M77053 76805
L77025 76833
L77053 76861
L77081 76833
L77053 76805
L77053 76861
" />
<path d="M77588 77367
L77531 77395
L77419 77395
L77363 77367
L77334 77339
L77306 77283
L77306 77114
L77334 77058
L77363 77030
L77419 77002
L77531 77002
L77588 77030
" />
<path d="M78094 77395
L78094 77086
L78066 77030
L78009 77002
L77897 77002
L77841 77030
" />
<path d="M78094 77367
L78037 77395
L77897 77395
L77841 77367
L77813 77311
L77813 77255
L77841 77199
L77897 77171
L78037 77171
L78094 77142
" />
<path d="M78628 77395
L78628 76805
" />
<path d="M78628 77367
L78572 77395
L78459 77395
L78403 77367
L78375 77339
L78347 77283
L78347 77114
L78375 77058
L78403 77030
L78459 77002
L78572 77002
L78628 77030
" />
<path d="M79612 77002
L79612 77395
" />
<path d="M79472 76777
L79331 77199
L79697 77199
" />
<path d="M79922 77339
L79950 77367
L79922 77395
L79894 77367
L79922 77339
L79922 77395
" />
<path d="M80315 76805
L80372 76805
L80428 76833
L80456 76861
L80484 76917
L80512 77030
L80512 77171
L80484 77283
L80456 77339
L80428 77367
L80372 77395
L80315 77395
L80259 77367
L80231 77339
L80203 77283
L80175 77171
L80175 77030
L80203 76917
L80231 76861
L80259 76833
L80315 76805
" />
<path d="M80765 77339
L80793 77367
L80765 77395
L80737 77367
L80765 77339
L80765 77395
" />
<path d="M81328 76805
L81046 76805
L81018 77086
L81046 77058
L81103 77030
L81243 77030
L81300 77058
L81328 77086
L81356 77142
L81356 77283
L81328 77339
L81300 77367
L81243 77395
L81103 77395
L81046 77367
L81018 77339
" />
</g>
<g style="fill:#000000; fill-opacity:0.0; 
stroke:#000000; stroke-width:39.3701; stroke-opacity:1; 
stroke-linecap:round; stroke-linejoin:round;">
</g>
<g style="fill:#000000; fill-opacity:0.0; 
stroke:#000000; stroke-width:59.0551; stroke-opacity:1; 
stroke-linecap:round; stroke-linejoin:round;">
<path d="M69685 75396
L112205 75396
" />
</g>
<g style="fill:#000000; fill-opacity:0.0; 
stroke:#000000; stroke-width:39.3701; stroke-opacity:1; 
stroke-linecap:round; stroke-linejoin:round;">
</g>
<g style="fill:#000000; fill-opacity:0.0; 
stroke:#000000; stroke-width:118.11; stroke-opacity:1; 
stroke-linecap:round; stroke-linejoin:round;">
<path d="M104022 76293
L103825 76012
" />
<path d="M103684 76293
L103684 75703
L103909 75703
L103965 75731
L103994 75759
L104022 75815
L104022 75899
L103994 75956
L103965 75984
L103909 76012
L103684 76012
" />
<path d="M104500 76265
L104444 76293
L104331 76293
L104275 76265
L104247 76209
L104247 75984
L104275 75928
L104331 75899
L104444 75899
L104500 75928
L104528 75984
L104528 76040
L104247 76096
" />
<path d="M104725 75899
L104865 76293
L105006 75899
" />
<path d="M105231 76237
L105259 76265
L105231 76293
L105203 76265
L105231 76237
L105231 76293
" />
<path d="M105231 75928
L105259 75956
L105231 75984
L105203 75956
L105231 75928
L105231 75984
" />
</g>
<g style="fill:#000000; fill-opacity:0.0; 
stroke:#000000; stroke-width:39.3701; stroke-opacity:1; 
stroke-linecap:round; stroke-linejoin:round;">
</g>
<g style="fill:#000000; fill-opacity:0.0; 
stroke:#000000; stroke-width:59.0551; stroke-opacity:1; 
stroke-linecap:round; stroke-linejoin:round;">
<path d="M70192 76265
L70276 76293
L70417 76293
L70473 76265
L70501 76237
L70529 76181
L70529 76124
L70501 76068
L70473 76040
L70417 76012
L70304 75984
L70248 75956
L70220 75928
L70192 75871
L70192 75815
L70220 75759
L70248 75731
L70304 75703
L70445 75703
L70529 75731
" />
<path d="M70782 76293
L70782 75899
" />
<path d="M70782 75703
L70754 75731
L70782 75759
L70810 75731
L70782 75703
L70782 75759
" />
<path d="M71007 75899
L71316 75899
L71007 76293
L71316 76293
" />
<path d="M71766 76265
L71710 76293
L71598 76293
L71541 76265
L71513 76209
L71513 75984
L71541 75928
L71598 75899
L71710 75899
L71766 75928
L71795 75984
L71795 76040
L71513 76096
" />
<path d="M72048 76237
L72076 76265
L72048 76293
L72019 76265
L72048 76237
L72048 76293
" />
<path d="M72048 75928
L72076 75956
L72048 75984
L72019 75956
L72048 75928
L72048 75984
" />
<path d="M72751 76124
L73032 76124
" />
<path d="M72694 76293
L72891 75703
L73088 76293
" />
<path d="M73538 75899
L73538 76293
" />
<path d="M73397 75674
L73257 76096
L73622 76096
" />
</g>
<g style="fill:#000000; fill-opacity:0.0; 
stroke:#000000; stroke-width:39.3701; stroke-opacity:1; 
stroke-linecap:round; stroke-linejoin:round;">
</g>
<g style="fill:#000000; fill-opacity:0.0; 
stroke:#000000; stroke-width:59.0551; stroke-opacity:1; 
stroke-linecap:round; stroke-linejoin:round;">
<path d="M103684 77395
L103684 76805
" />
<path d="M104219 77395
L104219 76805
" />
<path d="M104219 77367
L104162 77395
L104050 77395
L103994 77367
L103965 77339
L103937 77283
L103937 77114
L103965 77058
L103994 77030
L104050 77002
L104162 77002
L104219 77030
" />
<path d="M104500 77339
L104528 77367
L104500 77395
L104472 77367
L104500 77339
L104500 77395
" />
<path d="M104500 77030
L104528 77058
L104500 77086
L104472 77058
L104500 77030
L104500 77086
" />
<path d="M105540 77395
L105203 77395
" />
<path d="M105372 77395
L105372 76805
L105315 76889
L105259 76946
L105203 76974
" />
<path d="M106215 76777
L105709 77536
" />
<path d="M106721 77395
L106384 77395
" />
<path d="M106553 77395
L106553 76805
L106496 76889
L106440 76946
L106384 76974
" />
</g>
<g style="fill:#000000; fill-opacity:0.0; 
stroke:#000000; stroke-width:39.3701; stroke-opacity:1; 
stroke-linecap:round; stroke-linejoin:round;">
</g>
<g style="fill:#000000; fill-opacity:0.0; 
stroke:#000000; stroke-width:59.0551; stroke-opacity:1; 
stroke-linecap:round; stroke-linejoin:round;">
<path d="M69685 73821
L112205 73821
" />
</g>
<g style="fill:#000000; fill-opacity:0.0; 
stroke:#000000; stroke-width:39.3701; stroke-opacity:1; 
stroke-linecap:round; stroke-linejoin:round;">
</g>
<g style="fill:#000000; fill-opacity:0.0; 
stroke:#000000; stroke-width:157.48; stroke-opacity:1; 
stroke-linecap:round; stroke-linejoin:round;">
<path d="M70257 74099
L70707 74099
" />
<path d="M70384 74886
L70482 74099
" />
<path d="M70871 74886
L70937 74361
" />
<path d="M70970 74099
L70927 74136
L70960 74174
L71002 74136
L70970 74099
L70960 74174
" />
<path d="M71199 74361
L71499 74361
" />
<path d="M71345 74099
L71260 74774
L71288 74849
L71359 74886
L71434 74886
" />
<path d="M71809 74886
L71738 74849
L71710 74774
L71795 74099
" />
<path d="M72413 74849
L72334 74886
L72184 74886
L72113 74849
L72085 74774
L72123 74474
L72169 74399
L72249 74361
L72399 74361
L72469 74399
L72498 74474
L72488 74549
L72104 74624
" />
<path d="M72793 74811
L72826 74849
L72783 74886
L72751 74849
L72793 74811
L72783 74886
" />
<path d="M72844 74399
L72877 74436
L72835 74474
L72802 74436
L72844 74399
L72835 74474
" />
</g>
<g style="fill:#000000; fill-opacity:0.0; 
stroke:#000000; stroke-width:39.3701; stroke-opacity:1; 
stroke-linecap:round; stroke-linejoin:round;">
</g>
<g style="fill:#000000; fill-opacity:0.0; 
stroke:#000000; stroke-width:59.0551; stroke-opacity:1; 
stroke-linecap:round; stroke-linejoin:round;">
<path d="M70417 73070
L70220 73070
" />
<path d="M70220 73380
L70220 72789
L70501 72789
" />
<path d="M70726 73380
L70726 72986
" />
<path d="M70726 72789
L70698 72817
L70726 72845
L70754 72817
L70726 72789
L70726 72845
" />
<path d="M71091 73380
L71035 73352
L71007 73295
L71007 72789
" />
<path d="M71541 73352
L71485 73380
L71373 73380
L71316 73352
L71288 73295
L71288 73070
L71316 73014
L71373 72986
L71485 72986
L71541 73014
L71570 73070
L71570 73127
L71288 73183
" />
<path d="M71823 73323
L71851 73352
L71823 73380
L71795 73352
L71823 73323
L71823 73380
" />
<path d="M71823 73014
L71851 73042
L71823 73070
L71795 73042
L71823 73014
L71823 73070
" />
<path d="M72891 73380
L72694 73099
" />
<path d="M72554 73380
L72554 72789
L72779 72789
L72835 72817
L72863 72845
L72891 72902
L72891 72986
L72863 73042
L72835 73070
L72779 73099
L72554 73099
" />
<path d="M73397 73380
L73397 73070
L73369 73014
L73313 72986
L73201 72986
L73144 73014
" />
<path d="M73397 73352
L73341 73380
L73201 73380
L73144 73352
L73116 73295
L73116 73239
L73144 73183
L73201 73155
L73341 73155
L73397 73127
" />
<path d="M73932 73380
L73932 72789
" />
<path d="M73932 73352
L73876 73380
L73763 73380
L73707 73352
L73679 73323
L73651 73267
L73651 73099
L73679 73042
L73707 73014
L73763 72986
L73876 72986
L73932 73014
" />
<path d="M74213 73380
L74213 72986
" />
<path d="M74213 72789
L74185 72817
L74213 72845
L74241 72817
L74213 72789
L74213 72845
" />
<path d="M74579 73380
L74522 73352
L74494 73323
L74466 73267
L74466 73099
L74494 73042
L74522 73014
L74579 72986
L74663 72986
L74719 73014
L74747 73042
L74775 73099
L74775 73267
L74747 73323
L74719 73352
L74663 73380
L74579 73380
" />
<path d="M74888 73436
L75338 73436
" />
<path d="M75478 73380
L75478 72986
" />
<path d="M75478 73099
L75507 73042
L75535 73014
L75591 72986
L75647 72986
" />
<path d="M76069 73352
L76013 73380
L75900 73380
L75844 73352
L75816 73295
L75816 73070
L75844 73014
L75900 72986
L76013 72986
L76069 73014
L76097 73070
L76097 73127
L75816 73183
" />
<path d="M76603 73352
L76547 73380
L76435 73380
L76378 73352
L76350 73323
L76322 73267
L76322 73099
L76350 73042
L76378 73014
L76435 72986
L76547 72986
L76603 73014
" />
<path d="M77081 73352
L77025 73380
L76913 73380
L76856 73352
L76828 73295
L76828 73070
L76856 73014
L76913 72986
L77025 72986
L77081 73014
L77109 73070
L77109 73127
L76828 73183
" />
<path d="M77363 73380
L77363 72986
" />
<path d="M77363 72789
L77334 72817
L77363 72845
L77391 72817
L77363 72789
L77363 72845
" />
<path d="M77588 72986
L77728 73380
L77869 72986
" />
<path d="M78319 73352
L78262 73380
L78150 73380
L78094 73352
L78066 73295
L78066 73070
L78094 73014
L78150 72986
L78262 72986
L78319 73014
L78347 73070
L78347 73127
L78066 73183
" />
<path d="M78600 73380
L78600 72986
" />
<path d="M78600 73099
L78628 73042
L78656 73014
L78712 72986
L78769 72986
" />
<path d="M78825 73436
L79275 73436
" />
<path d="M79331 72986
L79556 72986
" />
<path d="M79415 73380
L79415 72874
L79444 72817
L79500 72789
L79556 72789
" />
<path d="M79753 73380
L79753 72986
" />
<path d="M79753 72789
L79725 72817
L79753 72845
L79781 72817
L79753 72789
L79753 72845
" />
<path d="M80034 72986
L80034 73380
" />
<path d="M80034 73042
L80062 73014
L80118 72986
L80203 72986
L80259 73014
L80287 73070
L80287 73380
" />
<path d="M80822 73380
L80822 73070
L80793 73014
L80737 72986
L80625 72986
L80568 73014
" />
<path d="M80822 73352
L80765 73380
L80625 73380
L80568 73352
L80540 73295
L80540 73239
L80568 73183
L80625 73155
L80765 73155
L80822 73127
" />
<path d="M81187 73380
L81131 73352
L81103 73295
L81103 72789
" />
<path d="M81271 73436
L81721 73436
" />
<path d="M81862 72986
L81862 73577
" />
<path d="M81862 73014
L81918 72986
L82031 72986
L82087 73014
L82115 73042
L82143 73099
L82143 73267
L82115 73323
L82087 73352
L82031 73380
L81918 73380
L81862 73352
" />
<path d="M82396 73380
L82396 72986
" />
<path d="M82396 73099
L82424 73042
L82453 73014
L82509 72986
L82565 72986
" />
<path d="M82846 73380
L82790 73352
L82762 73323
L82734 73267
L82734 73099
L82762 73042
L82790 73014
L82846 72986
L82931 72986
L82987 73014
L83015 73042
L83043 73099
L83043 73267
L83015 73323
L82987 73352
L82931 73380
L82846 73380
" />
<path d="M83296 72986
L83296 73492
L83268 73548
L83212 73577
L83184 73577
" />
<path d="M83296 72789
L83268 72817
L83296 72845
L83324 72817
L83296 72789
L83296 72845
" />
<path d="M83802 73352
L83746 73380
L83634 73380
L83577 73352
L83549 73295
L83549 73070
L83577 73014
L83634 72986
L83746 72986
L83802 73014
L83831 73070
L83831 73127
L83549 73183
" />
<path d="M84337 73352
L84280 73380
L84168 73380
L84112 73352
L84084 73323
L84055 73267
L84055 73099
L84084 73042
L84112 73014
L84168 72986
L84280 72986
L84337 73014
" />
<path d="M84505 72986
L84730 72986
" />
<path d="M84590 72789
L84590 73295
L84618 73352
L84674 73380
L84730 73380
" />
<path d="M84787 73436
L85237 73436
" />
<path d="M85490 73099
L85490 73380
" />
<path d="M85293 72789
L85490 73099
L85687 72789
" />
<path d="M85883 73380
L85883 72789
" />
<path d="M86446 73380
L86165 73380
L86165 72789
" />
<path d="M86643 73380
L86643 72789
L86783 72789
L86868 72817
L86924 72874
L86952 72930
L86980 73042
L86980 73127
L86952 73239
L86924 73295
L86868 73352
L86783 73380
L86643 73380
" />
<path d="M87233 73380
L87233 72789
" />
<path d="M87458 72789
L87852 72789
L87458 73380
L87852 73380
" />
<path d="M87936 73436
L88386 73436
" />
<path d="M88527 73380
L88527 72789
L88724 73211
L88921 72789
L88921 73380
" />
<path d="M89455 72986
L89455 73380
" />
<path d="M89202 72986
L89202 73295
L89230 73352
L89286 73380
L89370 73380
L89427 73352
L89455 73323
" />
<path d="M89708 73352
L89764 73380
L89877 73380
L89933 73352
L89961 73295
L89961 73267
L89933 73211
L89877 73183
L89792 73183
L89736 73155
L89708 73099
L89708 73070
L89736 73014
L89792 72986
L89877 72986
L89933 73014
" />
<path d="M90130 72986
L90355 72986
" />
<path d="M90214 72789
L90214 73295
L90242 73352
L90298 73380
L90355 73380
" />
<path d="M90805 73380
L90805 73070
L90777 73014
L90720 72986
L90608 72986
L90552 73014
" />
<path d="M90805 73352
L90748 73380
L90608 73380
L90552 73352
L90523 73295
L90523 73239
L90552 73183
L90608 73155
L90748 73155
L90805 73127
" />
<path d="M91001 72986
L91226 72986
" />
<path d="M91086 73380
L91086 72874
L91114 72817
L91170 72789
L91226 72789
" />
<path d="M91676 73380
L91676 73070
L91648 73014
L91592 72986
L91480 72986
L91423 73014
" />
<path d="M91676 73352
L91620 73380
L91480 73380
L91423 73352
L91395 73295
L91395 73239
L91423 73183
L91480 73155
L91620 73155
L91676 73127
" />
<path d="M91958 73323
L91986 73352
L91958 73380
L91929 73352
L91958 73323
L91958 73380
" />
<path d="M92239 73380
L92239 72789
" />
<path d="M92295 73155
L92464 73380
" />
<path d="M92464 72986
L92239 73211
" />
<path d="M92717 73380
L92717 72986
" />
<path d="M92717 72789
L92689 72817
L92717 72845
L92745 72817
L92717 72789
L92717 72845
" />
<path d="M93251 73352
L93195 73380
L93082 73380
L93026 73352
L92998 73323
L92970 73267
L92970 73099
L92998 73042
L93026 73014
L93082 72986
L93195 72986
L93251 73014
" />
<path d="M93757 73380
L93757 73070
L93729 73014
L93673 72986
L93561 72986
L93504 73014
" />
<path d="M93757 73352
L93701 73380
L93561 73380
L93504 73352
L93476 73295
L93476 73239
L93504 73183
L93561 73155
L93701 73155
L93757 73127
" />
<path d="M94292 73380
L94292 72789
" />
<path d="M94292 73352
L94235 73380
L94123 73380
L94067 73352
L94039 73323
L94010 73267
L94010 73099
L94039 73042
L94067 73014
L94123 72986
L94235 72986
L94292 73014
" />
<path d="M94432 73436
L94882 73436
" />
<path d="M95023 72986
L95023 73577
" />
<path d="M95023 73014
L95079 72986
L95192 72986
L95248 73014
L95276 73042
L95304 73099
L95304 73267
L95276 73323
L95248 73352
L95192 73380
L95079 73380
L95023 73352
" />
<path d="M95810 73352
L95754 73380
L95642 73380
L95585 73352
L95557 73323
L95529 73267
L95529 73099
L95557 73042
L95585 73014
L95642 72986
L95754 72986
L95810 73014
" />
<path d="M96063 73380
L96063 72789
" />
<path d="M96063 73014
L96120 72986
L96232 72986
L96288 73014
L96316 73042
L96345 73099
L96345 73267
L96316 73323
L96288 73352
L96232 73380
L96120 73380
L96063 73352
" />
</g>
<g style="fill:#000000; fill-opacity:0.0; 
stroke:#000000; stroke-width:39.3701; stroke-opacity:1; 
stroke-linecap:round; stroke-linejoin:round;">
</g>
<g style="fill:#000000; fill-opacity:0.0; 
stroke:#000000; stroke-width:59.0551; stroke-opacity:1; 
stroke-linecap:round; stroke-linejoin:round;">
<path d="M69685 71459
L112205 71459
" />
</g>
<g style="fill:#000000; fill-opacity:0.0; 
stroke:#000000; stroke-width:39.3701; stroke-opacity:1; 
stroke-linecap:round; stroke-linejoin:round;">
</g>
<g style="fill:#000000; fill-opacity:0.0; 
stroke:#000000; stroke-width:59.0551; stroke-opacity:1; 
stroke-linecap:round; stroke-linejoin:round;">
<path d="M70192 72289
L70276 72317
L70417 72317
L70473 72289
L70501 72260
L70529 72204
L70529 72148
L70501 72092
L70473 72064
L70417 72036
L70304 72007
L70248 71979
L70220 71951
L70192 71895
L70192 71839
L70220 71782
L70248 71754
L70304 71726
L70445 71726
L70529 71754
" />
<path d="M70782 72317
L70782 71726
" />
<path d="M71035 72317
L71035 72007
L71007 71951
L70951 71923
L70867 71923
L70810 71951
L70782 71979
" />
<path d="M71541 72289
L71485 72317
L71373 72317
L71316 72289
L71288 72232
L71288 72007
L71316 71951
L71373 71923
L71485 71923
L71541 71951
L71570 72007
L71570 72064
L71288 72120
" />
<path d="M72048 72289
L71991 72317
L71879 72317
L71823 72289
L71795 72232
L71795 72007
L71823 71951
L71879 71923
L71991 71923
L72048 71951
L72076 72007
L72076 72064
L71795 72120
" />
<path d="M72244 71923
L72469 71923
" />
<path d="M72329 71726
L72329 72232
L72357 72289
L72413 72317
L72469 72317
" />
<path d="M72666 72260
L72694 72289
L72666 72317
L72638 72289
L72666 72260
L72666 72317
" />
<path d="M72666 71951
L72694 71979
L72666 72007
L72638 71979
L72666 71951
L72666 72007
" />
</g>
<g style="fill:#000000; fill-opacity:0.0; 
stroke:#000000; stroke-width:39.3701; stroke-opacity:1; 
stroke-linecap:round; stroke-linejoin:round;">
</g>
<g style="fill:#000000; fill-opacity:0.0; 
stroke:#000000; stroke-width:59.0551; stroke-opacity:1; 
stroke-linecap:round; stroke-linejoin:round;">
<path d="M77559 75396
L77559 76577
" />
</g>
<g style="fill:#000000; fill-opacity:0.0; 
stroke:#000000; stroke-width:39.3701; stroke-opacity:1; 
stroke-linecap:round; stroke-linejoin:round;">
</g>
<g style="fill:#000000; fill-opacity:0.0; 
stroke:#000000; stroke-width:59.0551; stroke-opacity:1; 
stroke-linecap:round; stroke-linejoin:round;">
<path d="M102756 75396
L102756 77955
" />
</g>
<g style="fill:#C2C200; fill-opacity:0.0; 
stroke:#C2C200; stroke-width:59.0551; stroke-opacity:1; 
stroke-linecap:round; stroke-linejoin:round;">
<path d="M31020 47058
L31022 36380
" />
<path d="M66660 47058
L31020 47058
" />
<path d="M66660 36384
L66660 47058
" />
<path d="M31020 36384
L66660 36384
" />
<path d="M64331 42751
L64350 42695
L64369 42676
L64406 42657
L64463 42657
L64500 42676
L64519 42695
L64538 42732
L64538 42882
L64144 42882
L64144 42751
L64163 42713
L64181 42695
L64219 42676
L64256 42676
L64294 42695
L64313 42713
L64331 42751
L64331 42882
" />
<path d="M64144 42545
L64144 42320
" />
<path d="M64538 42432
L64144 42432
" />
<path d="M64538 41982
L64538 42207
" />
<path d="M64538 42095
L64144 42095
L64200 42132
L64238 42170
L64256 42207
" />
<path d="M34692 46130
L34673 46149
L34617 46167
L34579 46167
L34523 46149
L34486 46111
L34467 46074
L34448 45999
L34448 45942
L34467 45867
L34486 45830
L34523 45792
L34579 45774
L34617 45774
L34673 45792
L34692 45811
" />
<path d="M35067 46167
L34842 46167
" />
<path d="M34954 46167
L34954 45774
L34917 45830
L34879 45867
L34842 45886
" />
<path d="M38733 45433
L38715 45452
L38658 45471
L38621 45471
L38565 45452
L38527 45414
L38508 45377
L38490 45302
L38490 45246
L38508 45171
L38527 45133
L38565 45096
L38621 45077
L38658 45077
L38715 45096
L38733 45114
" />
<path d="M38883 45114
L38902 45096
L38940 45077
L39033 45077
L39071 45096
L39090 45114
L39108 45152
L39108 45189
L39090 45246
L38865 45471
L39108 45471
" />
<path d="M45902 43331
L45920 43350
L45939 43406
L45939 43443
L45920 43500
L45883 43537
L45845 43556
L45770 43575
L45714 43575
L45639 43556
L45602 43537
L45564 43500
L45545 43443
L45545 43406
L45564 43350
L45583 43331
" />
<path d="M45545 43200
L45545 42956
L45695 43087
L45695 43031
L45714 42993
L45733 42975
L45770 42956
L45864 42956
L45902 42975
L45920 42993
L45939 43031
L45939 43143
L45920 43181
L45902 43200
" />
<path d="M48946 46900
L48927 46919
L48871 46937
L48834 46937
L48777 46919
L48740 46881
L48721 46844
L48702 46769
L48702 46713
L48721 46638
L48740 46600
L48777 46563
L48834 46544
L48871 46544
L48927 46563
L48946 46581
" />
<path d="M49283 46675
L49283 46937
" />
<path d="M49190 46525
L49096 46806
L49340 46806
" />
<path d="M56908 44652
L56889 44671
L56833 44690
L56795 44690
L56739 44671
L56701 44633
L56683 44596
L56664 44521
L56664 44465
L56683 44390
L56701 44352
L56739 44315
L56795 44296
L56833 44296
L56889 44315
L56908 44334
" />
<path d="M57264 44296
L57076 44296
L57057 44484
L57076 44465
L57114 44446
L57207 44446
L57245 44465
L57264 44484
L57282 44521
L57282 44615
L57264 44652
L57245 44671
L57207 44690
L57114 44690
L57076 44671
L57057 44652
" />
<path d="M62868 41577
L62886 41596
L62905 41652
L62905 41689
L62886 41746
L62849 41783
L62811 41802
L62736 41821
L62680 41821
L62605 41802
L62568 41783
L62530 41746
L62511 41689
L62511 41652
L62530 41596
L62549 41577
" />
<path d="M62511 41239
L62511 41314
L62530 41352
L62549 41371
L62605 41408
L62680 41427
L62830 41427
L62868 41408
L62886 41389
L62905 41352
L62905 41277
L62886 41239
L62868 41221
L62830 41202
L62736 41202
L62699 41221
L62680 41239
L62661 41277
L62661 41352
L62680 41389
L62699 41408
L62736 41427
" />
<path d="M49016 37772
L48997 37791
L48941 37810
L48903 37810
L48847 37791
L48810 37754
L48791 37716
L48772 37641
L48772 37585
L48791 37510
L48810 37472
L48847 37435
L48903 37416
L48941 37416
L48997 37435
L49016 37454
" />
<path d="M49147 37416
L49409 37416
L49241 37810
" />
<path d="M55020 43169
L55020 42775
" />
<path d="M55020 42963
L55245 42963
" />
<path d="M55245 43169
L55245 42775
" />
<path d="M55583 43150
L55545 43169
L55470 43169
L55433 43150
L55414 43113
L55414 42963
L55433 42925
L55470 42907
L55545 42907
L55583 42925
L55602 42963
L55602 43000
L55414 43038
" />
<path d="M55939 43169
L55939 42963
L55920 42925
L55883 42907
L55808 42907
L55770 42925
" />
<path d="M55939 43150
L55902 43169
L55808 43169
L55770 43150
L55752 43113
L55752 43075
L55770 43038
L55808 43019
L55902 43019
L55939 43000
" />
<path d="M56295 43169
L56295 42775
" />
<path d="M56295 43150
L56258 43169
L56183 43169
L56145 43150
L56126 43132
L56108 43094
L56108 42982
L56126 42944
L56145 42925
L56183 42907
L56258 42907
L56295 42925
" />
<path d="M56483 42907
L56483 43300
" />
<path d="M56483 42925
L56520 42907
L56595 42907
L56633 42925
L56651 42944
L56670 42982
L56670 43094
L56651 43132
L56633 43150
L56595 43169
L56520 43169
L56483 43150
" />
<path d="M56839 43169
L56839 42775
" />
<path d="M57008 43169
L57008 42963
L56989 42925
L56951 42907
L56895 42907
L56858 42925
L56839 42944
" />
<path d="M57251 43169
L57214 43150
L57195 43132
L57176 43094
L57176 42982
L57195 42944
L57214 42925
L57251 42907
L57308 42907
L57345 42925
L57364 42944
L57383 42982
L57383 43094
L57364 43132
L57345 43150
L57308 43169
L57251 43169
" />
<path d="M57551 42907
L57551 43169
" />
<path d="M57551 42944
L57570 42925
L57608 42907
L57664 42907
L57701 42925
L57720 42963
L57720 43169
" />
<path d="M58057 43150
L58020 43169
L57945 43169
L57907 43150
L57889 43113
L57889 42963
L57907 42925
L57945 42907
L58020 42907
L58057 42925
L58076 42963
L58076 43000
L57889 43038
" />
<path d="M58226 43150
L58264 43169
L58339 43169
L58376 43150
L58395 43113
L58395 43094
L58376 43057
L58339 43038
L58282 43038
L58245 43019
L58226 42982
L58226 42963
L58245 42925
L58282 42907
L58339 42907
L58376 42925
" />
<path d="M58770 43169
L58545 43169
" />
<path d="M58657 43169
L58657 42775
L58620 42832
L58582 42869
L58545 42888
" />
<path d="M37848 42538
L37848 42726
L37454 42726
" />
<path d="M37848 42201
L37848 42426
" />
<path d="M37848 42313
L37454 42313
L37510 42351
L37548 42388
L37566 42426
" />
<path d="M42134 46554
L41946 46554
L41946 46160
" />
<path d="M42246 46197
L42265 46179
L42303 46160
L42396 46160
L42434 46179
L42453 46197
L42471 46235
L42471 46272
L42453 46329
L42228 46554
L42471 46554
" />
<path d="M39041 42309
L38853 42440
" />
<path d="M39041 42534
L38647 42534
L38647 42384
L38666 42347
L38685 42328
L38722 42309
L38778 42309
L38816 42328
L38835 42347
L38853 42384
L38853 42534
" />
<path d="M39041 41934
L39041 42159
" />
<path d="M39041 42047
L38647 42047
L38703 42084
L38741 42122
L38760 42159
" />
<path d="M38904 42335
L38717 42466
" />
<path d="M38904 42560
L38510 42560
L38510 42410
L38529 42373
L38548 42354
L38585 42335
L38642 42335
L38679 42354
L38698 42373
L38717 42410
L38717 42560
" />
<path d="M38548 42185
L38529 42166
L38510 42129
L38510 42035
L38529 41998
L38548 41979
L38585 41960
L38623 41960
L38679 41979
L38904 42204
L38904 41960
" />
<path d="M45960 43803
L45773 43934
" />
<path d="M45960 44028
L45566 44028
L45566 43878
L45585 43841
L45604 43822
L45641 43803
L45698 43803
L45735 43822
L45754 43841
L45773 43878
L45773 44028
" />
<path d="M45566 43672
L45566 43428
L45716 43559
L45716 43503
L45735 43466
L45754 43447
L45791 43428
L45885 43428
L45923 43447
L45941 43466
L45960 43503
L45960 43616
L45941 43653
L45923 43672
" />
<path d="M44164 38800
L44033 38613
" />
<path d="M43939 38800
L43939 38406
L44089 38406
L44126 38425
L44145 38444
L44164 38481
L44164 38538
L44145 38575
L44126 38594
L44089 38613
L43939 38613
" />
<path d="M44501 38538
L44501 38800
" />
<path d="M44408 38388
L44314 38669
L44558 38669
" />
<path d="M54809 43803
L54622 43934
" />
<path d="M54809 44028
L54415 44028
L54415 43878
L54434 43841
L54453 43822
L54490 43803
L54547 43803
L54584 43822
L54603 43841
L54622 43878
L54622 44028
" />
<path d="M54415 43447
L54415 43634
L54603 43653
L54584 43634
L54565 43597
L54565 43503
L54584 43466
L54603 43447
L54640 43428
L54734 43428
L54772 43447
L54790 43466
L54809 43503
L54809 43597
L54790 43634
L54772 43653
" />
<path d="M53824 40767
L53693 40580
" />
<path d="M53599 40767
L53599 40373
L53749 40373
L53786 40392
L53805 40411
L53824 40448
L53824 40505
L53805 40542
L53786 40561
L53749 40580
L53599 40580
" />
<path d="M54161 40373
L54086 40373
L54049 40392
L54030 40411
L53993 40467
L53974 40542
L53974 40692
L53993 40730
L54011 40748
L54049 40767
L54124 40767
L54161 40748
L54180 40730
L54199 40692
L54199 40598
L54180 40561
L54161 40542
L54124 40523
L54049 40523
L54011 40542
L53993 40561
L53974 40598
" />
<path d="M60959 42575
L60772 42706
" />
<path d="M60959 42800
L60565 42800
L60565 42650
L60584 42613
L60603 42594
L60640 42575
L60697 42575
L60734 42594
L60753 42613
L60772 42650
L60772 42800
" />
<path d="M60565 42444
L60565 42181
L60959 42350
" />
<path d="M62220 37419
L62276 37438
L62370 37438
L62407 37419
L62426 37400
L62445 37363
L62445 37325
L62426 37288
L62407 37269
L62370 37250
L62295 37231
L62257 37213
L62238 37194
L62220 37156
L62220 37119
L62238 37081
L62257 37063
L62295 37044
L62388 37044
L62445 37063
" />
<path d="M62819 37438
L62594 37438
" />
<path d="M62707 37438
L62707 37044
L62669 37100
L62632 37138
L62594 37156
" />
<path d="M51086 44777
L51311 44777
" />
<path d="M51198 45171
L51198 44777
" />
<path d="M51404 44777
L51648 44777
L51517 44927
L51573 44927
L51610 44946
L51629 44965
L51648 45002
L51648 45096
L51629 45134
L51610 45152
L51573 45171
L51460 45171
L51423 45152
L51404 45134
" />
<path d="M32426 38099
L32557 38492
L32688 38099
" />
<path d="M33044 38455
L33026 38474
L32969 38492
L32932 38492
L32876 38474
L32838 38436
L32819 38399
L32801 38324
L32801 38267
L32819 38192
L32838 38155
L32876 38118
L32932 38099
L32969 38099
L33026 38118
L33044 38136
" />
<path d="M33419 38492
L33194 38492
" />
<path d="M33307 38492
L33307 38099
L33269 38155
L33232 38192
L33194 38211
" />
<path d="M31928 41194
L32059 41588
L32190 41194
" />
<path d="M32546 41551
L32528 41569
L32471 41588
L32434 41588
L32378 41569
L32340 41532
L32322 41494
L32303 41419
L32303 41363
L32322 41288
L32340 41251
L32378 41213
L32434 41194
L32471 41194
L32528 41213
L32546 41232
" />
<path d="M32696 41232
L32715 41213
L32753 41194
L32846 41194
L32884 41213
L32903 41232
L32921 41269
L32921 41307
L32903 41363
L32678 41588
L32921 41588
" />
<path d="M33317 37711
L33711 37580
L33317 37449
" />
<path d="M33711 37092
L33524 37224
" />
<path d="M33711 37317
L33317 37317
L33317 37167
L33336 37130
L33355 37111
L33392 37092
L33449 37092
L33486 37111
L33505 37130
L33524 37167
L33524 37317
" />
<path d="M33711 36717
L33711 36942
" />
<path d="M33711 36830
L33317 36830
L33374 36867
L33411 36905
L33430 36942
" />
<path d="M47129 43527
L47129 43302
" />
<path d="M47522 43415
L47129 43415
" />
<path d="M47166 43190
L47147 43171
L47129 43134
L47129 43040
L47147 43003
L47166 42984
L47204 42965
L47241 42965
L47297 42984
L47522 43209
L47522 42965
" />
<path d="M57000 42274
L57225 42274
" />
<path d="M57112 42668
L57112 42274
" />
<path d="M57524 42406
L57524 42668
" />
<path d="M57431 42256
L57337 42537
L57581 42537
" />
<path d="M35728 37534
L35953 37534
" />
<path d="M35840 37928
L35840 37534
" />
<path d="M36290 37928
L36065 37928
" />
<path d="M36177 37928
L36177 37534
L36140 37591
L36102 37628
L36065 37647
" />
</g>
<g style="fill:#008484; fill-opacity:0.0; 
stroke:#008484; stroke-width:59.0551; stroke-opacity:1; 
stroke-linecap:round; stroke-linejoin:round;">
</g>
<g style="fill:#008484; fill-opacity:0.0; 
stroke:#008484; stroke-width:47.2441; stroke-opacity:1; 
stroke-linecap:round; stroke-linejoin:round;">
<path d="M34364 45686
L35151 45686
" />
<path d="M35151 44521
L34364 44521
" />
<path d="M39193 45580
L38405 45580
" />
<path d="M38405 46383
L39193 46383
" />
<path d="M45367 41864
L45367 44667
" />
<path d="M44336 41864
L44336 44667
" />
<path d="M45367 41864
L44336 41864
" />
<path d="M45367 44667
L44336 44667
" />
<path d="M49941 46366
L48082 46366
" />
<path d="M49941 45137
L48082 45137
" />
<path d="M49941 46366
L49941 45137
" />
<path d="M48082 46366
L48082 45137
" />
<path d="M54981 44905
L58965 44905
" />
<path d="M54981 46134
L58965 46134
" />
<path d="M54981 44905
L54981 46134
" />
<path d="M58965 44905
L58965 46134
" />
<path d="M62333 40110
L62333 42913
" />
<path d="M61302 40110
L61302 42913
" />
<path d="M62333 40110
L61302 40110
" />
<path d="M62333 42913
L61302 42913
" />
<path d="M49081 38029
L49081 41022
" />
<path d="M49097 38029
L49097 41022
" />
<path d="M49113 38029
L49113 41022
" />
<path d="M49129 38030
L49129 41021
" />
<path d="M49144 38031
L49144 41020
" />
<path d="M49160 38031
L49160 41020
" />
<path d="M49176 38032
L49176 41019
" />
<path d="M49192 38033
L49192 39140
" />
<path d="M49192 39911
L49192 41018
" />
<path d="M49207 38035
L49207 39140
" />
<path d="M49207 39911
L49207 41016
" />
<path d="M49223 38036
L49223 39140
" />
<path d="M49223 39911
L49223 41015
" />
<path d="M49239 38037
L49239 39140
" />
<path d="M49239 39911
L49239 41014
" />
<path d="M49255 38039
L49255 39140
" />
<path d="M49255 39911
L49255 41012
" />
<path d="M49270 38041
L49270 39140
" />
<path d="M49270 39911
L49270 41010
" />
<path d="M49286 38043
L49286 39140
" />
<path d="M49286 39911
L49286 41008
" />
<path d="M49302 38046
L49302 39140
" />
<path d="M49302 39911
L49302 41005
" />
<path d="M49318 38048
L49318 39140
" />
<path d="M49318 39911
L49318 41003
" />
<path d="M49333 38050
L49333 39140
" />
<path d="M49333 39911
L49333 41001
" />
<path d="M49349 38053
L49349 39140
" />
<path d="M49349 39911
L49349 40998
" />
<path d="M49365 38056
L49365 39140
" />
<path d="M49365 39911
L49365 40995
" />
<path d="M49381 38059
L49381 39140
" />
<path d="M49381 39911
L49381 40992
" />
<path d="M49397 38063
L49397 39140
" />
<path d="M49397 39911
L49397 40988
" />
<path d="M49412 38066
L49412 39140
" />
<path d="M49412 39911
L49412 40985
" />
<path d="M49428 38070
L49428 39140
" />
<path d="M49428 39911
L49428 40981
" />
<path d="M49444 38073
L49444 39140
" />
<path d="M49444 39911
L49444 40978
" />
<path d="M49460 38077
L49460 39140
" />
<path d="M49460 39911
L49460 40974
" />
<path d="M49475 38081
L49475 39140
" />
<path d="M49475 39911
L49475 40970
" />
<path d="M49491 38086
L49491 39140
" />
<path d="M49491 39911
L49491 40965
" />
<path d="M49507 38090
L49507 39140
" />
<path d="M49507 39911
L49507 40961
" />
<path d="M49523 38095
L49523 39140
" />
<path d="M49523 39911
L49523 40956
" />
<path d="M49538 38100
L49538 39140
" />
<path d="M49538 39911
L49538 40951
" />
<path d="M49554 38105
L49554 39140
" />
<path d="M49554 39911
L49554 40946
" />
<path d="M49570 38110
L49570 39140
" />
<path d="M49570 39911
L49570 40941
" />
<path d="M49586 38116
L49586 39140
" />
<path d="M49586 39911
L49586 40935
" />
<path d="M49601 38122
L49601 39140
" />
<path d="M49601 39911
L49601 40929
" />
<path d="M49617 38127
L49617 39140
" />
<path d="M49617 39911
L49617 40924
" />
<path d="M49633 38133
L49633 39140
" />
<path d="M49633 39911
L49633 40918
" />
<path d="M49649 38140
L49649 39140
" />
<path d="M49649 39911
L49649 40911
" />
<path d="M49664 38146
L49664 39140
" />
<path d="M49664 39911
L49664 40905
" />
<path d="M49680 38153
L49680 39140
" />
<path d="M49680 39911
L49680 40898
" />
<path d="M49696 38160
L49696 39140
" />
<path d="M49696 39911
L49696 40891
" />
<path d="M49712 38167
L49712 39140
" />
<path d="M49712 39911
L49712 40884
" />
<path d="M49727 38174
L49727 39140
" />
<path d="M49727 39911
L49727 40877
" />
<path d="M49743 38182
L49743 39140
" />
<path d="M49743 39911
L49743 40869
" />
<path d="M49759 38189
L49759 39140
" />
<path d="M49759 39911
L49759 40862
" />
<path d="M49775 38198
L49775 39140
" />
<path d="M49775 39911
L49775 40853
" />
<path d="M49790 38206
L49790 39140
" />
<path d="M49790 39911
L49790 40845
" />
<path d="M49806 38214
L49806 39140
" />
<path d="M49806 39911
L49806 40837
" />
<path d="M49822 38223
L49822 39140
" />
<path d="M49822 39911
L49822 40828
" />
<path d="M49838 38232
L49838 39140
" />
<path d="M49838 39911
L49838 40819
" />
<path d="M49853 38241
L49853 39140
" />
<path d="M49853 39911
L49853 40810
" />
<path d="M49869 38250
L49869 39140
" />
<path d="M49869 39911
L49869 40801
" />
<path d="M49885 38260
L49885 39140
" />
<path d="M49885 39911
L49885 40791
" />
<path d="M49901 38270
L49901 39140
" />
<path d="M49901 39911
L49901 40781
" />
<path d="M49916 38281
L49916 39140
" />
<path d="M49916 39911
L49916 40770
" />
<path d="M49932 38291
L49932 39140
" />
<path d="M49932 39911
L49932 40760
" />
<path d="M49948 38302
L49948 39140
" />
<path d="M49948 39911
L49948 40749
" />
<path d="M49964 38313
L49964 40738
" />
<path d="M49979 38325
L49979 40726
" />
<path d="M49995 38337
L49995 40714
" />
<path d="M50011 38348
L50011 40703
" />
<path d="M50027 38361
L50027 40690
" />
<path d="M50042 38374
L50042 40677
" />
<path d="M50058 38387
L50058 40664
" />
<path d="M50074 38400
L50074 40651
" />
<path d="M50090 38414
L50090 40637
" />
<path d="M50105 38429
L50105 40622
" />
<path d="M50121 38443
L50121 40608
" />
<path d="M50137 38458
L50137 40593
" />
<path d="M50153 38474
L50153 40577
" />
<path d="M50168 38490
L50168 40561
" />
<path d="M50184 38507
L50184 40544
" />
<path d="M50200 38524
L50200 40527
" />
<path d="M50216 38541
L50216 40510
" />
<path d="M50231 38559
L50231 40492
" />
<path d="M50247 38578
L50247 40473
" />
<path d="M50263 38598
L50263 40453
" />
<path d="M50279 38617
L50279 40434
" />
<path d="M50294 38638
L50294 40413
" />
<path d="M50310 38660
L50310 40391
" />
<path d="M50326 38682
L50326 40369
" />
<path d="M50342 38705
L50342 40346
" />
<path d="M50357 38729
L50357 40322
" />
<path d="M50373 38755
L50373 40296
" />
<path d="M50389 38781
L50389 40270
" />
<path d="M50405 38809
L50405 40242
" />
<path d="M50420 38838
L50420 40213
" />
<path d="M50436 38869
L50436 40182
" />
<path d="M50452 38902
L50452 40149
" />
<path d="M50468 38937
L50468 40114
" />
<path d="M50483 38974
L50483 40077
" />
<path d="M50499 39015
L50499 40036
" />
<path d="M50515 39059
L50515 39992
" />
<path d="M50531 39109
L50531 39942
" />
<path d="M50546 39166
L50546 39885
" />
<path d="M50562 39234
L50562 39817
" />
<path d="M50578 39324
L50578 39727
" />
<path d="M47723 39526
L48196 39526
" />
<path d="M47959 39270
L47959 39781
" />
<circle cx="49081.9" cy="39526" r="1511.81" /> 
</g>
<g style="fill:#008484; fill-opacity:0.0; 
stroke:#008484; stroke-width:59.0551; stroke-opacity:1; 
stroke-linecap:round; stroke-linejoin:round;">
<path d="M55508 42597
L58264 42597
" />
<path d="M55508 41022
L58264 41022
" />
<path d="M58264 41022
L58264 42597
" />
<path d="M55508 41022
L55508 42597
" />
<path d="M36489 43969
L36843 43969
" />
<path d="M34599 40977
L34245 40977
" />
<path d="M34245 40977
L34245 43969
" />
<path d="M34245 43969
L34599 43969
" />
<path d="M36843 43969
L36843 40977
" />
<path d="M36843 40977
L36489 40977
" />
<path d="M40704 45195
L40704 45549
" />
<path d="M43696 43305
L43696 42951
" />
<path d="M43696 42951
L40704 42951
" />
<path d="M40704 42951
L40704 43305
" />
<path d="M40704 45549
L43696 45549
" />
<path d="M43696 45549
L43696 45195
" />
</g>
<g style="fill:#008484; fill-opacity:0.0; 
stroke:#008484; stroke-width:47.2441; stroke-opacity:1; 
stroke-linecap:round; stroke-linejoin:round;">
<path d="M38469 40448
L37162 40448
" />
<path d="M37162 40448
L37162 44039
" />
<path d="M37162 44039
L38469 44039
" />
<path d="M38469 44039
L38469 40448
" />
<path d="M37816 40129
L37816 40448
" />
<path d="M37816 44358
L37816 44039
" />
<path d="M39120 43533
L40151 43533
" />
<path d="M40151 43533
L40151 41006
" />
<path d="M40151 41006
L39120 41006
" />
<path d="M39120 41006
L39120 43533
" />
<path d="M39636 43884
L39636 43533
" />
<path d="M39636 40655
L39636 41006
" />
<path d="M46176 45001
L47207 45001
" />
<path d="M47207 45001
L47207 42474
" />
<path d="M47207 42474
L46176 42474
" />
<path d="M46176 42474
L46176 45001
" />
<path d="M46692 45352
L46692 45001
" />
<path d="M46692 42123
L46692 42474
" />
<path d="M42966 39016
L42966 40047
" />
<path d="M42966 40047
L45493 40047
" />
<path d="M45493 40047
L45493 39016
" />
<path d="M45493 39016
L42966 39016
" />
<path d="M42615 39532
L42966 39532
" />
<path d="M45844 39532
L45493 39532
" />
<path d="M54237 42474
L53206 42474
" />
<path d="M53206 42474
L53206 45001
" />
<path d="M53206 45001
L54237 45001
" />
<path d="M54237 45001
L54237 42474
" />
<path d="M53722 42123
L53722 42474
" />
<path d="M53722 45352
L53722 45001
" />
<path d="M55153 40195
L55153 39164
" />
<path d="M55153 39164
L52626 39164
" />
<path d="M52626 39164
L52626 40195
" />
<path d="M52626 40195
L55153 40195
" />
<path d="M55504 39680
L55153 39680
" />
<path d="M52275 39680
L52626 39680
" />
<path d="M60387 41246
L59356 41246
" />
<path d="M59356 41246
L59356 43773
" />
<path d="M59356 43773
L60387 43773
" />
<path d="M60387 43773
L60387 41246
" />
<path d="M59872 40895
L59872 41246
" />
<path d="M59872 44124
L59872 43773
" />
<path d="M52094 42863
L50677 42863
" />
<path d="M51386 44615.6 A1023.62 1023.62 0.0 0 0 52109.8 42868.2 " />
<path d="M50662.2 42868.2 A1023.62 1023.62 0.0 0 0 51386 44615.6 " />
<path d="M31091 39618
L31563 39618
" />
<path d="M31327 39362
L31327 39873
" />
<path d="M33778.4 39232.4 A921.26 921.26 0.0 0 0 32105.2 39232.2 " />
<path d="M32105.2 40003.8 A921.26 921.26 0.0 0 0 33778.4 40003.6 " />
<path d="M31085 42812
L31558 42812
" />
<path d="M31321 42556
L31321 43067
" />
<path d="M33387.5 42425.6 A1019.69 1019.69 0.0 0 0 31500 42426.2 " />
<path d="M31500 43197.8 A1019.69 1019.69 0.0 0 0 33387.5 43198.4 " />
<path d="M33387.5 43198.4 A1019.69 1019.69 0.0 0 0 33387.7 42426.2 " />
<path d="M34002 38026
L34002 35203
" />
<path d="M37789 38026
L37789 35203
" />
<path d="M34002 38026
L37789 38026
" />
<path d="M34002 35203
L37789 35203
" />
<path d="M34494 35203
L34494 33235
" />
<path d="M37297 35203
L37297 33235
" />
<path d="M34494 35203
L37297 35203
" />
<path d="M34494 33235
L37297 33235
" />
<path d="M34691 33235
L34691 29297
" />
<path d="M37100 33235
L37100 29297
" />
<path d="M34691 33235
L37100 33235
" />
<path d="M34691 29297
L37100 29297
" />
<path d="M49872 43936
L49872 42519
" />
<path d="M49586 44143 A1016.21 1016.21 0.0 0 0 49872.3 43936.7 " />
<path d="M48120.4 43228 A1023.62 1023.62 0.0 0 0 48711.4 44155.7 " />
<path d="M48711.4 42300.3 A1023.62 1023.62 0.0 0 0 48120.4 43228 " />
<path d="M49872.3 42519.3 A1016.21 1016.21 0.0 0 0 49586 42313 " />
<path d="M56591 44620
L58008 44620
" />
<path d="M56385 44334 A1016.21 1016.21 0.0 0 0 56591.3 44620.3 " />
<path d="M57300 42868.4 A1023.62 1023.62 0.0 0 0 56372.3 43459.4 " />
<path d="M58227.7 43459.4 A1023.62 1023.62 0.0 0 0 57300 42868.4 " />
<path d="M58008.7 44620.3 A1016.21 1016.21 0.0 0 0 58215 44334 " />
<path d="M35319 39880
L36736 39880
" />
<path d="M35113 39594 A1016.21 1016.21 0.0 0 0 35319.3 39880.3 " />
<path d="M36028 38128.4 A1023.62 1023.62 0.0 0 0 35100.3 38719.4 " />
<path d="M36955.7 38719.4 A1023.62 1023.62 0.0 0 0 36028 38128.4 " />
<path d="M36736.7 39880.3 A1016.21 1016.21 0.0 0 0 36943 39594 " />
</g> 
</svg>
