G04 #@! TF.FileFunction,Copper,L1,Top,Signal*
%FSLAX46Y46*%
G04 Gerber Fmt 4.6, Leading zero omitted, Abs format (unit mm)*
G04 Created by KiCad (PCBNEW 4.0.5) date 06/01/17 17:38:21*
%MOMM*%
%LPD*%
G01*
G04 APERTURE LIST*
%ADD10C,0.100000*%
%ADD11C,5.001260*%
%ADD12R,2.000000X2.500000*%
%ADD13R,1.000000X1.600000*%
%ADD14C,1.600000*%
%ADD15C,1.400000*%
%ADD16C,2.000000*%
%ADD17R,1.600000X1.600000*%
%ADD18R,3.500120X2.349500*%
%ADD19R,2.349500X3.500120*%
%ADD20O,1.600000X1.600000*%
%ADD21C,2.999740*%
%ADD22C,1.000000*%
%ADD23R,1.000000X1.000000*%
%ADD24C,1.800000*%
%ADD25O,2.000000X1.500000*%
%ADD26R,1.500000X2.000000*%
%ADD27O,1.500000X2.000000*%
%ADD28C,1.520000*%
%ADD29R,1.520000X1.520000*%
%ADD30C,0.250000*%
%ADD31C,0.254000*%
G04 APERTURE END LIST*
D10*
D11*
X163677600Y-102951280D03*
X163677600Y-113111280D03*
D12*
X90285320Y-114564160D03*
X86285320Y-114564160D03*
D13*
X97050600Y-116794280D03*
X100050600Y-116794280D03*
D14*
X113924080Y-107395000D03*
X113924080Y-112395000D03*
D15*
X125740800Y-116210080D03*
X123240800Y-116210080D03*
D16*
X140963000Y-115620800D03*
X148463000Y-115620800D03*
D14*
X157017720Y-102939840D03*
X157017720Y-107939840D03*
D17*
X123417960Y-100396040D03*
D14*
X125917960Y-100396040D03*
X141991080Y-105298240D03*
X146991080Y-107098240D03*
D18*
X90281760Y-104856280D03*
X90281760Y-110906560D03*
D19*
X110213140Y-112395000D03*
X104162860Y-112395000D03*
D14*
X96052640Y-100949760D03*
D20*
X96052640Y-113649760D03*
D14*
X100675440Y-112445800D03*
D20*
X100675440Y-102285800D03*
D14*
X118597680Y-116174520D03*
D20*
X118597680Y-106014520D03*
D14*
X107264200Y-100411280D03*
D20*
X117424200Y-100411280D03*
D14*
X136453880Y-106014520D03*
D20*
X136453880Y-116174520D03*
D14*
X141960600Y-100787200D03*
D20*
X131800600Y-100787200D03*
D14*
X152074880Y-102895400D03*
D20*
X152074880Y-113055400D03*
D21*
X163652200Y-94843600D03*
X153492200Y-94843600D03*
D22*
X130520440Y-111993680D03*
X129250440Y-110723680D03*
D23*
X131790440Y-110723680D03*
D17*
X81172040Y-100629720D03*
D14*
X86172040Y-100629720D03*
D17*
X81157440Y-108742480D03*
D14*
X83657440Y-108742480D03*
D24*
X88675200Y-94477840D03*
X91175200Y-94477840D03*
X93675200Y-94477840D03*
D25*
X122285760Y-109799120D03*
D26*
X124825760Y-112339120D03*
D27*
X124825760Y-107259120D03*
D28*
X145542000Y-111485680D03*
X148082000Y-111485680D03*
D29*
X143002000Y-111485680D03*
D28*
X91511120Y-99446080D03*
X94051120Y-99446080D03*
D29*
X88971120Y-99446080D03*
D30*
X163677600Y-102951280D02*
X163677600Y-94869000D01*
X163677600Y-94869000D02*
X163652200Y-94843600D01*
X94051120Y-99446080D02*
X89082880Y-94477840D01*
X89082880Y-94477840D02*
X88675200Y-94477840D01*
X148082000Y-111485680D02*
X153471880Y-111485680D01*
X153471880Y-111485680D02*
X157017720Y-107939840D01*
X124825760Y-107259120D02*
X124825760Y-101488240D01*
X124825760Y-101488240D02*
X125917960Y-100396040D01*
X157017720Y-107939840D02*
X158506160Y-107939840D01*
X158506160Y-107939840D02*
X163677600Y-113111280D01*
X125917960Y-100396040D02*
X127049330Y-100396040D01*
X127049330Y-100396040D02*
X129250440Y-102597150D01*
X129250440Y-110016574D02*
X129250440Y-110723680D01*
X129250440Y-102597150D02*
X129250440Y-110016574D01*
X90285320Y-114564160D02*
X90285320Y-114814160D01*
X90285320Y-114814160D02*
X93390441Y-117919281D01*
X93390441Y-117919281D02*
X98175599Y-117919281D01*
X98175599Y-117919281D02*
X99300600Y-116794280D01*
X99300600Y-116794280D02*
X100050600Y-116794280D01*
X90285320Y-114564160D02*
X90285320Y-110910120D01*
X90285320Y-110910120D02*
X90281760Y-110906560D01*
X100675440Y-112445800D02*
X104112060Y-112445800D01*
X104112060Y-112445800D02*
X104162860Y-112395000D01*
X100050600Y-116794280D02*
X100050600Y-113070640D01*
X100050600Y-113070640D02*
X100675440Y-112445800D01*
X86285320Y-114564160D02*
X86285320Y-111370360D01*
X86285320Y-111370360D02*
X83657440Y-108742480D01*
X86172040Y-100629720D02*
X83657440Y-103144320D01*
X83657440Y-103144320D02*
X83657440Y-108742480D01*
X91511120Y-99446080D02*
X91511120Y-100520882D01*
X91511120Y-100520882D02*
X96052640Y-105062402D01*
X96052640Y-105062402D02*
X96052640Y-112518390D01*
X96052640Y-112518390D02*
X96052640Y-113649760D01*
X97050600Y-116794280D02*
X97050600Y-114647720D01*
X97050600Y-114647720D02*
X96052640Y-113649760D01*
X122285760Y-109799120D02*
X122035760Y-109799120D01*
X122035760Y-109799120D02*
X118597680Y-106361040D01*
X118597680Y-106361040D02*
X118597680Y-106014520D01*
X113924080Y-107395000D02*
X117217200Y-107395000D01*
X117217200Y-107395000D02*
X118597680Y-106014520D01*
X110213140Y-112395000D02*
X111637890Y-112395000D01*
X111637890Y-112395000D02*
X113924080Y-112395000D01*
X136453880Y-116174520D02*
X134701280Y-116174520D01*
X134701280Y-116174520D02*
X130520440Y-111993680D01*
X125740800Y-116210080D02*
X129957200Y-111993680D01*
X129957200Y-111993680D02*
X130520440Y-111993680D01*
X124825760Y-112339120D02*
X124825760Y-114625120D01*
X124825760Y-114625120D02*
X123240800Y-116210080D01*
X117424200Y-100411280D02*
X123610770Y-106597850D01*
X123610770Y-106597850D02*
X123610770Y-109874130D01*
X123610770Y-109874130D02*
X124825760Y-111089120D01*
X124825760Y-111089120D02*
X124825760Y-112339120D01*
X123240800Y-116210080D02*
X118633240Y-116210080D01*
X118633240Y-116210080D02*
X118597680Y-116174520D01*
X152074880Y-113055400D02*
X147111720Y-113055400D01*
X147111720Y-113055400D02*
X145542000Y-111485680D01*
X145542000Y-111485680D02*
X141406880Y-115620800D01*
X141406880Y-115620800D02*
X140963000Y-115620800D01*
X136453880Y-106014520D02*
X139637999Y-109198639D01*
X139637999Y-109198639D02*
X139637999Y-116256801D01*
X139637999Y-116256801D02*
X140326999Y-116945801D01*
X140326999Y-116945801D02*
X147137999Y-116945801D01*
X147137999Y-116945801D02*
X147463001Y-116620799D01*
X147463001Y-116620799D02*
X148463000Y-115620800D01*
X136453880Y-106014520D02*
X131790440Y-110677960D01*
X131790440Y-110677960D02*
X131790440Y-110723680D01*
X131800600Y-100787200D02*
X131800600Y-110713520D01*
X131800600Y-110713520D02*
X131790440Y-110723680D01*
X143002000Y-111485680D02*
X143002000Y-110475680D01*
X143002000Y-110475680D02*
X146379440Y-107098240D01*
X146379440Y-107098240D02*
X146991080Y-107098240D01*
X146991080Y-107098240D02*
X151193920Y-102895400D01*
X151193920Y-102895400D02*
X152074880Y-102895400D01*
X152074880Y-102895400D02*
X152874879Y-102095401D01*
X156173281Y-102095401D02*
X156217721Y-102139841D01*
X156217721Y-102139841D02*
X157017720Y-102939840D01*
X152874879Y-102095401D02*
X156173281Y-102095401D01*
X147081240Y-107188400D02*
X146991080Y-107098240D01*
X153492200Y-94843600D02*
X127920400Y-94843600D01*
X127920400Y-94843600D02*
X123417960Y-99346040D01*
X123417960Y-99346040D02*
X123417960Y-100396040D01*
X153492200Y-94843600D02*
X147904200Y-94843600D01*
X147904200Y-94843600D02*
X141960600Y-100787200D01*
X141991080Y-105298240D02*
X141991080Y-100817680D01*
X141991080Y-100817680D02*
X141960600Y-100787200D01*
X123417960Y-100396040D02*
X122367960Y-100396040D01*
X121258199Y-99286279D02*
X108389201Y-99286279D01*
X122367960Y-100396040D02*
X121258199Y-99286279D01*
X108389201Y-99286279D02*
X108064199Y-99611281D01*
X108064199Y-99611281D02*
X107264200Y-100411280D01*
X107264200Y-100411280D02*
X102549960Y-100411280D01*
X102549960Y-100411280D02*
X100675440Y-102285800D01*
X100675440Y-102285800D02*
X93675200Y-95285560D01*
X93675200Y-95285560D02*
X93675200Y-94477840D01*
X88971120Y-99446080D02*
X86770680Y-99446080D01*
X86770680Y-99446080D02*
X86712041Y-99504719D01*
X90281760Y-104856280D02*
X90281760Y-103074438D01*
X81157440Y-108742480D02*
X81157440Y-100644320D01*
X81157440Y-100644320D02*
X81172040Y-100629720D01*
X90281760Y-103074438D02*
X86712041Y-99504719D01*
X86712041Y-99504719D02*
X83347041Y-99504719D01*
X83347041Y-99504719D02*
X82222040Y-100629720D01*
X82222040Y-100629720D02*
X81172040Y-100629720D01*
X96052640Y-100949760D02*
X96052640Y-99355280D01*
X96052640Y-99355280D02*
X91175200Y-94477840D01*
D31*
G36*
X87861052Y-93141197D02*
X87774646Y-93397681D01*
X88675200Y-94298235D01*
X89575754Y-93397681D01*
X89489348Y-93141197D01*
X89446061Y-93125360D01*
X90428835Y-93125360D01*
X90306829Y-93175772D01*
X89874649Y-93607197D01*
X89870906Y-93616212D01*
X89755359Y-93577286D01*
X88854805Y-94477840D01*
X89755359Y-95378394D01*
X89870414Y-95339633D01*
X89873132Y-95346211D01*
X90304557Y-95778391D01*
X90868530Y-96012573D01*
X91479191Y-96013105D01*
X91589913Y-95967355D01*
X93693624Y-98071066D01*
X93321179Y-98225338D01*
X93251961Y-98467316D01*
X94051120Y-99266475D01*
X94065263Y-99252333D01*
X94244868Y-99431938D01*
X94230725Y-99446080D01*
X94244868Y-99460223D01*
X94065263Y-99639828D01*
X94051120Y-99625685D01*
X93251961Y-100424844D01*
X93321179Y-100666822D01*
X93843900Y-100853235D01*
X94398169Y-100825421D01*
X94617828Y-100734435D01*
X94617392Y-101233947D01*
X94835397Y-101761560D01*
X95238717Y-102165584D01*
X95765949Y-102384510D01*
X96336827Y-102385008D01*
X96864440Y-102167003D01*
X97268464Y-101763683D01*
X97487390Y-101236451D01*
X97487888Y-100665573D01*
X97269883Y-100137960D01*
X96866563Y-99733936D01*
X96812640Y-99711545D01*
X96812640Y-99497802D01*
X99295536Y-101980698D01*
X99240440Y-102257687D01*
X99240440Y-102313913D01*
X99349673Y-102863064D01*
X99660742Y-103328611D01*
X100126289Y-103639680D01*
X100675440Y-103748913D01*
X101224591Y-103639680D01*
X101690138Y-103328611D01*
X102001207Y-102863064D01*
X102110440Y-102313913D01*
X102110440Y-102257687D01*
X102055344Y-101980698D01*
X102864762Y-101171280D01*
X106025554Y-101171280D01*
X106046957Y-101223080D01*
X106450277Y-101627104D01*
X106977509Y-101846030D01*
X107548387Y-101846528D01*
X108076000Y-101628523D01*
X108480024Y-101225203D01*
X108698950Y-100697971D01*
X108699448Y-100127093D01*
X108677151Y-100073131D01*
X108704003Y-100046279D01*
X116033690Y-100046279D01*
X115961087Y-100411280D01*
X116070320Y-100960431D01*
X116381389Y-101425978D01*
X116846936Y-101737047D01*
X117396087Y-101846280D01*
X117452313Y-101846280D01*
X117729302Y-101791184D01*
X122850770Y-106912652D01*
X122850770Y-108470408D01*
X122567792Y-108414120D01*
X122003728Y-108414120D01*
X121771713Y-108460271D01*
X119915348Y-106603906D01*
X119923447Y-106591784D01*
X120032680Y-106042633D01*
X120032680Y-105986407D01*
X119923447Y-105437256D01*
X119612378Y-104971709D01*
X119146831Y-104660640D01*
X118597680Y-104551407D01*
X118048529Y-104660640D01*
X117582982Y-104971709D01*
X117271913Y-105437256D01*
X117162680Y-105986407D01*
X117162680Y-106042633D01*
X117217776Y-106319622D01*
X116902398Y-106635000D01*
X115162726Y-106635000D01*
X115141323Y-106583200D01*
X114738003Y-106179176D01*
X114210771Y-105960250D01*
X113639893Y-105959752D01*
X113112280Y-106177757D01*
X112708256Y-106581077D01*
X112489330Y-107108309D01*
X112488832Y-107679187D01*
X112706837Y-108206800D01*
X113110157Y-108610824D01*
X113637389Y-108829750D01*
X114208267Y-108830248D01*
X114735880Y-108612243D01*
X115139904Y-108208923D01*
X115162295Y-108155000D01*
X117217200Y-108155000D01*
X117508039Y-108097148D01*
X117754601Y-107932401D01*
X118273794Y-107413208D01*
X118597680Y-107477633D01*
X118632537Y-107470699D01*
X120675508Y-109513670D01*
X120618728Y-109799120D01*
X120724155Y-110329137D01*
X121024385Y-110778463D01*
X121473711Y-111078693D01*
X122003728Y-111184120D01*
X122567792Y-111184120D01*
X123097809Y-111078693D01*
X123483093Y-110821255D01*
X123588821Y-110926983D01*
X123479329Y-111087230D01*
X123428320Y-111339120D01*
X123428320Y-113339120D01*
X123472598Y-113574437D01*
X123611670Y-113790561D01*
X123823870Y-113935551D01*
X124065760Y-113984535D01*
X124065760Y-114310318D01*
X123500772Y-114875306D01*
X122976417Y-114874849D01*
X122485571Y-115077662D01*
X122112503Y-115450080D01*
X119851019Y-115450080D01*
X119814923Y-115362720D01*
X119411603Y-114958696D01*
X118884371Y-114739770D01*
X118313493Y-114739272D01*
X117785880Y-114957277D01*
X117381856Y-115360597D01*
X117162930Y-115887829D01*
X117162432Y-116458707D01*
X117380437Y-116986320D01*
X117783757Y-117390344D01*
X118310989Y-117609270D01*
X118881867Y-117609768D01*
X119409480Y-117391763D01*
X119813504Y-116988443D01*
X119821129Y-116970080D01*
X122113145Y-116970080D01*
X122483596Y-117341178D01*
X122974087Y-117544848D01*
X123505183Y-117545311D01*
X123996029Y-117342498D01*
X124371898Y-116967284D01*
X124490841Y-116680838D01*
X124608382Y-116965309D01*
X124983596Y-117341178D01*
X125474087Y-117544848D01*
X126005183Y-117545311D01*
X126496029Y-117342498D01*
X126871898Y-116967284D01*
X127075568Y-116476793D01*
X127076028Y-115949654D01*
X130013530Y-113012152D01*
X130293684Y-113128483D01*
X130580691Y-113128733D01*
X134163879Y-116711921D01*
X134410441Y-116876668D01*
X134701280Y-116934520D01*
X135250213Y-116934520D01*
X135439182Y-117217331D01*
X135904729Y-117528400D01*
X136453880Y-117637633D01*
X137003031Y-117528400D01*
X137468578Y-117217331D01*
X137779647Y-116751784D01*
X137888880Y-116202633D01*
X137888880Y-116146407D01*
X137779647Y-115597256D01*
X137468578Y-115131709D01*
X137003031Y-114820640D01*
X136453880Y-114711407D01*
X135904729Y-114820640D01*
X135439182Y-115131709D01*
X135250213Y-115414520D01*
X135016082Y-115414520D01*
X131655388Y-112053826D01*
X131655548Y-111871120D01*
X132290440Y-111871120D01*
X132525757Y-111826842D01*
X132741881Y-111687770D01*
X132886871Y-111475570D01*
X132937880Y-111223680D01*
X132937880Y-110605322D01*
X136115426Y-107427776D01*
X136167189Y-107449270D01*
X136738067Y-107449768D01*
X136792029Y-107427471D01*
X138877999Y-109513441D01*
X138877999Y-116256801D01*
X138935851Y-116547640D01*
X139100598Y-116794202D01*
X139789598Y-117483202D01*
X140036160Y-117647949D01*
X140326999Y-117705801D01*
X147137999Y-117705801D01*
X147428838Y-117647949D01*
X147675400Y-117483202D01*
X147971527Y-117187075D01*
X148136352Y-117255516D01*
X148786795Y-117256084D01*
X149387943Y-117007694D01*
X149848278Y-116548163D01*
X150097716Y-115947448D01*
X150098239Y-115347616D01*
X161620870Y-115347616D01*
X161902642Y-115770364D01*
X163055341Y-116247200D01*
X164302772Y-116246620D01*
X165452558Y-115770364D01*
X165734330Y-115347616D01*
X163677600Y-113290885D01*
X161620870Y-115347616D01*
X150098239Y-115347616D01*
X150098284Y-115297005D01*
X149849894Y-114695857D01*
X149390363Y-114235522D01*
X148789648Y-113986084D01*
X148139205Y-113985516D01*
X147538057Y-114233906D01*
X147077722Y-114693437D01*
X146828284Y-115294152D01*
X146827716Y-115944595D01*
X146896919Y-116112079D01*
X146823197Y-116185801D01*
X142498743Y-116185801D01*
X142597716Y-115947448D01*
X142598103Y-115504379D01*
X145234149Y-112868333D01*
X145263300Y-112880438D01*
X145818265Y-112880922D01*
X145849524Y-112868006D01*
X146574319Y-113592801D01*
X146820880Y-113757548D01*
X147111720Y-113815400D01*
X150871213Y-113815400D01*
X151060182Y-114098211D01*
X151525729Y-114409280D01*
X152074880Y-114518513D01*
X152624031Y-114409280D01*
X153089578Y-114098211D01*
X153400647Y-113632664D01*
X153509880Y-113083513D01*
X153509880Y-113027287D01*
X153402813Y-112489021D01*
X160541680Y-112489021D01*
X160542260Y-113736452D01*
X161018516Y-114886238D01*
X161441264Y-115168010D01*
X163497995Y-113111280D01*
X163857205Y-113111280D01*
X165913936Y-115168010D01*
X166336684Y-114886238D01*
X166813520Y-113733539D01*
X166812940Y-112486108D01*
X166336684Y-111336322D01*
X165913936Y-111054550D01*
X163857205Y-113111280D01*
X163497995Y-113111280D01*
X161441264Y-111054550D01*
X161018516Y-111336322D01*
X160541680Y-112489021D01*
X153402813Y-112489021D01*
X153400647Y-112478136D01*
X153089578Y-112012589D01*
X152624031Y-111701520D01*
X152074880Y-111592287D01*
X151525729Y-111701520D01*
X151060182Y-112012589D01*
X150871213Y-112295400D01*
X149071328Y-112295400D01*
X149060766Y-112284838D01*
X149302742Y-112215621D01*
X149489155Y-111692900D01*
X149461341Y-111138631D01*
X149352119Y-110874944D01*
X161620870Y-110874944D01*
X163677600Y-112931675D01*
X165734330Y-110874944D01*
X165452558Y-110452196D01*
X164299859Y-109975360D01*
X163052428Y-109975940D01*
X161902642Y-110452196D01*
X161620870Y-110874944D01*
X149352119Y-110874944D01*
X149302742Y-110755739D01*
X149060764Y-110686521D01*
X148261605Y-111485680D01*
X148275748Y-111499823D01*
X148096143Y-111679428D01*
X148082000Y-111665285D01*
X148067858Y-111679428D01*
X147888253Y-111499823D01*
X147902395Y-111485680D01*
X147103236Y-110686521D01*
X146861258Y-110755739D01*
X146809618Y-110900542D01*
X146725313Y-110696508D01*
X146536052Y-110506916D01*
X147282841Y-110506916D01*
X148082000Y-111306075D01*
X148881159Y-110506916D01*
X148811941Y-110264938D01*
X148289220Y-110078525D01*
X147734951Y-110106339D01*
X147352059Y-110264938D01*
X147282841Y-110506916D01*
X146536052Y-110506916D01*
X146333236Y-110303746D01*
X145820700Y-110090922D01*
X145265735Y-110090438D01*
X144752828Y-110302367D01*
X144396684Y-110657890D01*
X144365162Y-110490363D01*
X144246510Y-110305972D01*
X145604897Y-108947585D01*
X156189581Y-108947585D01*
X156263715Y-109193704D01*
X156800943Y-109386805D01*
X157371174Y-109359618D01*
X157771725Y-109193704D01*
X157845859Y-108947585D01*
X157017720Y-108119445D01*
X156189581Y-108947585D01*
X145604897Y-108947585D01*
X146220444Y-108332038D01*
X146704389Y-108532990D01*
X147275267Y-108533488D01*
X147802880Y-108315483D01*
X148206904Y-107912163D01*
X148285425Y-107723063D01*
X155570755Y-107723063D01*
X155597942Y-108293294D01*
X155763856Y-108693845D01*
X156009975Y-108767979D01*
X156838115Y-107939840D01*
X157197325Y-107939840D01*
X158025465Y-108767979D01*
X158271584Y-108693845D01*
X158464685Y-108156617D01*
X158437498Y-107586386D01*
X158271584Y-107185835D01*
X158025465Y-107111701D01*
X157197325Y-107939840D01*
X156838115Y-107939840D01*
X156009975Y-107111701D01*
X155763856Y-107185835D01*
X155570755Y-107723063D01*
X148285425Y-107723063D01*
X148425830Y-107384931D01*
X148426225Y-106932095D01*
X156189581Y-106932095D01*
X157017720Y-107760235D01*
X157845859Y-106932095D01*
X157771725Y-106685976D01*
X157234497Y-106492875D01*
X156664266Y-106520062D01*
X156263715Y-106685976D01*
X156189581Y-106932095D01*
X148426225Y-106932095D01*
X148426328Y-106814053D01*
X148404031Y-106760091D01*
X151157018Y-104007104D01*
X151260957Y-104111224D01*
X151788189Y-104330150D01*
X152359067Y-104330648D01*
X152886680Y-104112643D01*
X153290704Y-103709323D01*
X153509630Y-103182091D01*
X153509915Y-102855401D01*
X155582794Y-102855401D01*
X155582472Y-103224027D01*
X155800477Y-103751640D01*
X156203797Y-104155664D01*
X156731029Y-104374590D01*
X157301907Y-104375088D01*
X157829520Y-104157083D01*
X158233544Y-103753763D01*
X158452470Y-103226531D01*
X158452968Y-102655653D01*
X158234963Y-102128040D01*
X157831643Y-101724016D01*
X157304411Y-101505090D01*
X156733533Y-101504592D01*
X156670024Y-101530833D01*
X156464120Y-101393253D01*
X156173281Y-101335401D01*
X152874879Y-101335401D01*
X152651466Y-101379841D01*
X152584039Y-101393253D01*
X152436567Y-101491791D01*
X152361571Y-101460650D01*
X151790693Y-101460152D01*
X151263080Y-101678157D01*
X150859056Y-102081477D01*
X150777916Y-102276884D01*
X150656519Y-102357999D01*
X147329534Y-105684984D01*
X147277771Y-105663490D01*
X146706893Y-105662992D01*
X146179280Y-105880997D01*
X145775256Y-106284317D01*
X145556330Y-106811549D01*
X145556299Y-106846579D01*
X142464599Y-109938279D01*
X142371080Y-110078240D01*
X142242000Y-110078240D01*
X142006683Y-110122518D01*
X141790559Y-110261590D01*
X141645569Y-110473790D01*
X141594560Y-110725680D01*
X141594560Y-112245680D01*
X141638838Y-112480997D01*
X141777910Y-112697121D01*
X141990110Y-112842111D01*
X142242000Y-112893120D01*
X143059758Y-112893120D01*
X141768117Y-114184761D01*
X141289648Y-113986084D01*
X140639205Y-113985516D01*
X140397999Y-114085181D01*
X140397999Y-109198639D01*
X140375269Y-109084370D01*
X140340147Y-108907799D01*
X140175400Y-108661238D01*
X137867136Y-106352974D01*
X137888630Y-106301211D01*
X137889128Y-105730333D01*
X137671123Y-105202720D01*
X137267803Y-104798696D01*
X136740571Y-104579770D01*
X136169693Y-104579272D01*
X135642080Y-104797277D01*
X135238056Y-105200597D01*
X135019130Y-105727829D01*
X135018632Y-106298707D01*
X135040929Y-106352669D01*
X132560600Y-108832998D01*
X132560600Y-101990867D01*
X132843411Y-101801898D01*
X133154480Y-101336351D01*
X133263713Y-100787200D01*
X133154480Y-100238049D01*
X132843411Y-99772502D01*
X132377864Y-99461433D01*
X131828713Y-99352200D01*
X131772487Y-99352200D01*
X131223336Y-99461433D01*
X130757789Y-99772502D01*
X130446720Y-100238049D01*
X130337487Y-100787200D01*
X130446720Y-101336351D01*
X130757789Y-101801898D01*
X131040600Y-101990867D01*
X131040600Y-109629863D01*
X130838999Y-109759590D01*
X130694009Y-109971790D01*
X130643000Y-110223680D01*
X130643000Y-110858786D01*
X130397834Y-110858572D01*
X130366657Y-110418305D01*
X130255657Y-110150328D01*
X130040544Y-110113181D01*
X129430045Y-110723680D01*
X129444188Y-110737823D01*
X129264583Y-110917428D01*
X129250440Y-110903285D01*
X128639941Y-111513784D01*
X128677088Y-111728897D01*
X129029583Y-111846495D01*
X126000772Y-114875306D01*
X125536075Y-114874901D01*
X125585760Y-114625120D01*
X125585760Y-113984678D01*
X125811077Y-113942282D01*
X126027201Y-113803210D01*
X126172191Y-113591010D01*
X126223200Y-113339120D01*
X126223200Y-111339120D01*
X126178922Y-111103803D01*
X126039850Y-110887679D01*
X125827650Y-110742689D01*
X125575760Y-110691680D01*
X125456680Y-110691680D01*
X125381158Y-110578652D01*
X128102328Y-110578652D01*
X128134223Y-111029055D01*
X128245223Y-111297032D01*
X128460336Y-111334179D01*
X129070835Y-110723680D01*
X128460336Y-110113181D01*
X128245223Y-110150328D01*
X128102328Y-110578652D01*
X125381158Y-110578652D01*
X125363161Y-110551719D01*
X124745018Y-109933576D01*
X128639941Y-109933576D01*
X129250440Y-110544075D01*
X129860939Y-109933576D01*
X129823792Y-109718463D01*
X129395468Y-109575568D01*
X128945065Y-109607463D01*
X128677088Y-109718463D01*
X128639941Y-109933576D01*
X124745018Y-109933576D01*
X124370770Y-109559328D01*
X124370770Y-108826440D01*
X124381525Y-108832601D01*
X124484575Y-108851438D01*
X124698760Y-108728776D01*
X124698760Y-107386120D01*
X124952760Y-107386120D01*
X124952760Y-108728776D01*
X125166945Y-108851438D01*
X125269995Y-108832601D01*
X125742654Y-108561856D01*
X126075724Y-108130841D01*
X126218499Y-107605175D01*
X126057628Y-107386120D01*
X124952760Y-107386120D01*
X124698760Y-107386120D01*
X124678760Y-107386120D01*
X124678760Y-107132120D01*
X124698760Y-107132120D01*
X124698760Y-105789464D01*
X124952760Y-105789464D01*
X124952760Y-107132120D01*
X126057628Y-107132120D01*
X126218499Y-106913065D01*
X126075724Y-106387399D01*
X125742654Y-105956384D01*
X125269995Y-105685639D01*
X125166945Y-105666802D01*
X124952760Y-105789464D01*
X124698760Y-105789464D01*
X124484575Y-105666802D01*
X124381525Y-105685639D01*
X123994852Y-105907130D01*
X118822888Y-100735166D01*
X118887313Y-100411280D01*
X118814710Y-100046279D01*
X120943397Y-100046279D01*
X121830559Y-100933441D01*
X121970520Y-101026960D01*
X121970520Y-101196040D01*
X122014798Y-101431357D01*
X122153870Y-101647481D01*
X122366070Y-101792471D01*
X122617960Y-101843480D01*
X124217960Y-101843480D01*
X124453277Y-101799202D01*
X124669401Y-101660130D01*
X124814391Y-101447930D01*
X124823330Y-101403785D01*
X125089821Y-101403785D01*
X125163955Y-101649904D01*
X125701183Y-101843005D01*
X126271414Y-101815818D01*
X126671965Y-101649904D01*
X126746099Y-101403785D01*
X125917960Y-100575645D01*
X125089821Y-101403785D01*
X124823330Y-101403785D01*
X124862606Y-101209839D01*
X124910215Y-101224179D01*
X125738355Y-100396040D01*
X126097565Y-100396040D01*
X126925705Y-101224179D01*
X127171824Y-101150045D01*
X127364925Y-100612817D01*
X127337738Y-100042586D01*
X127171824Y-99642035D01*
X126925705Y-99567901D01*
X126097565Y-100396040D01*
X125738355Y-100396040D01*
X124910215Y-99567901D01*
X124862793Y-99582185D01*
X124826311Y-99388295D01*
X125089821Y-99388295D01*
X125917960Y-100216435D01*
X126746099Y-99388295D01*
X126671965Y-99142176D01*
X126134737Y-98949075D01*
X125564506Y-98976262D01*
X125163955Y-99142176D01*
X125089821Y-99388295D01*
X124826311Y-99388295D01*
X124821122Y-99360723D01*
X124686808Y-99151994D01*
X128235202Y-95603600D01*
X146069398Y-95603600D01*
X142299054Y-99373944D01*
X142247291Y-99352450D01*
X141676413Y-99351952D01*
X141148800Y-99569957D01*
X140744776Y-99973277D01*
X140525850Y-100500509D01*
X140525352Y-101071387D01*
X140743357Y-101599000D01*
X141146677Y-102003024D01*
X141231080Y-102038071D01*
X141231080Y-104059594D01*
X141179280Y-104080997D01*
X140775256Y-104484317D01*
X140556330Y-105011549D01*
X140555832Y-105582427D01*
X140773837Y-106110040D01*
X141177157Y-106514064D01*
X141704389Y-106732990D01*
X142275267Y-106733488D01*
X142802880Y-106515483D01*
X143206904Y-106112163D01*
X143425830Y-105584931D01*
X143426328Y-105014053D01*
X143208323Y-104486440D01*
X142805003Y-104082416D01*
X142751080Y-104060025D01*
X142751080Y-102013252D01*
X142772400Y-102004443D01*
X143176424Y-101601123D01*
X143395350Y-101073891D01*
X143395848Y-100503013D01*
X143373551Y-100449051D01*
X148219002Y-95603600D01*
X151496293Y-95603600D01*
X151681290Y-96051327D01*
X152281314Y-96652400D01*
X153065685Y-96978099D01*
X153914989Y-96978840D01*
X154699927Y-96654510D01*
X155301000Y-96054486D01*
X155626699Y-95270115D01*
X155627440Y-94420811D01*
X155303110Y-93635873D01*
X154793488Y-93125360D01*
X162351641Y-93125360D01*
X161843400Y-93632714D01*
X161517701Y-94417085D01*
X161516960Y-95266389D01*
X161841290Y-96051327D01*
X162441314Y-96652400D01*
X162917600Y-96850171D01*
X162917600Y-99872549D01*
X161903729Y-100291472D01*
X161020892Y-101172769D01*
X160542515Y-102324828D01*
X160541427Y-103572259D01*
X161017792Y-104725151D01*
X161899089Y-105607988D01*
X163051148Y-106086365D01*
X164298579Y-106087453D01*
X165451471Y-105611088D01*
X166334308Y-104729791D01*
X166812685Y-103577732D01*
X166813773Y-102330301D01*
X166337408Y-101177409D01*
X165456111Y-100294572D01*
X164437600Y-99871649D01*
X164437600Y-96829012D01*
X164859927Y-96654510D01*
X165461000Y-96054486D01*
X165786699Y-95270115D01*
X165787440Y-94420811D01*
X165463110Y-93635873D01*
X164953488Y-93125360D01*
X168606400Y-93125360D01*
X168606400Y-118817320D01*
X79500933Y-118817320D01*
X79502969Y-107942480D01*
X79710000Y-107942480D01*
X79710000Y-109542480D01*
X79754278Y-109777797D01*
X79893350Y-109993921D01*
X80105550Y-110138911D01*
X80357440Y-110189920D01*
X81957440Y-110189920D01*
X82192757Y-110145642D01*
X82408881Y-110006570D01*
X82553871Y-109794370D01*
X82575120Y-109689439D01*
X82843517Y-109958304D01*
X83370749Y-110177230D01*
X83941627Y-110177728D01*
X83995589Y-110155431D01*
X85525320Y-111685162D01*
X85525320Y-112666720D01*
X85285320Y-112666720D01*
X85050003Y-112710998D01*
X84833879Y-112850070D01*
X84688889Y-113062270D01*
X84637880Y-113314160D01*
X84637880Y-115814160D01*
X84682158Y-116049477D01*
X84821230Y-116265601D01*
X85033430Y-116410591D01*
X85285320Y-116461600D01*
X87285320Y-116461600D01*
X87520637Y-116417322D01*
X87736761Y-116278250D01*
X87881751Y-116066050D01*
X87932760Y-115814160D01*
X87932760Y-113314160D01*
X87888482Y-113078843D01*
X87749410Y-112862719D01*
X87537210Y-112717729D01*
X87285320Y-112666720D01*
X87045320Y-112666720D01*
X87045320Y-111370360D01*
X86987468Y-111079521D01*
X86822721Y-110832959D01*
X85070696Y-109080934D01*
X85092190Y-109029171D01*
X85092688Y-108458293D01*
X84874683Y-107930680D01*
X84471363Y-107526656D01*
X84417440Y-107504265D01*
X84417440Y-103459122D01*
X85833586Y-102042976D01*
X85885349Y-102064470D01*
X86456227Y-102064968D01*
X86983840Y-101846963D01*
X87387864Y-101443643D01*
X87443112Y-101310592D01*
X89166610Y-103034090D01*
X88531700Y-103034090D01*
X88296383Y-103078368D01*
X88080259Y-103217440D01*
X87935269Y-103429640D01*
X87884260Y-103681530D01*
X87884260Y-106031030D01*
X87928538Y-106266347D01*
X88067610Y-106482471D01*
X88279810Y-106627461D01*
X88531700Y-106678470D01*
X92031820Y-106678470D01*
X92267137Y-106634192D01*
X92483261Y-106495120D01*
X92628251Y-106282920D01*
X92679260Y-106031030D01*
X92679260Y-103681530D01*
X92634982Y-103446213D01*
X92495910Y-103230089D01*
X92283710Y-103085099D01*
X92031820Y-103034090D01*
X91033734Y-103034090D01*
X90983908Y-102783599D01*
X90819161Y-102537037D01*
X89135644Y-100853520D01*
X89731120Y-100853520D01*
X89966437Y-100809242D01*
X90182561Y-100670170D01*
X90327551Y-100457970D01*
X90365089Y-100272600D01*
X90719884Y-100628014D01*
X90777161Y-100651798D01*
X90808972Y-100811721D01*
X90973719Y-101058283D01*
X95292640Y-105377204D01*
X95292640Y-112436765D01*
X95037942Y-112606949D01*
X94726873Y-113072496D01*
X94617640Y-113621647D01*
X94617640Y-113677873D01*
X94726873Y-114227024D01*
X95037942Y-114692571D01*
X95503489Y-115003640D01*
X96052640Y-115112873D01*
X96290600Y-115065540D01*
X96290600Y-115407001D01*
X96099159Y-115530190D01*
X95954169Y-115742390D01*
X95903160Y-115994280D01*
X95903160Y-117159281D01*
X93705243Y-117159281D01*
X91932760Y-115386798D01*
X91932760Y-113314160D01*
X91888482Y-113078843D01*
X91749410Y-112862719D01*
X91553340Y-112728750D01*
X92031820Y-112728750D01*
X92267137Y-112684472D01*
X92483261Y-112545400D01*
X92628251Y-112333200D01*
X92679260Y-112081310D01*
X92679260Y-109731810D01*
X92634982Y-109496493D01*
X92495910Y-109280369D01*
X92283710Y-109135379D01*
X92031820Y-109084370D01*
X88531700Y-109084370D01*
X88296383Y-109128648D01*
X88080259Y-109267720D01*
X87935269Y-109479920D01*
X87884260Y-109731810D01*
X87884260Y-112081310D01*
X87928538Y-112316627D01*
X88067610Y-112532751D01*
X88279810Y-112677741D01*
X88531700Y-112728750D01*
X89022416Y-112728750D01*
X88833879Y-112850070D01*
X88688889Y-113062270D01*
X88637880Y-113314160D01*
X88637880Y-115814160D01*
X88682158Y-116049477D01*
X88821230Y-116265601D01*
X89033430Y-116410591D01*
X89285320Y-116461600D01*
X90857958Y-116461600D01*
X92853040Y-118456682D01*
X93099601Y-118621429D01*
X93390441Y-118679281D01*
X98175599Y-118679281D01*
X98466438Y-118621429D01*
X98713000Y-118456682D01*
X99108759Y-118060923D01*
X99298710Y-118190711D01*
X99550600Y-118241720D01*
X100550600Y-118241720D01*
X100785917Y-118197442D01*
X101002041Y-118058370D01*
X101147031Y-117846170D01*
X101198040Y-117594280D01*
X101198040Y-115994280D01*
X101153762Y-115758963D01*
X101014690Y-115542839D01*
X100810600Y-115403390D01*
X100810600Y-113880918D01*
X100959627Y-113881048D01*
X101487240Y-113663043D01*
X101891264Y-113259723D01*
X101913655Y-113205800D01*
X102340670Y-113205800D01*
X102340670Y-114145060D01*
X102384948Y-114380377D01*
X102524020Y-114596501D01*
X102736220Y-114741491D01*
X102988110Y-114792500D01*
X105337610Y-114792500D01*
X105572927Y-114748222D01*
X105789051Y-114609150D01*
X105934041Y-114396950D01*
X105985050Y-114145060D01*
X105985050Y-110644940D01*
X108390950Y-110644940D01*
X108390950Y-114145060D01*
X108435228Y-114380377D01*
X108574300Y-114596501D01*
X108786500Y-114741491D01*
X109038390Y-114792500D01*
X111387890Y-114792500D01*
X111623207Y-114748222D01*
X111839331Y-114609150D01*
X111984321Y-114396950D01*
X112035330Y-114145060D01*
X112035330Y-113155000D01*
X112685434Y-113155000D01*
X112706837Y-113206800D01*
X113110157Y-113610824D01*
X113637389Y-113829750D01*
X114208267Y-113830248D01*
X114735880Y-113612243D01*
X115139904Y-113208923D01*
X115358830Y-112681691D01*
X115359328Y-112110813D01*
X115141323Y-111583200D01*
X114738003Y-111179176D01*
X114210771Y-110960250D01*
X113639893Y-110959752D01*
X113112280Y-111177757D01*
X112708256Y-111581077D01*
X112685865Y-111635000D01*
X112035330Y-111635000D01*
X112035330Y-110644940D01*
X111991052Y-110409623D01*
X111851980Y-110193499D01*
X111639780Y-110048509D01*
X111387890Y-109997500D01*
X109038390Y-109997500D01*
X108803073Y-110041778D01*
X108586949Y-110180850D01*
X108441959Y-110393050D01*
X108390950Y-110644940D01*
X105985050Y-110644940D01*
X105940772Y-110409623D01*
X105801700Y-110193499D01*
X105589500Y-110048509D01*
X105337610Y-109997500D01*
X102988110Y-109997500D01*
X102752793Y-110041778D01*
X102536669Y-110180850D01*
X102391679Y-110393050D01*
X102340670Y-110644940D01*
X102340670Y-111685800D01*
X101914086Y-111685800D01*
X101892683Y-111634000D01*
X101489363Y-111229976D01*
X100962131Y-111011050D01*
X100391253Y-111010552D01*
X99863640Y-111228557D01*
X99459616Y-111631877D01*
X99240690Y-112159109D01*
X99240192Y-112729987D01*
X99319960Y-112923040D01*
X99290600Y-113070640D01*
X99290600Y-115407001D01*
X99099159Y-115530190D01*
X98954169Y-115742390D01*
X98903160Y-115994280D01*
X98903160Y-116163360D01*
X98763199Y-116256879D01*
X98198040Y-116822038D01*
X98198040Y-115994280D01*
X98153762Y-115758963D01*
X98014690Y-115542839D01*
X97810600Y-115403390D01*
X97810600Y-114647720D01*
X97752748Y-114356881D01*
X97588001Y-114110319D01*
X97432544Y-113954862D01*
X97487640Y-113677873D01*
X97487640Y-113621647D01*
X97378407Y-113072496D01*
X97067338Y-112606949D01*
X96812640Y-112436765D01*
X96812640Y-105062402D01*
X96794600Y-104971709D01*
X96754788Y-104771562D01*
X96590041Y-104525001D01*
X92497535Y-100432495D01*
X92693054Y-100237316D01*
X92774511Y-100041146D01*
X92830378Y-100176021D01*
X93072356Y-100245239D01*
X93871515Y-99446080D01*
X93072356Y-98646921D01*
X92830378Y-98716139D01*
X92778738Y-98860942D01*
X92694433Y-98656908D01*
X92302356Y-98264146D01*
X91789820Y-98051322D01*
X91234855Y-98050838D01*
X90721948Y-98262767D01*
X90365804Y-98618290D01*
X90334282Y-98450763D01*
X90195210Y-98234639D01*
X89983010Y-98089649D01*
X89731120Y-98038640D01*
X88211120Y-98038640D01*
X87975803Y-98082918D01*
X87759679Y-98221990D01*
X87614689Y-98434190D01*
X87563680Y-98686080D01*
X86770680Y-98686080D01*
X86479841Y-98743932D01*
X86478663Y-98744719D01*
X83347041Y-98744719D01*
X83056202Y-98802571D01*
X82809640Y-98967318D01*
X82413881Y-99363077D01*
X82223930Y-99233289D01*
X81972040Y-99182280D01*
X80372040Y-99182280D01*
X80136723Y-99226558D01*
X79920599Y-99365630D01*
X79775609Y-99577830D01*
X79724600Y-99829720D01*
X79724600Y-101429720D01*
X79768878Y-101665037D01*
X79907950Y-101881161D01*
X80120150Y-102026151D01*
X80372040Y-102077160D01*
X80397440Y-102077160D01*
X80397440Y-107295040D01*
X80357440Y-107295040D01*
X80122123Y-107339318D01*
X79905999Y-107478390D01*
X79761009Y-107690590D01*
X79710000Y-107942480D01*
X79502969Y-107942480D01*
X79505288Y-95557999D01*
X87774646Y-95557999D01*
X87861052Y-95814483D01*
X88434536Y-96024298D01*
X89044660Y-95998679D01*
X89489348Y-95814483D01*
X89575754Y-95557999D01*
X88675200Y-94657445D01*
X87774646Y-95557999D01*
X79505288Y-95557999D01*
X79505536Y-94237176D01*
X87128742Y-94237176D01*
X87154361Y-94847300D01*
X87338557Y-95291988D01*
X87595041Y-95378394D01*
X88495595Y-94477840D01*
X87595041Y-93577286D01*
X87338557Y-93663692D01*
X87128742Y-94237176D01*
X79505536Y-94237176D01*
X79505745Y-93125360D01*
X87899286Y-93125360D01*
X87861052Y-93141197D01*
X87861052Y-93141197D01*
G37*
X87861052Y-93141197D02*
X87774646Y-93397681D01*
X88675200Y-94298235D01*
X89575754Y-93397681D01*
X89489348Y-93141197D01*
X89446061Y-93125360D01*
X90428835Y-93125360D01*
X90306829Y-93175772D01*
X89874649Y-93607197D01*
X89870906Y-93616212D01*
X89755359Y-93577286D01*
X88854805Y-94477840D01*
X89755359Y-95378394D01*
X89870414Y-95339633D01*
X89873132Y-95346211D01*
X90304557Y-95778391D01*
X90868530Y-96012573D01*
X91479191Y-96013105D01*
X91589913Y-95967355D01*
X93693624Y-98071066D01*
X93321179Y-98225338D01*
X93251961Y-98467316D01*
X94051120Y-99266475D01*
X94065263Y-99252333D01*
X94244868Y-99431938D01*
X94230725Y-99446080D01*
X94244868Y-99460223D01*
X94065263Y-99639828D01*
X94051120Y-99625685D01*
X93251961Y-100424844D01*
X93321179Y-100666822D01*
X93843900Y-100853235D01*
X94398169Y-100825421D01*
X94617828Y-100734435D01*
X94617392Y-101233947D01*
X94835397Y-101761560D01*
X95238717Y-102165584D01*
X95765949Y-102384510D01*
X96336827Y-102385008D01*
X96864440Y-102167003D01*
X97268464Y-101763683D01*
X97487390Y-101236451D01*
X97487888Y-100665573D01*
X97269883Y-100137960D01*
X96866563Y-99733936D01*
X96812640Y-99711545D01*
X96812640Y-99497802D01*
X99295536Y-101980698D01*
X99240440Y-102257687D01*
X99240440Y-102313913D01*
X99349673Y-102863064D01*
X99660742Y-103328611D01*
X100126289Y-103639680D01*
X100675440Y-103748913D01*
X101224591Y-103639680D01*
X101690138Y-103328611D01*
X102001207Y-102863064D01*
X102110440Y-102313913D01*
X102110440Y-102257687D01*
X102055344Y-101980698D01*
X102864762Y-101171280D01*
X106025554Y-101171280D01*
X106046957Y-101223080D01*
X106450277Y-101627104D01*
X106977509Y-101846030D01*
X107548387Y-101846528D01*
X108076000Y-101628523D01*
X108480024Y-101225203D01*
X108698950Y-100697971D01*
X108699448Y-100127093D01*
X108677151Y-100073131D01*
X108704003Y-100046279D01*
X116033690Y-100046279D01*
X115961087Y-100411280D01*
X116070320Y-100960431D01*
X116381389Y-101425978D01*
X116846936Y-101737047D01*
X117396087Y-101846280D01*
X117452313Y-101846280D01*
X117729302Y-101791184D01*
X122850770Y-106912652D01*
X122850770Y-108470408D01*
X122567792Y-108414120D01*
X122003728Y-108414120D01*
X121771713Y-108460271D01*
X119915348Y-106603906D01*
X119923447Y-106591784D01*
X120032680Y-106042633D01*
X120032680Y-105986407D01*
X119923447Y-105437256D01*
X119612378Y-104971709D01*
X119146831Y-104660640D01*
X118597680Y-104551407D01*
X118048529Y-104660640D01*
X117582982Y-104971709D01*
X117271913Y-105437256D01*
X117162680Y-105986407D01*
X117162680Y-106042633D01*
X117217776Y-106319622D01*
X116902398Y-106635000D01*
X115162726Y-106635000D01*
X115141323Y-106583200D01*
X114738003Y-106179176D01*
X114210771Y-105960250D01*
X113639893Y-105959752D01*
X113112280Y-106177757D01*
X112708256Y-106581077D01*
X112489330Y-107108309D01*
X112488832Y-107679187D01*
X112706837Y-108206800D01*
X113110157Y-108610824D01*
X113637389Y-108829750D01*
X114208267Y-108830248D01*
X114735880Y-108612243D01*
X115139904Y-108208923D01*
X115162295Y-108155000D01*
X117217200Y-108155000D01*
X117508039Y-108097148D01*
X117754601Y-107932401D01*
X118273794Y-107413208D01*
X118597680Y-107477633D01*
X118632537Y-107470699D01*
X120675508Y-109513670D01*
X120618728Y-109799120D01*
X120724155Y-110329137D01*
X121024385Y-110778463D01*
X121473711Y-111078693D01*
X122003728Y-111184120D01*
X122567792Y-111184120D01*
X123097809Y-111078693D01*
X123483093Y-110821255D01*
X123588821Y-110926983D01*
X123479329Y-111087230D01*
X123428320Y-111339120D01*
X123428320Y-113339120D01*
X123472598Y-113574437D01*
X123611670Y-113790561D01*
X123823870Y-113935551D01*
X124065760Y-113984535D01*
X124065760Y-114310318D01*
X123500772Y-114875306D01*
X122976417Y-114874849D01*
X122485571Y-115077662D01*
X122112503Y-115450080D01*
X119851019Y-115450080D01*
X119814923Y-115362720D01*
X119411603Y-114958696D01*
X118884371Y-114739770D01*
X118313493Y-114739272D01*
X117785880Y-114957277D01*
X117381856Y-115360597D01*
X117162930Y-115887829D01*
X117162432Y-116458707D01*
X117380437Y-116986320D01*
X117783757Y-117390344D01*
X118310989Y-117609270D01*
X118881867Y-117609768D01*
X119409480Y-117391763D01*
X119813504Y-116988443D01*
X119821129Y-116970080D01*
X122113145Y-116970080D01*
X122483596Y-117341178D01*
X122974087Y-117544848D01*
X123505183Y-117545311D01*
X123996029Y-117342498D01*
X124371898Y-116967284D01*
X124490841Y-116680838D01*
X124608382Y-116965309D01*
X124983596Y-117341178D01*
X125474087Y-117544848D01*
X126005183Y-117545311D01*
X126496029Y-117342498D01*
X126871898Y-116967284D01*
X127075568Y-116476793D01*
X127076028Y-115949654D01*
X130013530Y-113012152D01*
X130293684Y-113128483D01*
X130580691Y-113128733D01*
X134163879Y-116711921D01*
X134410441Y-116876668D01*
X134701280Y-116934520D01*
X135250213Y-116934520D01*
X135439182Y-117217331D01*
X135904729Y-117528400D01*
X136453880Y-117637633D01*
X137003031Y-117528400D01*
X137468578Y-117217331D01*
X137779647Y-116751784D01*
X137888880Y-116202633D01*
X137888880Y-116146407D01*
X137779647Y-115597256D01*
X137468578Y-115131709D01*
X137003031Y-114820640D01*
X136453880Y-114711407D01*
X135904729Y-114820640D01*
X135439182Y-115131709D01*
X135250213Y-115414520D01*
X135016082Y-115414520D01*
X131655388Y-112053826D01*
X131655548Y-111871120D01*
X132290440Y-111871120D01*
X132525757Y-111826842D01*
X132741881Y-111687770D01*
X132886871Y-111475570D01*
X132937880Y-111223680D01*
X132937880Y-110605322D01*
X136115426Y-107427776D01*
X136167189Y-107449270D01*
X136738067Y-107449768D01*
X136792029Y-107427471D01*
X138877999Y-109513441D01*
X138877999Y-116256801D01*
X138935851Y-116547640D01*
X139100598Y-116794202D01*
X139789598Y-117483202D01*
X140036160Y-117647949D01*
X140326999Y-117705801D01*
X147137999Y-117705801D01*
X147428838Y-117647949D01*
X147675400Y-117483202D01*
X147971527Y-117187075D01*
X148136352Y-117255516D01*
X148786795Y-117256084D01*
X149387943Y-117007694D01*
X149848278Y-116548163D01*
X150097716Y-115947448D01*
X150098239Y-115347616D01*
X161620870Y-115347616D01*
X161902642Y-115770364D01*
X163055341Y-116247200D01*
X164302772Y-116246620D01*
X165452558Y-115770364D01*
X165734330Y-115347616D01*
X163677600Y-113290885D01*
X161620870Y-115347616D01*
X150098239Y-115347616D01*
X150098284Y-115297005D01*
X149849894Y-114695857D01*
X149390363Y-114235522D01*
X148789648Y-113986084D01*
X148139205Y-113985516D01*
X147538057Y-114233906D01*
X147077722Y-114693437D01*
X146828284Y-115294152D01*
X146827716Y-115944595D01*
X146896919Y-116112079D01*
X146823197Y-116185801D01*
X142498743Y-116185801D01*
X142597716Y-115947448D01*
X142598103Y-115504379D01*
X145234149Y-112868333D01*
X145263300Y-112880438D01*
X145818265Y-112880922D01*
X145849524Y-112868006D01*
X146574319Y-113592801D01*
X146820880Y-113757548D01*
X147111720Y-113815400D01*
X150871213Y-113815400D01*
X151060182Y-114098211D01*
X151525729Y-114409280D01*
X152074880Y-114518513D01*
X152624031Y-114409280D01*
X153089578Y-114098211D01*
X153400647Y-113632664D01*
X153509880Y-113083513D01*
X153509880Y-113027287D01*
X153402813Y-112489021D01*
X160541680Y-112489021D01*
X160542260Y-113736452D01*
X161018516Y-114886238D01*
X161441264Y-115168010D01*
X163497995Y-113111280D01*
X163857205Y-113111280D01*
X165913936Y-115168010D01*
X166336684Y-114886238D01*
X166813520Y-113733539D01*
X166812940Y-112486108D01*
X166336684Y-111336322D01*
X165913936Y-111054550D01*
X163857205Y-113111280D01*
X163497995Y-113111280D01*
X161441264Y-111054550D01*
X161018516Y-111336322D01*
X160541680Y-112489021D01*
X153402813Y-112489021D01*
X153400647Y-112478136D01*
X153089578Y-112012589D01*
X152624031Y-111701520D01*
X152074880Y-111592287D01*
X151525729Y-111701520D01*
X151060182Y-112012589D01*
X150871213Y-112295400D01*
X149071328Y-112295400D01*
X149060766Y-112284838D01*
X149302742Y-112215621D01*
X149489155Y-111692900D01*
X149461341Y-111138631D01*
X149352119Y-110874944D01*
X161620870Y-110874944D01*
X163677600Y-112931675D01*
X165734330Y-110874944D01*
X165452558Y-110452196D01*
X164299859Y-109975360D01*
X163052428Y-109975940D01*
X161902642Y-110452196D01*
X161620870Y-110874944D01*
X149352119Y-110874944D01*
X149302742Y-110755739D01*
X149060764Y-110686521D01*
X148261605Y-111485680D01*
X148275748Y-111499823D01*
X148096143Y-111679428D01*
X148082000Y-111665285D01*
X148067858Y-111679428D01*
X147888253Y-111499823D01*
X147902395Y-111485680D01*
X147103236Y-110686521D01*
X146861258Y-110755739D01*
X146809618Y-110900542D01*
X146725313Y-110696508D01*
X146536052Y-110506916D01*
X147282841Y-110506916D01*
X148082000Y-111306075D01*
X148881159Y-110506916D01*
X148811941Y-110264938D01*
X148289220Y-110078525D01*
X147734951Y-110106339D01*
X147352059Y-110264938D01*
X147282841Y-110506916D01*
X146536052Y-110506916D01*
X146333236Y-110303746D01*
X145820700Y-110090922D01*
X145265735Y-110090438D01*
X144752828Y-110302367D01*
X144396684Y-110657890D01*
X144365162Y-110490363D01*
X144246510Y-110305972D01*
X145604897Y-108947585D01*
X156189581Y-108947585D01*
X156263715Y-109193704D01*
X156800943Y-109386805D01*
X157371174Y-109359618D01*
X157771725Y-109193704D01*
X157845859Y-108947585D01*
X157017720Y-108119445D01*
X156189581Y-108947585D01*
X145604897Y-108947585D01*
X146220444Y-108332038D01*
X146704389Y-108532990D01*
X147275267Y-108533488D01*
X147802880Y-108315483D01*
X148206904Y-107912163D01*
X148285425Y-107723063D01*
X155570755Y-107723063D01*
X155597942Y-108293294D01*
X155763856Y-108693845D01*
X156009975Y-108767979D01*
X156838115Y-107939840D01*
X157197325Y-107939840D01*
X158025465Y-108767979D01*
X158271584Y-108693845D01*
X158464685Y-108156617D01*
X158437498Y-107586386D01*
X158271584Y-107185835D01*
X158025465Y-107111701D01*
X157197325Y-107939840D01*
X156838115Y-107939840D01*
X156009975Y-107111701D01*
X155763856Y-107185835D01*
X155570755Y-107723063D01*
X148285425Y-107723063D01*
X148425830Y-107384931D01*
X148426225Y-106932095D01*
X156189581Y-106932095D01*
X157017720Y-107760235D01*
X157845859Y-106932095D01*
X157771725Y-106685976D01*
X157234497Y-106492875D01*
X156664266Y-106520062D01*
X156263715Y-106685976D01*
X156189581Y-106932095D01*
X148426225Y-106932095D01*
X148426328Y-106814053D01*
X148404031Y-106760091D01*
X151157018Y-104007104D01*
X151260957Y-104111224D01*
X151788189Y-104330150D01*
X152359067Y-104330648D01*
X152886680Y-104112643D01*
X153290704Y-103709323D01*
X153509630Y-103182091D01*
X153509915Y-102855401D01*
X155582794Y-102855401D01*
X155582472Y-103224027D01*
X155800477Y-103751640D01*
X156203797Y-104155664D01*
X156731029Y-104374590D01*
X157301907Y-104375088D01*
X157829520Y-104157083D01*
X158233544Y-103753763D01*
X158452470Y-103226531D01*
X158452968Y-102655653D01*
X158234963Y-102128040D01*
X157831643Y-101724016D01*
X157304411Y-101505090D01*
X156733533Y-101504592D01*
X156670024Y-101530833D01*
X156464120Y-101393253D01*
X156173281Y-101335401D01*
X152874879Y-101335401D01*
X152651466Y-101379841D01*
X152584039Y-101393253D01*
X152436567Y-101491791D01*
X152361571Y-101460650D01*
X151790693Y-101460152D01*
X151263080Y-101678157D01*
X150859056Y-102081477D01*
X150777916Y-102276884D01*
X150656519Y-102357999D01*
X147329534Y-105684984D01*
X147277771Y-105663490D01*
X146706893Y-105662992D01*
X146179280Y-105880997D01*
X145775256Y-106284317D01*
X145556330Y-106811549D01*
X145556299Y-106846579D01*
X142464599Y-109938279D01*
X142371080Y-110078240D01*
X142242000Y-110078240D01*
X142006683Y-110122518D01*
X141790559Y-110261590D01*
X141645569Y-110473790D01*
X141594560Y-110725680D01*
X141594560Y-112245680D01*
X141638838Y-112480997D01*
X141777910Y-112697121D01*
X141990110Y-112842111D01*
X142242000Y-112893120D01*
X143059758Y-112893120D01*
X141768117Y-114184761D01*
X141289648Y-113986084D01*
X140639205Y-113985516D01*
X140397999Y-114085181D01*
X140397999Y-109198639D01*
X140375269Y-109084370D01*
X140340147Y-108907799D01*
X140175400Y-108661238D01*
X137867136Y-106352974D01*
X137888630Y-106301211D01*
X137889128Y-105730333D01*
X137671123Y-105202720D01*
X137267803Y-104798696D01*
X136740571Y-104579770D01*
X136169693Y-104579272D01*
X135642080Y-104797277D01*
X135238056Y-105200597D01*
X135019130Y-105727829D01*
X135018632Y-106298707D01*
X135040929Y-106352669D01*
X132560600Y-108832998D01*
X132560600Y-101990867D01*
X132843411Y-101801898D01*
X133154480Y-101336351D01*
X133263713Y-100787200D01*
X133154480Y-100238049D01*
X132843411Y-99772502D01*
X132377864Y-99461433D01*
X131828713Y-99352200D01*
X131772487Y-99352200D01*
X131223336Y-99461433D01*
X130757789Y-99772502D01*
X130446720Y-100238049D01*
X130337487Y-100787200D01*
X130446720Y-101336351D01*
X130757789Y-101801898D01*
X131040600Y-101990867D01*
X131040600Y-109629863D01*
X130838999Y-109759590D01*
X130694009Y-109971790D01*
X130643000Y-110223680D01*
X130643000Y-110858786D01*
X130397834Y-110858572D01*
X130366657Y-110418305D01*
X130255657Y-110150328D01*
X130040544Y-110113181D01*
X129430045Y-110723680D01*
X129444188Y-110737823D01*
X129264583Y-110917428D01*
X129250440Y-110903285D01*
X128639941Y-111513784D01*
X128677088Y-111728897D01*
X129029583Y-111846495D01*
X126000772Y-114875306D01*
X125536075Y-114874901D01*
X125585760Y-114625120D01*
X125585760Y-113984678D01*
X125811077Y-113942282D01*
X126027201Y-113803210D01*
X126172191Y-113591010D01*
X126223200Y-113339120D01*
X126223200Y-111339120D01*
X126178922Y-111103803D01*
X126039850Y-110887679D01*
X125827650Y-110742689D01*
X125575760Y-110691680D01*
X125456680Y-110691680D01*
X125381158Y-110578652D01*
X128102328Y-110578652D01*
X128134223Y-111029055D01*
X128245223Y-111297032D01*
X128460336Y-111334179D01*
X129070835Y-110723680D01*
X128460336Y-110113181D01*
X128245223Y-110150328D01*
X128102328Y-110578652D01*
X125381158Y-110578652D01*
X125363161Y-110551719D01*
X124745018Y-109933576D01*
X128639941Y-109933576D01*
X129250440Y-110544075D01*
X129860939Y-109933576D01*
X129823792Y-109718463D01*
X129395468Y-109575568D01*
X128945065Y-109607463D01*
X128677088Y-109718463D01*
X128639941Y-109933576D01*
X124745018Y-109933576D01*
X124370770Y-109559328D01*
X124370770Y-108826440D01*
X124381525Y-108832601D01*
X124484575Y-108851438D01*
X124698760Y-108728776D01*
X124698760Y-107386120D01*
X124952760Y-107386120D01*
X124952760Y-108728776D01*
X125166945Y-108851438D01*
X125269995Y-108832601D01*
X125742654Y-108561856D01*
X126075724Y-108130841D01*
X126218499Y-107605175D01*
X126057628Y-107386120D01*
X124952760Y-107386120D01*
X124698760Y-107386120D01*
X124678760Y-107386120D01*
X124678760Y-107132120D01*
X124698760Y-107132120D01*
X124698760Y-105789464D01*
X124952760Y-105789464D01*
X124952760Y-107132120D01*
X126057628Y-107132120D01*
X126218499Y-106913065D01*
X126075724Y-106387399D01*
X125742654Y-105956384D01*
X125269995Y-105685639D01*
X125166945Y-105666802D01*
X124952760Y-105789464D01*
X124698760Y-105789464D01*
X124484575Y-105666802D01*
X124381525Y-105685639D01*
X123994852Y-105907130D01*
X118822888Y-100735166D01*
X118887313Y-100411280D01*
X118814710Y-100046279D01*
X120943397Y-100046279D01*
X121830559Y-100933441D01*
X121970520Y-101026960D01*
X121970520Y-101196040D01*
X122014798Y-101431357D01*
X122153870Y-101647481D01*
X122366070Y-101792471D01*
X122617960Y-101843480D01*
X124217960Y-101843480D01*
X124453277Y-101799202D01*
X124669401Y-101660130D01*
X124814391Y-101447930D01*
X124823330Y-101403785D01*
X125089821Y-101403785D01*
X125163955Y-101649904D01*
X125701183Y-101843005D01*
X126271414Y-101815818D01*
X126671965Y-101649904D01*
X126746099Y-101403785D01*
X125917960Y-100575645D01*
X125089821Y-101403785D01*
X124823330Y-101403785D01*
X124862606Y-101209839D01*
X124910215Y-101224179D01*
X125738355Y-100396040D01*
X126097565Y-100396040D01*
X126925705Y-101224179D01*
X127171824Y-101150045D01*
X127364925Y-100612817D01*
X127337738Y-100042586D01*
X127171824Y-99642035D01*
X126925705Y-99567901D01*
X126097565Y-100396040D01*
X125738355Y-100396040D01*
X124910215Y-99567901D01*
X124862793Y-99582185D01*
X124826311Y-99388295D01*
X125089821Y-99388295D01*
X125917960Y-100216435D01*
X126746099Y-99388295D01*
X126671965Y-99142176D01*
X126134737Y-98949075D01*
X125564506Y-98976262D01*
X125163955Y-99142176D01*
X125089821Y-99388295D01*
X124826311Y-99388295D01*
X124821122Y-99360723D01*
X124686808Y-99151994D01*
X128235202Y-95603600D01*
X146069398Y-95603600D01*
X142299054Y-99373944D01*
X142247291Y-99352450D01*
X141676413Y-99351952D01*
X141148800Y-99569957D01*
X140744776Y-99973277D01*
X140525850Y-100500509D01*
X140525352Y-101071387D01*
X140743357Y-101599000D01*
X141146677Y-102003024D01*
X141231080Y-102038071D01*
X141231080Y-104059594D01*
X141179280Y-104080997D01*
X140775256Y-104484317D01*
X140556330Y-105011549D01*
X140555832Y-105582427D01*
X140773837Y-106110040D01*
X141177157Y-106514064D01*
X141704389Y-106732990D01*
X142275267Y-106733488D01*
X142802880Y-106515483D01*
X143206904Y-106112163D01*
X143425830Y-105584931D01*
X143426328Y-105014053D01*
X143208323Y-104486440D01*
X142805003Y-104082416D01*
X142751080Y-104060025D01*
X142751080Y-102013252D01*
X142772400Y-102004443D01*
X143176424Y-101601123D01*
X143395350Y-101073891D01*
X143395848Y-100503013D01*
X143373551Y-100449051D01*
X148219002Y-95603600D01*
X151496293Y-95603600D01*
X151681290Y-96051327D01*
X152281314Y-96652400D01*
X153065685Y-96978099D01*
X153914989Y-96978840D01*
X154699927Y-96654510D01*
X155301000Y-96054486D01*
X155626699Y-95270115D01*
X155627440Y-94420811D01*
X155303110Y-93635873D01*
X154793488Y-93125360D01*
X162351641Y-93125360D01*
X161843400Y-93632714D01*
X161517701Y-94417085D01*
X161516960Y-95266389D01*
X161841290Y-96051327D01*
X162441314Y-96652400D01*
X162917600Y-96850171D01*
X162917600Y-99872549D01*
X161903729Y-100291472D01*
X161020892Y-101172769D01*
X160542515Y-102324828D01*
X160541427Y-103572259D01*
X161017792Y-104725151D01*
X161899089Y-105607988D01*
X163051148Y-106086365D01*
X164298579Y-106087453D01*
X165451471Y-105611088D01*
X166334308Y-104729791D01*
X166812685Y-103577732D01*
X166813773Y-102330301D01*
X166337408Y-101177409D01*
X165456111Y-100294572D01*
X164437600Y-99871649D01*
X164437600Y-96829012D01*
X164859927Y-96654510D01*
X165461000Y-96054486D01*
X165786699Y-95270115D01*
X165787440Y-94420811D01*
X165463110Y-93635873D01*
X164953488Y-93125360D01*
X168606400Y-93125360D01*
X168606400Y-118817320D01*
X79500933Y-118817320D01*
X79502969Y-107942480D01*
X79710000Y-107942480D01*
X79710000Y-109542480D01*
X79754278Y-109777797D01*
X79893350Y-109993921D01*
X80105550Y-110138911D01*
X80357440Y-110189920D01*
X81957440Y-110189920D01*
X82192757Y-110145642D01*
X82408881Y-110006570D01*
X82553871Y-109794370D01*
X82575120Y-109689439D01*
X82843517Y-109958304D01*
X83370749Y-110177230D01*
X83941627Y-110177728D01*
X83995589Y-110155431D01*
X85525320Y-111685162D01*
X85525320Y-112666720D01*
X85285320Y-112666720D01*
X85050003Y-112710998D01*
X84833879Y-112850070D01*
X84688889Y-113062270D01*
X84637880Y-113314160D01*
X84637880Y-115814160D01*
X84682158Y-116049477D01*
X84821230Y-116265601D01*
X85033430Y-116410591D01*
X85285320Y-116461600D01*
X87285320Y-116461600D01*
X87520637Y-116417322D01*
X87736761Y-116278250D01*
X87881751Y-116066050D01*
X87932760Y-115814160D01*
X87932760Y-113314160D01*
X87888482Y-113078843D01*
X87749410Y-112862719D01*
X87537210Y-112717729D01*
X87285320Y-112666720D01*
X87045320Y-112666720D01*
X87045320Y-111370360D01*
X86987468Y-111079521D01*
X86822721Y-110832959D01*
X85070696Y-109080934D01*
X85092190Y-109029171D01*
X85092688Y-108458293D01*
X84874683Y-107930680D01*
X84471363Y-107526656D01*
X84417440Y-107504265D01*
X84417440Y-103459122D01*
X85833586Y-102042976D01*
X85885349Y-102064470D01*
X86456227Y-102064968D01*
X86983840Y-101846963D01*
X87387864Y-101443643D01*
X87443112Y-101310592D01*
X89166610Y-103034090D01*
X88531700Y-103034090D01*
X88296383Y-103078368D01*
X88080259Y-103217440D01*
X87935269Y-103429640D01*
X87884260Y-103681530D01*
X87884260Y-106031030D01*
X87928538Y-106266347D01*
X88067610Y-106482471D01*
X88279810Y-106627461D01*
X88531700Y-106678470D01*
X92031820Y-106678470D01*
X92267137Y-106634192D01*
X92483261Y-106495120D01*
X92628251Y-106282920D01*
X92679260Y-106031030D01*
X92679260Y-103681530D01*
X92634982Y-103446213D01*
X92495910Y-103230089D01*
X92283710Y-103085099D01*
X92031820Y-103034090D01*
X91033734Y-103034090D01*
X90983908Y-102783599D01*
X90819161Y-102537037D01*
X89135644Y-100853520D01*
X89731120Y-100853520D01*
X89966437Y-100809242D01*
X90182561Y-100670170D01*
X90327551Y-100457970D01*
X90365089Y-100272600D01*
X90719884Y-100628014D01*
X90777161Y-100651798D01*
X90808972Y-100811721D01*
X90973719Y-101058283D01*
X95292640Y-105377204D01*
X95292640Y-112436765D01*
X95037942Y-112606949D01*
X94726873Y-113072496D01*
X94617640Y-113621647D01*
X94617640Y-113677873D01*
X94726873Y-114227024D01*
X95037942Y-114692571D01*
X95503489Y-115003640D01*
X96052640Y-115112873D01*
X96290600Y-115065540D01*
X96290600Y-115407001D01*
X96099159Y-115530190D01*
X95954169Y-115742390D01*
X95903160Y-115994280D01*
X95903160Y-117159281D01*
X93705243Y-117159281D01*
X91932760Y-115386798D01*
X91932760Y-113314160D01*
X91888482Y-113078843D01*
X91749410Y-112862719D01*
X91553340Y-112728750D01*
X92031820Y-112728750D01*
X92267137Y-112684472D01*
X92483261Y-112545400D01*
X92628251Y-112333200D01*
X92679260Y-112081310D01*
X92679260Y-109731810D01*
X92634982Y-109496493D01*
X92495910Y-109280369D01*
X92283710Y-109135379D01*
X92031820Y-109084370D01*
X88531700Y-109084370D01*
X88296383Y-109128648D01*
X88080259Y-109267720D01*
X87935269Y-109479920D01*
X87884260Y-109731810D01*
X87884260Y-112081310D01*
X87928538Y-112316627D01*
X88067610Y-112532751D01*
X88279810Y-112677741D01*
X88531700Y-112728750D01*
X89022416Y-112728750D01*
X88833879Y-112850070D01*
X88688889Y-113062270D01*
X88637880Y-113314160D01*
X88637880Y-115814160D01*
X88682158Y-116049477D01*
X88821230Y-116265601D01*
X89033430Y-116410591D01*
X89285320Y-116461600D01*
X90857958Y-116461600D01*
X92853040Y-118456682D01*
X93099601Y-118621429D01*
X93390441Y-118679281D01*
X98175599Y-118679281D01*
X98466438Y-118621429D01*
X98713000Y-118456682D01*
X99108759Y-118060923D01*
X99298710Y-118190711D01*
X99550600Y-118241720D01*
X100550600Y-118241720D01*
X100785917Y-118197442D01*
X101002041Y-118058370D01*
X101147031Y-117846170D01*
X101198040Y-117594280D01*
X101198040Y-115994280D01*
X101153762Y-115758963D01*
X101014690Y-115542839D01*
X100810600Y-115403390D01*
X100810600Y-113880918D01*
X100959627Y-113881048D01*
X101487240Y-113663043D01*
X101891264Y-113259723D01*
X101913655Y-113205800D01*
X102340670Y-113205800D01*
X102340670Y-114145060D01*
X102384948Y-114380377D01*
X102524020Y-114596501D01*
X102736220Y-114741491D01*
X102988110Y-114792500D01*
X105337610Y-114792500D01*
X105572927Y-114748222D01*
X105789051Y-114609150D01*
X105934041Y-114396950D01*
X105985050Y-114145060D01*
X105985050Y-110644940D01*
X108390950Y-110644940D01*
X108390950Y-114145060D01*
X108435228Y-114380377D01*
X108574300Y-114596501D01*
X108786500Y-114741491D01*
X109038390Y-114792500D01*
X111387890Y-114792500D01*
X111623207Y-114748222D01*
X111839331Y-114609150D01*
X111984321Y-114396950D01*
X112035330Y-114145060D01*
X112035330Y-113155000D01*
X112685434Y-113155000D01*
X112706837Y-113206800D01*
X113110157Y-113610824D01*
X113637389Y-113829750D01*
X114208267Y-113830248D01*
X114735880Y-113612243D01*
X115139904Y-113208923D01*
X115358830Y-112681691D01*
X115359328Y-112110813D01*
X115141323Y-111583200D01*
X114738003Y-111179176D01*
X114210771Y-110960250D01*
X113639893Y-110959752D01*
X113112280Y-111177757D01*
X112708256Y-111581077D01*
X112685865Y-111635000D01*
X112035330Y-111635000D01*
X112035330Y-110644940D01*
X111991052Y-110409623D01*
X111851980Y-110193499D01*
X111639780Y-110048509D01*
X111387890Y-109997500D01*
X109038390Y-109997500D01*
X108803073Y-110041778D01*
X108586949Y-110180850D01*
X108441959Y-110393050D01*
X108390950Y-110644940D01*
X105985050Y-110644940D01*
X105940772Y-110409623D01*
X105801700Y-110193499D01*
X105589500Y-110048509D01*
X105337610Y-109997500D01*
X102988110Y-109997500D01*
X102752793Y-110041778D01*
X102536669Y-110180850D01*
X102391679Y-110393050D01*
X102340670Y-110644940D01*
X102340670Y-111685800D01*
X101914086Y-111685800D01*
X101892683Y-111634000D01*
X101489363Y-111229976D01*
X100962131Y-111011050D01*
X100391253Y-111010552D01*
X99863640Y-111228557D01*
X99459616Y-111631877D01*
X99240690Y-112159109D01*
X99240192Y-112729987D01*
X99319960Y-112923040D01*
X99290600Y-113070640D01*
X99290600Y-115407001D01*
X99099159Y-115530190D01*
X98954169Y-115742390D01*
X98903160Y-115994280D01*
X98903160Y-116163360D01*
X98763199Y-116256879D01*
X98198040Y-116822038D01*
X98198040Y-115994280D01*
X98153762Y-115758963D01*
X98014690Y-115542839D01*
X97810600Y-115403390D01*
X97810600Y-114647720D01*
X97752748Y-114356881D01*
X97588001Y-114110319D01*
X97432544Y-113954862D01*
X97487640Y-113677873D01*
X97487640Y-113621647D01*
X97378407Y-113072496D01*
X97067338Y-112606949D01*
X96812640Y-112436765D01*
X96812640Y-105062402D01*
X96794600Y-104971709D01*
X96754788Y-104771562D01*
X96590041Y-104525001D01*
X92497535Y-100432495D01*
X92693054Y-100237316D01*
X92774511Y-100041146D01*
X92830378Y-100176021D01*
X93072356Y-100245239D01*
X93871515Y-99446080D01*
X93072356Y-98646921D01*
X92830378Y-98716139D01*
X92778738Y-98860942D01*
X92694433Y-98656908D01*
X92302356Y-98264146D01*
X91789820Y-98051322D01*
X91234855Y-98050838D01*
X90721948Y-98262767D01*
X90365804Y-98618290D01*
X90334282Y-98450763D01*
X90195210Y-98234639D01*
X89983010Y-98089649D01*
X89731120Y-98038640D01*
X88211120Y-98038640D01*
X87975803Y-98082918D01*
X87759679Y-98221990D01*
X87614689Y-98434190D01*
X87563680Y-98686080D01*
X86770680Y-98686080D01*
X86479841Y-98743932D01*
X86478663Y-98744719D01*
X83347041Y-98744719D01*
X83056202Y-98802571D01*
X82809640Y-98967318D01*
X82413881Y-99363077D01*
X82223930Y-99233289D01*
X81972040Y-99182280D01*
X80372040Y-99182280D01*
X80136723Y-99226558D01*
X79920599Y-99365630D01*
X79775609Y-99577830D01*
X79724600Y-99829720D01*
X79724600Y-101429720D01*
X79768878Y-101665037D01*
X79907950Y-101881161D01*
X80120150Y-102026151D01*
X80372040Y-102077160D01*
X80397440Y-102077160D01*
X80397440Y-107295040D01*
X80357440Y-107295040D01*
X80122123Y-107339318D01*
X79905999Y-107478390D01*
X79761009Y-107690590D01*
X79710000Y-107942480D01*
X79502969Y-107942480D01*
X79505288Y-95557999D01*
X87774646Y-95557999D01*
X87861052Y-95814483D01*
X88434536Y-96024298D01*
X89044660Y-95998679D01*
X89489348Y-95814483D01*
X89575754Y-95557999D01*
X88675200Y-94657445D01*
X87774646Y-95557999D01*
X79505288Y-95557999D01*
X79505536Y-94237176D01*
X87128742Y-94237176D01*
X87154361Y-94847300D01*
X87338557Y-95291988D01*
X87595041Y-95378394D01*
X88495595Y-94477840D01*
X87595041Y-93577286D01*
X87338557Y-93663692D01*
X87128742Y-94237176D01*
X79505536Y-94237176D01*
X79505745Y-93125360D01*
X87899286Y-93125360D01*
X87861052Y-93141197D01*
M02*
