G04 #@! TF.FileFunction,Soldermask,Bot*
%FSLAX46Y46*%
G04 Gerber Fmt 4.6, Leading zero omitted, Abs format (unit mm)*
G04 Created by KiCad (PCBNEW 4.0.5) date 06/13/17 11:48:23*
%MOMM*%
%LPD*%
G01*
G04 APERTURE LIST*
%ADD10C,0.100000*%
%ADD11C,1.400000*%
%ADD12R,1.400000X1.400000*%
%ADD13C,2.000000*%
%ADD14O,2.000000X2.000000*%
%ADD15R,2.000000X2.000000*%
%ADD16C,5.401260*%
%ADD17C,1.800000*%
%ADD18C,2.400000*%
%ADD19C,3.399740*%
%ADD20C,2.200000*%
%ADD21O,2.400000X1.900000*%
%ADD22R,1.900000X2.400000*%
%ADD23O,1.900000X2.400000*%
%ADD24C,1.920000*%
%ADD25R,1.920000X1.920000*%
%ADD26O,1.800000X1.800000*%
%ADD27C,0.254000*%
G04 APERTURE END LIST*
D10*
D11*
X119689880Y-106359960D03*
X118419880Y-105089960D03*
D12*
X120959880Y-105089960D03*
D13*
X97109280Y-104825800D03*
D14*
X97109280Y-117525800D03*
D15*
X83427560Y-100563680D03*
D13*
X88427560Y-100563680D03*
D15*
X84119080Y-108691680D03*
D13*
X86619080Y-108691680D03*
X127487680Y-102372160D03*
X127487680Y-107372160D03*
D16*
X136281160Y-103642160D03*
X136281160Y-113802160D03*
D13*
X104526080Y-103757720D03*
X104526080Y-108757720D03*
D17*
X115829720Y-115458240D03*
X113329720Y-115458240D03*
D18*
X123116960Y-115610640D03*
X130616960Y-115610640D03*
D15*
X113431320Y-98882200D03*
D13*
X115931320Y-98882200D03*
X126989840Y-97881440D03*
X131989840Y-99681440D03*
X100675440Y-112445800D03*
D14*
X100675440Y-102285800D03*
D13*
X107924600Y-110063280D03*
D14*
X107924600Y-99903280D03*
D13*
X99288600Y-96418400D03*
D14*
X109448600Y-96418400D03*
D13*
X124129800Y-95432880D03*
D14*
X124129800Y-105592880D03*
D13*
X131023360Y-102509320D03*
D14*
X131023360Y-112669320D03*
D19*
X138440160Y-94554040D03*
X128280160Y-94554040D03*
D20*
X88675200Y-94477840D03*
X91175200Y-94477840D03*
X93675200Y-94477840D03*
D21*
X112374680Y-109047280D03*
D22*
X114914680Y-111587280D03*
D23*
X114914680Y-106507280D03*
D24*
X125262640Y-111617760D03*
X127802640Y-111617760D03*
D25*
X122722640Y-111617760D03*
D24*
X95168720Y-100863400D03*
X97708720Y-100863400D03*
D25*
X92628720Y-100863400D03*
D17*
X120187720Y-109987080D03*
D26*
X120187720Y-115067080D03*
D27*
G36*
X142011421Y-119202200D02*
X80695800Y-119202200D01*
X80695800Y-89382600D01*
X142016459Y-89382600D01*
X142011421Y-119202200D01*
X142011421Y-119202200D01*
G37*
X142011421Y-119202200D02*
X80695800Y-119202200D01*
X80695800Y-89382600D01*
X142016459Y-89382600D01*
X142011421Y-119202200D01*
M02*
